<svg width="90" height="30" viewBox="0 0 90 30" fill="none" xmlns="http://www.w3.org/2000/svg">
<g clip-path="url(#clip0_316_17)">
<path d="M89.3568 12.1552C88.7183 8.84361 86.9487 6.09766 84.2374 3.90915C81.6777 1.84145 78.6982 0.696401 75.3339 0.454758C73.4477 0.320207 71.5935 0.501436 69.7772 1.00943C67.8764 1.54215 66.1476 2.3879 64.5908 3.54669C64.5092 3.6071 64.4596 3.62358 64.3663 3.55493C62.0078 1.80851 59.3373 0.776034 56.3491 0.490456C54.5911 0.322954 52.8506 0.4273 51.1335 0.817224C48.9324 1.31699 46.9441 2.23413 45.1657 3.55218C45.087 3.60984 45.0433 3.62357 44.9587 3.56042C42.5944 1.80851 39.9181 0.776034 36.924 0.490456C35.3031 0.333938 33.6938 0.41082 32.102 0.734841C29.8047 1.20165 27.7202 2.11056 25.869 3.47529C25.6824 3.61259 25.5833 3.59062 25.4142 3.46706C21.7408 0.844682 17.6214 -0.0724629 13.0939 0.660703C11.0094 0.998454 9.07649 1.73711 7.33602 2.87393C2.84928 5.79836 0.613197 9.87059 0.447021 14.2998C0.455768 17.4823 1.08548 19.8054 2.3595 22.0159C5.45561 27.3869 11.986 30.3965 18.3852 29.4025C21.0324 28.9906 23.4171 28.0103 25.525 26.4478C25.6212 26.3764 25.6736 26.3792 25.7669 26.4478C29.207 28.9439 33.0845 29.9571 37.3905 29.4519C40.1921 29.1224 42.6964 28.1036 44.9179 26.4643C45.0345 26.3792 45.0958 26.3874 45.2065 26.4671C48.772 29.0428 52.7836 30.023 57.2208 29.397C59.8679 29.0235 62.241 28.0158 64.3459 26.4561C64.4421 26.3847 64.5004 26.3792 64.6025 26.4561C68.1213 29.0016 72.0833 30.0066 76.4767 29.4189C79.5903 29.0016 82.3395 27.7933 84.6193 25.7614C88.7912 22.0461 90.3859 17.4796 89.3597 12.1607L89.3568 12.1552ZM23.1519 24.3197C21.2306 25.6213 19.0937 26.3572 16.7293 26.5055C10.6945 26.879 5.24279 23.0264 3.96295 17.4851C2.64229 11.7653 5.98912 6.03177 11.8752 4.12059C15.9218 2.80803 19.735 3.38467 23.2306 5.72971C23.2597 5.74893 23.2889 5.77364 23.3268 5.79836C22.7612 6.46013 22.2568 7.15485 21.8224 7.89076C20.7408 9.72231 20.0936 11.6774 19.9216 13.7671C19.6097 17.5812 20.7059 21.0054 23.1956 24.0259C23.3093 24.1632 23.3064 24.2154 23.1548 24.317L23.1519 24.3197ZM25.6357 22.0214C22.2772 17.9409 22.2277 12.1223 25.627 7.97589C28.8251 11.6637 29.2216 17.7157 25.6357 22.0214ZM40.8802 25.2918C38.6762 26.3352 36.3409 26.7197 33.895 26.4506C31.7638 26.2172 29.8309 25.484 28.0934 24.295C27.9651 24.2071 27.9768 24.1577 28.0671 24.0506C29.8572 21.9115 30.9592 19.4979 31.2945 16.7931C31.7959 12.7538 30.7026 9.12369 28.0467 5.91369C27.9564 5.80385 27.9884 5.76816 28.0905 5.69951C29.9097 4.4501 31.9329 3.70595 34.1748 3.51648C37.2739 3.25287 40.0901 3.98055 42.6148 5.70226C42.7198 5.77365 42.7431 5.81209 42.6527 5.91644C40.9531 7.92372 39.8656 10.1974 39.4691 12.7374C38.8219 16.8947 39.8627 20.6594 42.5827 24.0012C42.6323 24.0644 42.6848 24.1248 42.7431 24.1934C42.1571 24.619 41.5361 24.9842 40.8802 25.2945V25.2918ZM45.1803 21.8841C45.0812 22.0104 45.0433 22.0241 44.9354 21.8868C43.5944 20.1706 42.7897 18.2567 42.5798 16.1313C42.2854 13.1849 43.0783 10.5159 44.9238 8.12143C45.055 7.95118 45.0579 7.95118 45.1891 8.11868C46.4951 9.78272 47.2706 11.6417 47.5243 13.6929C47.5767 14.1268 47.6001 14.5634 47.603 15.0275C47.5738 17.5373 46.7779 19.8329 45.1803 21.8813V21.8841ZM62.0136 24.3005C60.0836 25.6158 57.9379 26.3655 55.559 26.5028C52.5941 26.673 49.9119 25.9261 47.5039 24.2923C47.3843 24.2099 47.3872 24.166 47.4747 24.0644C49.119 22.1147 50.1947 19.9125 50.6116 17.4549C51.3317 13.1932 50.2851 9.34063 47.4747 5.92468C47.3989 5.83406 47.3727 5.79287 47.4922 5.70774C49.2589 4.49129 51.2297 3.76636 53.4016 3.52747C53.8564 3.47804 54.3141 3.45607 54.7718 3.46157C57.4336 3.47255 59.8417 4.2112 62.002 5.68028C62.139 5.77365 62.1448 5.82033 62.0399 5.94939C60.3198 8.0061 59.2294 10.3237 58.8592 12.9213C58.2703 17.0485 59.3402 20.7665 62.0544 24.0589C62.1506 24.1769 62.1302 24.2236 62.0136 24.3033V24.3005ZM64.4713 22.0296C62.9728 20.1788 62.1244 18.1029 61.9611 15.7936C61.76 12.8966 62.6084 10.2907 64.4625 7.96216C67.7394 11.8916 67.9726 17.7432 64.4683 22.0296H64.4713ZM82.8235 23.1692C78.1647 27.527 71.1941 27.4199 66.7948 24.1879C71.2641 19.0503 71.5381 11.2518 66.7948 5.79562C71.5847 2.33024 78.8236 2.63777 83.2812 7.27018C87.6484 11.812 87.4589 18.8333 82.8235 23.1692Z" fill="white"/>
</g>
<defs>
<clipPath id="clip0_316_17">
<rect width="90" height="30" fill="white"/>
</clipPath>
</defs>
</svg>
