<svg width="82" height="30" viewBox="0 0 82 30" fill="none" xmlns="http://www.w3.org/2000/svg">
<g clip-path="url(#clip0_316_44)">
<path d="M57.2727 17.3999C57.2189 17.7493 56.8078 18.0759 57.1882 18.467C57.2035 18.4822 57.1498 18.5696 57.1229 18.6227C56.5427 19.7202 55.8166 20.6923 54.7216 21.3493C54.5603 21.448 54.3835 21.524 54.203 21.5848C53.3616 21.8696 52.8006 21.4594 52.816 20.4417C52.8813 19.2379 53.569 18.1936 54.4604 17.2518C54.8753 16.8151 55.3325 16.4278 55.9165 16.2227C56.3084 16.086 56.6964 16.0632 57.0384 16.3518C57.3803 16.6442 57.3303 17.0164 57.2689 17.3999H57.2727Z" fill="white"/>
<path d="M37.7861 10.5C37.5671 10.3557 37.3674 10.4544 37.1945 10.6063C36.9332 10.8379 36.8026 11.1379 36.7603 11.4683C36.7757 11.605 36.7142 11.7607 36.8487 11.8405C36.9908 11.924 37.1253 11.8367 37.2483 11.7531C37.5172 11.5747 37.7592 11.3658 37.8668 11.0468C37.9321 10.8531 38.0013 10.6405 37.7861 10.4962V10.5ZM37.7861 10.5C37.5671 10.3557 37.3674 10.4544 37.1945 10.6063C36.9332 10.8379 36.8026 11.1379 36.7603 11.4683C36.7757 11.605 36.7142 11.7607 36.8487 11.8405C36.9908 11.924 37.1253 11.8367 37.2483 11.7531C37.5172 11.5747 37.7592 11.3658 37.8668 11.0468C37.9321 10.8531 38.0013 10.6405 37.7861 10.4962V10.5ZM81.5849 13.6898C81.2698 12.2848 80.4976 11.119 79.5179 10.0822C77.6853 8.14554 75.4262 6.80883 73.0403 5.67339C70.0551 4.25314 66.9123 3.2544 63.7081 2.45313C58.8288 1.23414 53.8649 0.508836 48.8511 0.159469C46.2232 -0.0266068 43.5876 -0.159526 40.9481 -0.121551C39.1078 -0.140539 37.2675 -0.0569889 35.4272 0.0265554C32.6917 0.151872 29.9638 0.387317 27.2475 0.740481C23.9473 1.1696 20.6739 1.7468 17.4543 2.59364C13.6123 3.59997 9.87018 4.87213 6.42007 6.8696C4.56438 7.94428 2.86622 9.20882 1.55994 10.9329C-0.299584 13.3822 -0.391786 16.1392 1.32559 18.6911C2.3053 20.1455 3.6231 21.262 5.06769 22.2379C7.50736 23.886 10.1814 25.0633 12.9592 26.0202C17.0163 27.4215 21.1887 28.3519 25.4341 28.9974C29.6296 29.6354 33.8519 29.981 38.0935 30.0949C40.9788 30.1709 43.868 30.1291 46.7534 29.962C49.4428 29.8063 52.1283 29.5899 54.7985 29.2253C59.0631 28.6481 63.2739 27.8088 67.381 26.5025C70.6583 25.4582 73.8356 24.1822 76.7056 22.2645C78.2808 21.2126 79.6946 19.9898 80.7089 18.3721C81.6156 16.9253 81.9576 15.3645 81.5811 13.686L81.5849 13.6898ZM78.8917 18.3114C77.9926 19.5873 76.8208 20.5784 75.5222 21.4291C72.2335 23.5822 68.5759 24.8848 64.8107 25.9215C61.0763 26.9506 57.2651 27.6266 53.4231 28.0861C49.2506 28.5873 45.059 28.8228 40.8521 28.8114C36.8256 28.8 32.8107 28.5949 28.8112 28.1316C24.0817 27.5848 19.4137 26.7304 14.8686 25.3063C11.8334 24.3531 8.89047 23.1797 6.23949 21.3987C4.84101 20.4607 3.55778 19.3899 2.68565 17.9278C1.35631 15.7025 1.49078 13.5151 3.06984 11.4531C4.43375 9.67211 6.25486 8.44934 8.21044 7.40503C11.5991 5.59744 15.2374 4.4544 18.9642 3.5582C23.0213 2.58604 27.1361 1.97466 31.2893 1.6063C36.6143 1.13162 41.9432 1.05187 47.2759 1.36326C54.2376 1.77339 61.0955 2.76834 67.7383 4.94808C70.7774 5.94682 73.7011 7.19238 76.2868 9.1177C77.328 9.89238 78.2616 10.7772 78.98 11.8633C80.3824 13.9784 80.3555 16.2379 78.8917 18.3114ZM74.3197 9.14048C72.0798 7.70504 69.6363 6.71769 67.1121 5.90503C62.2942 4.35186 57.3342 3.47465 52.305 2.92782C48.5207 2.51769 44.7248 2.37339 40.3372 2.31643C39.15 2.3582 37.3827 2.40377 35.6154 2.47972C30.5747 2.68858 25.5801 3.2658 20.647 4.32909C16.5399 5.2139 12.525 6.36452 8.79826 8.3468C7.2461 9.17085 5.78999 10.1354 4.63739 11.4721C3.71915 12.5354 3.05832 13.7126 3.16589 15.186C3.24658 16.3139 3.69225 17.2936 4.37997 18.1784C5.40194 19.4924 6.72743 20.4569 8.16049 21.2886C10.7385 22.7848 13.5239 23.7949 16.3824 24.6152C19.7787 25.5911 23.2403 26.2595 26.7442 26.7342C30.8206 27.2848 34.92 27.5734 39.031 27.6531C43.115 27.7329 47.1913 27.5468 51.26 27.1633C55.6207 26.7531 59.9276 26.062 64.1653 24.9493C67.5578 24.0569 70.8619 22.9329 73.8894 21.1367C75.3916 20.2481 76.7593 19.2 77.7506 17.738C78.9493 15.9759 78.9109 14.1949 77.8159 12.4139C76.9553 11.0088 75.6913 10.0139 74.3197 9.13668V9.14048ZM25.0115 22.3595C23.613 23.2025 22.0877 23.5405 20.4818 23.2215C17.2622 22.5835 16.5207 19.5341 17.4543 17.3202C18.0383 15.9303 19.0756 14.9886 20.5394 14.5253C20.8276 14.4341 21.1157 14.4114 21.4115 14.4683C21.6728 14.5139 21.8342 14.6696 21.8918 14.9202C21.9494 15.1708 21.8111 15.3303 21.5998 15.4481C20.9428 15.8164 20.3281 16.2417 19.8786 16.8569C19.0487 18.0038 19.2447 19.4924 20.3396 20.1721C21.1157 20.6544 21.9686 20.6088 22.8139 20.3772C23.7244 20.1303 24.512 19.6595 25.219 19.0481C26.9748 17.5329 28.3963 15.7329 29.7371 13.8645C29.7602 13.8342 29.7564 13.7848 29.7717 13.7202C28.9726 13.7202 28.258 13.9367 27.5972 14.343C27.4973 14.4038 27.4051 14.4797 27.3052 14.5405C27.0593 14.6886 26.798 14.7683 26.6021 14.4911C26.41 14.2215 26.5444 13.9822 26.7711 13.8076C27.2744 13.4126 27.8584 13.1772 28.4654 12.9911C29.1301 12.7899 29.8101 12.6721 30.494 12.581C30.8129 12.5392 30.9973 12.3987 31.1625 12.1595C32.0884 10.838 33.0951 9.58857 34.3591 8.56326C34.9431 8.09237 35.527 7.62908 36.2071 7.30249C36.307 7.25313 36.3953 7.18477 36.5836 7.06325C35.7652 6.91135 35.0545 6.77086 34.336 6.64554C32.9721 6.41389 31.6005 6.19744 30.2097 6.26199C28.696 6.33035 27.2245 6.58479 25.9374 7.4582C25.2497 7.9215 24.7195 8.5139 24.512 9.33415C24.2316 10.4468 25.0307 11.2633 26.1602 11.0088C27.2091 10.7734 28.0083 10.1468 28.6768 9.33796C28.7805 9.21644 28.8765 9.08352 28.9687 8.95441C29.084 8.79112 29.2338 8.71897 29.4259 8.79112C29.6219 8.86707 29.6488 9.04553 29.6488 9.22401C29.6488 9.29616 29.6334 9.37211 29.6065 9.43667C28.8612 11.2367 27.7316 12.6797 25.7492 13.2304C24.6734 13.5266 23.6245 13.3974 22.81 12.543C21.9225 11.6164 21.8803 10.5038 22.2376 9.35694C22.6794 7.94808 23.7244 7.04426 24.9692 6.34933C26.9747 5.23287 29.1724 5.00884 31.4238 5.062C33.9211 5.11896 36.3723 5.55186 38.8273 5.9506C41.6358 6.40629 44.4443 6.80883 47.3066 6.69491C48.8857 6.63415 50.4494 6.45947 51.99 6.12529C52.2513 6.06833 52.524 5.98097 52.7277 6.23161C52.939 6.49363 52.8775 6.78985 52.7507 7.05947C52.5586 7.4658 52.2282 7.75821 51.8594 8.00884C50.238 9.11011 48.4131 9.35694 46.5075 9.2658C44.3137 9.15947 42.2236 8.53667 40.1221 7.96705C39.4151 7.77718 38.7005 7.59112 37.9898 7.41264C37.8053 7.36707 37.5902 7.26073 37.5441 7.61389C37.521 7.80756 37.2828 7.87593 37.133 7.98606C35.8075 8.9658 34.5589 10.0291 33.5715 11.3582C33.3678 11.6316 33.1988 11.9316 32.9798 12.2696C33.9134 12.3 34.7586 12.2012 35.6077 12.167C35.8959 12.1557 35.8651 11.9734 35.8613 11.7721C35.8498 10.8076 36.3992 9.99111 37.2175 9.73288C38.1204 9.44807 38.9157 10.124 38.7505 11.043C38.616 11.8025 38.1857 12.3493 37.4557 12.6342C37.0869 12.7785 37.1522 12.9114 37.4135 13.0861C37.498 13.143 37.5863 13.2 37.6709 13.2569C37.8322 13.367 38.0128 13.481 37.863 13.7088C37.7247 13.9177 37.5287 13.9899 37.2905 13.8683C36.9486 13.6936 36.6374 13.4734 36.38 13.1886C36.2378 13.0329 36.088 12.9683 35.8767 12.9873C34.7894 13.0785 33.7059 13.1468 32.6225 13.2911C32.3305 13.3291 32.1576 13.4658 32.0078 13.7088C30.8705 15.562 29.741 17.4228 28.3963 19.1392C27.4281 20.3772 26.3754 21.5354 25.0076 22.3633L25.0115 22.3595ZM64.7301 10.9063C63.6658 12.5468 62.5901 14.1797 61.5297 15.824C60.5423 17.3582 59.5703 18.9 58.5982 20.4455C58.4369 20.7038 58.2793 20.9734 58.1833 21.2582C58.0296 21.7291 58.2909 22.0291 58.7903 21.9987C59.1592 21.9797 59.4627 21.8012 59.7547 21.6C60.6691 20.9544 61.4682 20.1797 62.2366 19.3747C62.3365 19.2683 62.4441 19.1658 62.5478 19.0633C62.9358 18.6949 63.3047 18.7633 63.5698 19.2417C63.6505 19.386 63.5621 19.4582 63.4891 19.5417C62.4249 20.7949 61.3145 21.9987 59.916 22.8987C59.2591 23.324 58.556 23.6544 57.7415 23.662C56.8232 23.6696 56.2623 23.2519 56.0817 22.3595C56.0049 21.9645 55.8973 22.0139 55.6591 22.2303C54.9906 22.8417 54.2452 23.3278 53.327 23.4797C51.8555 23.719 50.676 22.8531 50.4532 21.3949C50.3917 20.9886 50.3533 20.5861 50.4417 20.1797C50.4609 20.0886 50.5108 19.9595 50.4148 19.8949C50.3149 19.8266 50.2227 19.9253 50.142 19.9784C49.6963 20.2708 49.2084 20.4721 48.6936 20.6012C47.395 20.9164 46.4037 20.2557 46.2078 18.9531C46.1924 18.8544 46.1655 18.7595 46.1194 18.543C45.2511 19.8835 44.3944 21.0873 43.6682 22.3633C43.2302 23.1342 42.7193 23.5101 41.8241 23.3506C41.5667 23.305 41.2939 23.3392 41.0288 23.3506C40.7214 23.3658 40.6984 23.2367 40.8367 23.0164C41.1632 22.4962 41.4898 21.9797 41.8202 21.4633C42.6885 20.1152 43.5568 18.7632 44.3406 17.362C44.4597 17.1455 44.5788 16.9253 44.6172 16.6746C44.6787 16.2607 44.4213 16.0329 44.0025 16.143C43.6413 16.2379 43.3378 16.4468 43.0497 16.6784C41.7703 17.6924 40.7867 18.9683 39.8416 20.2671C38.9733 21.4595 38.0243 22.5607 36.6182 23.1683C35.1313 23.8101 33.5484 23.5139 32.6302 22.4126C32.4035 22.1392 32.2344 21.8354 32.1307 21.4974C32.0423 21.2164 31.9501 21.1215 31.7119 21.4025C31.3969 21.7708 31.0127 22.0671 30.6247 22.3557C30.3788 22.5379 30.1867 22.5151 30.0484 22.2531C29.9177 22.0063 29.4913 21.805 29.8831 21.4481C30.2212 21.1443 30.5555 20.8367 30.8821 20.5215C31.2893 20.1265 31.516 19.6215 31.735 19.1088C32.3689 17.6012 33.2372 16.2759 34.6972 15.4139C35.4118 14.9924 36.1802 14.7114 37.0024 14.5785C37.6171 14.4797 37.9667 14.7569 38.0128 15.3645C38.032 15.6228 37.8284 15.6304 37.6786 15.6911C36.7872 16.0595 35.9612 16.5303 35.3081 17.2481C34.555 18.0721 34.021 19.0025 34.1593 20.1607C34.2937 21.2544 35.1659 21.7709 36.2148 21.3949C37.4941 20.9354 38.2088 19.9519 38.616 18.7253C38.9387 17.7493 38.9733 16.743 38.6813 15.7557C38.5392 15.2772 38.7428 15.0987 39.5189 14.7379C39.9108 14.5557 40.1144 14.8291 40.2758 15.1329C40.5908 15.7253 40.6676 16.3747 40.7253 17.062C41.0057 16.9443 41.1364 16.7278 41.3016 16.5531C41.7818 16.0367 42.2467 15.5126 42.8038 15.0759C43.3647 14.6316 43.9718 14.2823 44.6979 14.2025C45.7237 14.0924 46.3307 14.6088 46.4037 15.6228C46.4153 15.7785 46.4229 15.9303 46.4345 16.1278C46.6842 16.0291 46.7534 15.824 46.884 15.6835C47.6063 14.9012 48.4323 14.324 49.5695 14.4455C50.361 14.5291 50.9488 15.186 50.9565 15.9493C50.9603 16.762 50.3456 17.5557 49.608 17.681C48.8741 17.8101 48.2632 17.3012 48.2556 16.5607C48.2556 16.4582 48.2556 16.3595 48.2556 16.2531C47.395 16.5949 47.0607 18.1822 47.71 18.7936C48.0519 19.1164 48.4669 19.1506 48.9049 19.0443C49.5657 18.8848 50.1113 18.505 50.6184 18.0873C51.5021 17.362 52.3512 16.5949 53.2425 15.8772C53.9533 15.3038 54.7409 14.8557 55.6629 14.6772C57.0614 14.4076 58.0949 14.9506 58.6059 16.2531C58.775 16.2303 58.8211 16.0784 58.8941 15.9683C60.0351 14.2557 61.1724 12.5392 62.2981 10.8152C62.4518 10.5759 62.6131 10.4696 62.8974 10.4772C63.4276 10.4924 63.9578 10.4772 64.488 10.4848C64.6148 10.4848 64.78 10.4278 64.8568 10.5531C64.9375 10.6898 64.7915 10.7924 64.7262 10.8949L64.7301 10.9063ZM36.8449 11.8405C36.987 11.924 37.1215 11.8367 37.2444 11.7531C37.5134 11.5747 37.7554 11.3658 37.863 11.0468C37.9283 10.8531 37.9975 10.6405 37.7823 10.4962C37.5633 10.3519 37.3635 10.4506 37.1906 10.6025C36.9294 10.8341 36.7987 11.1341 36.7565 11.4645C36.7718 11.6012 36.7104 11.7569 36.8449 11.8367V11.8405Z" fill="white"/>
<path d="M57.2727 17.3999C57.2189 17.7493 56.8078 18.0759 57.1882 18.467C57.2035 18.4822 57.1498 18.5696 57.1229 18.6227C56.5427 19.7202 55.8166 20.6923 54.7216 21.3493C54.5603 21.448 54.3835 21.524 54.203 21.5848C53.3616 21.8696 52.8006 21.4594 52.816 20.4417C52.8813 19.2379 53.569 18.1936 54.4604 17.2518C54.8753 16.8151 55.3325 16.4278 55.9165 16.2227C56.3084 16.086 56.6964 16.0632 57.0384 16.3518C57.3803 16.6442 57.3303 17.0164 57.2689 17.3999H57.2727Z" fill="white"/>
<path d="M37.7862 10.5C37.5673 10.3557 37.3675 10.4544 37.1946 10.6063C36.9333 10.8379 36.8027 11.1379 36.7604 11.4683C36.7758 11.605 36.7143 11.7607 36.8488 11.8405C36.991 11.924 37.1254 11.8367 37.2484 11.7531C37.5173 11.5746 37.7594 11.3658 37.8669 11.0468C37.9323 10.8531 38.0014 10.6405 37.7862 10.4962V10.5ZM37.7862 10.5C37.5673 10.3557 37.3675 10.4544 37.1946 10.6063C36.9333 10.8379 36.8027 11.1379 36.7604 11.4683C36.7758 11.605 36.7143 11.7607 36.8488 11.8405C36.991 11.924 37.1254 11.8367 37.2484 11.7531C37.5173 11.5746 37.7594 11.3658 37.8669 11.0468C37.9323 10.8531 38.0014 10.6405 37.7862 10.4962V10.5ZM77.816 12.4177C76.9554 11.0126 75.6914 10.0177 74.3198 9.14046C72.0799 7.70501 69.6364 6.71767 67.1122 5.90501C62.2944 4.35184 57.3343 3.47463 52.3052 2.92779C48.5208 2.51767 44.7249 2.37337 40.3373 2.31641C39.1502 2.35818 37.3829 2.40375 35.6155 2.47969C30.5748 2.68856 25.5802 3.26578 20.6471 4.32907C16.54 5.21388 12.5251 6.3645 8.79839 8.34678C7.24622 9.17083 5.79011 10.1354 4.63751 11.4721C3.71927 12.5354 3.05844 13.7126 3.16602 15.186C3.2467 16.3139 3.69237 17.2936 4.38009 18.1784C5.40206 19.4924 6.72755 20.4569 8.16061 21.2886C10.7386 22.7848 13.5241 23.7949 16.3825 24.6151C19.7788 25.5911 23.2405 26.2595 26.7444 26.7341C30.8207 27.2848 34.9201 27.5734 39.0311 27.6531C43.1151 27.7329 47.1915 27.5468 51.2601 27.1632C55.6208 26.7531 59.9277 26.062 64.1654 24.9493C67.5579 24.0569 70.862 22.9328 73.8895 21.1366C75.3917 20.248 76.7595 19.2 77.7507 17.7379C78.9494 15.9759 78.911 14.1949 77.816 12.4139V12.4177ZM25.0116 22.3594C23.6131 23.2025 22.0879 23.5405 20.4819 23.2215C17.2623 22.5835 16.5208 19.5341 17.4544 17.3202C18.0384 15.9303 19.0757 14.9886 20.5395 14.5253C20.8277 14.4341 21.1158 14.4113 21.4117 14.4683C21.6729 14.5139 21.8343 14.6696 21.8919 14.9202C21.9495 15.1708 21.8112 15.3303 21.5999 15.448C20.9429 15.8164 20.3282 16.2417 19.8787 16.8569C19.0488 18.0038 19.2448 19.4924 20.3397 20.1721C21.1158 20.6544 21.9688 20.6088 22.814 20.3772C23.7246 20.1303 24.5122 19.6594 25.2191 19.048C26.9749 17.5328 28.3964 15.7329 29.7373 13.8645C29.7603 13.8341 29.7565 13.7848 29.7718 13.7202C28.9727 13.7202 28.2581 13.9367 27.5973 14.343C27.4974 14.4038 27.4052 14.4797 27.3053 14.5404C27.0594 14.6885 26.7981 14.7683 26.6022 14.4911C26.4101 14.2215 26.5446 13.9822 26.7712 13.8075C27.2746 13.4126 27.8585 13.1772 28.4656 12.9911C29.1302 12.7898 29.8103 12.6721 30.4941 12.581C30.813 12.5392 30.9974 12.3987 31.1626 12.1594C32.0886 10.8379 33.0952 9.58855 34.3592 8.56323C34.9432 8.09235 35.5272 7.62905 36.2072 7.30247C36.3071 7.25311 36.3954 7.18475 36.5837 7.06323C35.7654 6.91133 35.0546 6.77083 34.3361 6.64552C32.9722 6.41387 31.6006 6.19741 30.2098 6.26197C28.6961 6.33032 27.2246 6.58476 25.9375 7.45818C25.2498 7.92147 24.7196 8.51388 24.5122 9.33413C24.2317 10.4468 25.0308 11.2632 26.1604 11.0088C27.2092 10.7734 28.0084 10.1468 28.6769 9.33793C28.7806 9.21641 28.8767 9.0835 28.9689 8.95438C29.0841 8.79109 29.234 8.71894 29.4261 8.7911C29.622 8.86705 29.6489 9.04551 29.6489 9.22399C29.6489 9.29614 29.6335 9.37209 29.6066 9.43665C28.8613 11.2366 27.7317 12.6797 25.7493 13.2303C24.6735 13.5265 23.6247 13.3974 22.8102 12.543C21.9226 11.6164 21.8804 10.5038 22.2377 9.35692C22.6795 7.94805 23.7245 7.04424 24.9694 6.3493C26.9749 5.23285 29.1725 5.00882 31.4239 5.06198C33.9212 5.11894 36.3724 5.55184 38.8274 5.95057C41.6359 6.40627 44.4444 6.80881 47.3067 6.69489C48.8858 6.63413 50.4495 6.45944 51.9901 6.12527C52.2514 6.0683 52.5242 5.98095 52.7278 6.23158C52.9391 6.49361 52.8776 6.78983 52.7508 7.05945C52.5587 7.46578 52.2283 7.75819 51.8595 8.00882C50.2382 9.11008 48.4132 9.35692 46.5076 9.26578C44.3138 9.15945 42.2238 8.53665 40.1222 7.96703C39.4153 7.77716 38.7007 7.59109 37.9899 7.41261C37.8055 7.36704 37.5903 7.2607 37.5442 7.61387C37.5211 7.80754 37.283 7.87591 37.1331 7.98604C35.8076 8.96578 34.559 10.0291 33.5716 11.3582C33.368 11.6316 33.1989 11.9316 32.9799 12.2696C33.9135 12.2999 34.7588 12.2012 35.6078 12.167C35.896 12.1556 35.8653 11.9734 35.8614 11.7721C35.8499 10.8075 36.3993 9.99109 37.2176 9.73286C38.1205 9.44805 38.9158 10.124 38.7506 11.043C38.6161 11.8025 38.1858 12.3493 37.4558 12.6341C37.087 12.7784 37.1523 12.9113 37.4136 13.086C37.4981 13.143 37.5865 13.1999 37.671 13.2569C37.8324 13.367 38.0129 13.481 37.8631 13.7088C37.7248 13.9177 37.5288 13.9898 37.2906 13.8683C36.9487 13.6936 36.6375 13.4734 36.3801 13.1885C36.2379 13.0329 36.0881 12.9683 35.8768 12.9873C34.7895 13.0784 33.706 13.1468 32.6226 13.2911C32.3306 13.3291 32.1577 13.4658 32.0079 13.7088C30.8707 15.562 29.7411 17.4227 28.3964 19.1392C27.4282 20.3772 26.3755 21.5354 25.0078 22.3632L25.0116 22.3594ZM64.7302 10.9063C63.6659 12.5468 62.5902 14.1797 61.5298 15.824C60.5424 17.3582 59.5704 18.9 58.5984 20.4455C58.437 20.7038 58.2795 20.9734 58.1834 21.2582C58.0297 21.7291 58.291 22.0291 58.7905 21.9987C59.1593 21.9797 59.4628 21.8012 59.7548 21.5999C60.6692 20.9544 61.4683 20.1797 62.2367 19.3746C62.3366 19.2683 62.4442 19.1658 62.5479 19.0632C62.936 18.6949 63.3048 18.7632 63.5699 19.2417C63.6506 19.386 63.5622 19.4582 63.4892 19.5417C62.425 20.7949 61.3147 21.9987 59.9162 22.8987C59.2592 23.324 58.5561 23.6544 57.7416 23.662C56.8233 23.6696 56.2624 23.2518 56.0818 22.3594C56.005 21.9645 55.8974 22.0139 55.6592 22.2303C54.9907 22.8417 54.2454 23.3278 53.3271 23.4797C51.8556 23.7189 50.6762 22.8531 50.4533 21.3949C50.3919 20.9886 50.3534 20.586 50.4418 20.1797C50.461 20.0886 50.5109 19.9594 50.4149 19.8949C50.315 19.8265 50.2228 19.9253 50.1421 19.9784C49.6965 20.2708 49.2085 20.4721 48.6937 20.6012C47.3951 20.9164 46.4039 20.2556 46.2079 18.9531C46.1926 18.8544 46.1656 18.7594 46.1195 18.543C45.2512 19.8835 44.3945 21.0873 43.6683 22.3632C43.2304 23.1341 42.7194 23.5101 41.8242 23.3506C41.5668 23.305 41.294 23.3392 41.0289 23.3506C40.7215 23.3658 40.6985 23.2367 40.8368 23.0164C41.1634 22.4961 41.4899 21.9797 41.8203 21.4632C42.6886 20.1151 43.5569 18.7632 44.3407 17.362C44.4598 17.1455 44.5789 16.9253 44.6173 16.6746C44.6788 16.2607 44.4214 16.0329 44.0026 16.143C43.6415 16.2379 43.3379 16.4468 43.0498 16.6784C41.7704 17.6923 40.7869 18.9683 39.8417 20.267C38.9734 21.4594 38.0245 22.5607 36.6183 23.1683C35.1314 23.8101 33.5485 23.5139 32.6303 22.4126C32.4036 22.1392 32.2346 21.8354 32.1308 21.4974C32.0425 21.2164 31.9503 21.1215 31.7121 21.4025C31.397 21.7708 31.0128 22.067 30.6248 22.3556C30.3789 22.5379 30.1868 22.5151 30.0485 22.2531C29.9179 22.0063 29.4914 21.805 29.8833 21.448C30.2214 21.1442 30.5556 20.8366 30.8822 20.5215C31.2894 20.1265 31.5161 19.6215 31.7351 19.1088C32.369 17.6012 33.2373 16.2759 34.6973 15.4139C35.4119 14.9924 36.1803 14.7113 37.0025 14.5784C37.6172 14.4797 37.9668 14.7569 38.0129 15.3645C38.0321 15.6227 37.8285 15.6303 37.6787 15.6911C36.7873 16.0594 35.9613 16.5303 35.3082 17.248C34.5551 18.0721 34.0211 19.0025 34.1594 20.1607C34.2939 21.2544 35.166 21.7708 36.2149 21.3949C37.4943 20.9354 38.2089 19.9518 38.6161 18.7253C38.9389 17.7493 38.9734 16.743 38.6814 15.7556C38.5393 15.2772 38.7429 15.0987 39.519 14.7379C39.9109 14.5556 40.1145 14.8291 40.2759 15.1328C40.5909 15.7253 40.6678 16.3746 40.7254 17.062C41.0058 16.9442 41.1365 16.7278 41.3017 16.5531C41.7819 16.0367 42.2468 15.5126 42.8039 15.0759C43.3648 14.6316 43.9719 14.2822 44.698 14.2025C45.7238 14.0924 46.3309 14.6088 46.4039 15.6227C46.4154 15.7784 46.4231 15.9303 46.4346 16.1278C46.6843 16.0291 46.7535 15.824 46.8841 15.6835C47.6064 14.9012 48.4324 14.324 49.5697 14.4455C50.3611 14.5291 50.9489 15.186 50.9566 15.9493C50.9605 16.762 50.3457 17.5556 49.6081 17.681C48.8743 17.8101 48.2634 17.3012 48.2557 16.5607C48.2557 16.4582 48.2557 16.3594 48.2557 16.2531C47.3951 16.5949 47.0608 18.1822 47.7101 18.7936C48.0521 19.1164 48.467 19.1506 48.905 19.0443C49.5658 18.8848 50.1114 18.505 50.6185 18.0873C51.5022 17.362 52.3513 16.5949 53.2426 15.8772C53.9534 15.3037 54.741 14.8557 55.6631 14.6772C57.0616 14.4076 58.095 14.9506 58.606 16.2531C58.7751 16.2303 58.8212 16.0784 58.8942 15.9683C60.0353 14.2556 61.1725 12.5392 62.2982 10.8151C62.4519 10.5759 62.6133 10.4696 62.8976 10.4772C63.4278 10.4924 63.9579 10.4772 64.4881 10.4848C64.6149 10.4848 64.7801 10.4278 64.857 10.5531C64.9377 10.6898 64.7916 10.7924 64.7263 10.8949L64.7302 10.9063ZM36.845 11.8405C36.9871 11.924 37.1216 11.8367 37.2445 11.7531C37.5135 11.5746 37.7555 11.3658 37.8631 11.0468C37.9284 10.8531 37.9976 10.6405 37.7824 10.4962C37.5634 10.3519 37.3636 10.4506 37.1907 10.6025C36.9295 10.8341 36.7989 11.1341 36.7566 11.4645C36.772 11.6012 36.7105 11.7569 36.845 11.8367V11.8405Z" fill="white"/>
<path d="M57.2727 17.3999C57.2189 17.7493 56.8078 18.0759 57.1882 18.467C57.2035 18.4822 57.1498 18.5696 57.1229 18.6227C56.5427 19.7202 55.8166 20.6923 54.7216 21.3493C54.5603 21.448 54.3835 21.524 54.203 21.5848C53.3616 21.8696 52.8006 21.4594 52.816 20.4417C52.8813 19.2379 53.569 18.1936 54.4604 17.2518C54.8753 16.8151 55.3325 16.4278 55.9165 16.2227C56.3084 16.086 56.6964 16.0632 57.0384 16.3518C57.3803 16.6442 57.3303 17.0164 57.2689 17.3999H57.2727Z" fill="white"/>
<path d="M37.7862 10.5C37.5673 10.3557 37.3675 10.4544 37.1946 10.6063C36.9333 10.8379 36.8027 11.1379 36.7604 11.4683C36.7758 11.605 36.7143 11.7607 36.8488 11.8405C36.991 11.924 37.1254 11.8367 37.2484 11.7531C37.5173 11.5746 37.7594 11.3658 37.8669 11.0468C37.9323 10.8531 38.0014 10.6405 37.7862 10.4962V10.5ZM37.7862 10.5C37.5673 10.3557 37.3675 10.4544 37.1946 10.6063C36.9333 10.8379 36.8027 11.1379 36.7604 11.4683C36.7758 11.605 36.7143 11.7607 36.8488 11.8405C36.991 11.924 37.1254 11.8367 37.2484 11.7531C37.5173 11.5746 37.7594 11.3658 37.8669 11.0468C37.9323 10.8531 38.0014 10.6405 37.7862 10.4962V10.5ZM77.816 12.4177C76.9554 11.0126 75.6914 10.0177 74.3198 9.14046C72.0799 7.70501 69.6364 6.71767 67.1122 5.90501C62.2944 4.35184 57.3343 3.47463 52.3052 2.92779C48.5208 2.51767 44.7249 2.37337 40.3373 2.31641C39.1502 2.35818 37.3829 2.40375 35.6155 2.47969C30.5748 2.68856 25.5802 3.26578 20.6471 4.32907C16.54 5.21388 12.5251 6.3645 8.79839 8.34678C7.24622 9.17083 5.79011 10.1354 4.63751 11.4721C3.71927 12.5354 3.05844 13.7126 3.16602 15.186C3.2467 16.3139 3.69237 17.2936 4.38009 18.1784C5.40206 19.4924 6.72755 20.4569 8.16061 21.2886C10.7386 22.7848 13.5241 23.7949 16.3825 24.6151C19.7788 25.5911 23.2405 26.2595 26.7444 26.7341C30.8207 27.2848 34.9201 27.5734 39.0311 27.6531C43.1151 27.7329 47.1915 27.5468 51.2601 27.1632C55.6208 26.7531 59.9277 26.062 64.1654 24.9493C67.5579 24.0569 70.862 22.9328 73.8895 21.1366C75.3917 20.248 76.7595 19.2 77.7507 17.7379C78.9494 15.9759 78.911 14.1949 77.816 12.4139V12.4177ZM25.0116 22.3594C23.6131 23.2025 22.0879 23.5405 20.4819 23.2215C17.2623 22.5835 16.5208 19.5341 17.4544 17.3202C18.0384 15.9303 19.0757 14.9886 20.5395 14.5253C20.8277 14.4341 21.1158 14.4113 21.4117 14.4683C21.6729 14.5139 21.8343 14.6696 21.8919 14.9202C21.9495 15.1708 21.8112 15.3303 21.5999 15.448C20.9429 15.8164 20.3282 16.2417 19.8787 16.8569C19.0488 18.0038 19.2448 19.4924 20.3397 20.1721C21.1158 20.6544 21.9688 20.6088 22.814 20.3772C23.7246 20.1303 24.5122 19.6594 25.2191 19.048C26.9749 17.5328 28.3964 15.7329 29.7373 13.8645C29.7603 13.8341 29.7565 13.7848 29.7718 13.7202C28.9727 13.7202 28.2581 13.9367 27.5973 14.343C27.4974 14.4038 27.4052 14.4797 27.3053 14.5404C27.0594 14.6885 26.7981 14.7683 26.6022 14.4911C26.4101 14.2215 26.5446 13.9822 26.7712 13.8075C27.2746 13.4126 27.8585 13.1772 28.4656 12.9911C29.1302 12.7898 29.8103 12.6721 30.4941 12.581C30.813 12.5392 30.9974 12.3987 31.1626 12.1594C32.0886 10.8379 33.0952 9.58855 34.3592 8.56323C34.9432 8.09235 35.5272 7.62905 36.2072 7.30247C36.3071 7.25311 36.3954 7.18475 36.5837 7.06323C35.7654 6.91133 35.0546 6.77083 34.3361 6.64552C32.9722 6.41387 31.6006 6.19741 30.2098 6.26197C28.6961 6.33032 27.2246 6.58476 25.9375 7.45818C25.2498 7.92147 24.7196 8.51388 24.5122 9.33413C24.2317 10.4468 25.0308 11.2632 26.1604 11.0088C27.2092 10.7734 28.0084 10.1468 28.6769 9.33793C28.7806 9.21641 28.8767 9.0835 28.9689 8.95438C29.0841 8.79109 29.234 8.71894 29.4261 8.7911C29.622 8.86705 29.6489 9.04551 29.6489 9.22399C29.6489 9.29614 29.6335 9.37209 29.6066 9.43665C28.8613 11.2366 27.7317 12.6797 25.7493 13.2303C24.6735 13.5265 23.6247 13.3974 22.8102 12.543C21.9226 11.6164 21.8804 10.5038 22.2377 9.35692C22.6795 7.94805 23.7245 7.04424 24.9694 6.3493C26.9749 5.23285 29.1725 5.00882 31.4239 5.06198C33.9212 5.11894 36.3724 5.55184 38.8274 5.95057C41.6359 6.40627 44.4444 6.80881 47.3067 6.69489C48.8858 6.63413 50.4495 6.45944 51.9901 6.12527C52.2514 6.0683 52.5242 5.98095 52.7278 6.23158C52.9391 6.49361 52.8776 6.78983 52.7508 7.05945C52.5587 7.46578 52.2283 7.75819 51.8595 8.00882C50.2382 9.11008 48.4132 9.35692 46.5076 9.26578C44.3138 9.15945 42.2238 8.53665 40.1222 7.96703C39.4153 7.77716 38.7007 7.59109 37.9899 7.41261C37.8055 7.36704 37.5903 7.2607 37.5442 7.61387C37.5211 7.80754 37.283 7.87591 37.1331 7.98604C35.8076 8.96578 34.559 10.0291 33.5716 11.3582C33.368 11.6316 33.1989 11.9316 32.9799 12.2696C33.9135 12.2999 34.7588 12.2012 35.6078 12.167C35.896 12.1556 35.8653 11.9734 35.8614 11.7721C35.8499 10.8075 36.3993 9.99109 37.2176 9.73286C38.1205 9.44805 38.9158 10.124 38.7506 11.043C38.6161 11.8025 38.1858 12.3493 37.4558 12.6341C37.087 12.7784 37.1523 12.9113 37.4136 13.086C37.4981 13.143 37.5865 13.1999 37.671 13.2569C37.8324 13.367 38.0129 13.481 37.8631 13.7088C37.7248 13.9177 37.5288 13.9898 37.2906 13.8683C36.9487 13.6936 36.6375 13.4734 36.3801 13.1885C36.2379 13.0329 36.0881 12.9683 35.8768 12.9873C34.7895 13.0784 33.706 13.1468 32.6226 13.2911C32.3306 13.3291 32.1577 13.4658 32.0079 13.7088C30.8707 15.562 29.7411 17.4227 28.3964 19.1392C27.4282 20.3772 26.3755 21.5354 25.0078 22.3632L25.0116 22.3594ZM64.7302 10.9063C63.6659 12.5468 62.5902 14.1797 61.5298 15.824C60.5424 17.3582 59.5704 18.9 58.5984 20.4455C58.437 20.7038 58.2795 20.9734 58.1834 21.2582C58.0297 21.7291 58.291 22.0291 58.7905 21.9987C59.1593 21.9797 59.4628 21.8012 59.7548 21.5999C60.6692 20.9544 61.4683 20.1797 62.2367 19.3746C62.3366 19.2683 62.4442 19.1658 62.5479 19.0632C62.936 18.6949 63.3048 18.7632 63.5699 19.2417C63.6506 19.386 63.5622 19.4582 63.4892 19.5417C62.425 20.7949 61.3147 21.9987 59.9162 22.8987C59.2592 23.324 58.5561 23.6544 57.7416 23.662C56.8233 23.6696 56.2624 23.2518 56.0818 22.3594C56.005 21.9645 55.8974 22.0139 55.6592 22.2303C54.9907 22.8417 54.2454 23.3278 53.3271 23.4797C51.8556 23.7189 50.6762 22.8531 50.4533 21.3949C50.3919 20.9886 50.3534 20.586 50.4418 20.1797C50.461 20.0886 50.5109 19.9594 50.4149 19.8949C50.315 19.8265 50.2228 19.9253 50.1421 19.9784C49.6965 20.2708 49.2085 20.4721 48.6937 20.6012C47.3951 20.9164 46.4039 20.2556 46.2079 18.9531C46.1926 18.8544 46.1656 18.7594 46.1195 18.543C45.2512 19.8835 44.3945 21.0873 43.6683 22.3632C43.2304 23.1341 42.7194 23.5101 41.8242 23.3506C41.5668 23.305 41.294 23.3392 41.0289 23.3506C40.7215 23.3658 40.6985 23.2367 40.8368 23.0164C41.1634 22.4961 41.4899 21.9797 41.8203 21.4632C42.6886 20.1151 43.5569 18.7632 44.3407 17.362C44.4598 17.1455 44.5789 16.9253 44.6173 16.6746C44.6788 16.2607 44.4214 16.0329 44.0026 16.143C43.6415 16.2379 43.3379 16.4468 43.0498 16.6784C41.7704 17.6923 40.7869 18.9683 39.8417 20.267C38.9734 21.4594 38.0245 22.5607 36.6183 23.1683C35.1314 23.8101 33.5485 23.5139 32.6303 22.4126C32.4036 22.1392 32.2346 21.8354 32.1308 21.4974C32.0425 21.2164 31.9503 21.1215 31.7121 21.4025C31.397 21.7708 31.0128 22.067 30.6248 22.3556C30.3789 22.5379 30.1868 22.5151 30.0485 22.2531C29.9179 22.0063 29.4914 21.805 29.8833 21.448C30.2214 21.1442 30.5556 20.8366 30.8822 20.5215C31.2894 20.1265 31.5161 19.6215 31.7351 19.1088C32.369 17.6012 33.2373 16.2759 34.6973 15.4139C35.4119 14.9924 36.1803 14.7113 37.0025 14.5784C37.6172 14.4797 37.9668 14.7569 38.0129 15.3645C38.0321 15.6227 37.8285 15.6303 37.6787 15.6911C36.7873 16.0594 35.9613 16.5303 35.3082 17.248C34.5551 18.0721 34.0211 19.0025 34.1594 20.1607C34.2939 21.2544 35.166 21.7708 36.2149 21.3949C37.4943 20.9354 38.2089 19.9518 38.6161 18.7253C38.9389 17.7493 38.9734 16.743 38.6814 15.7556C38.5393 15.2772 38.7429 15.0987 39.519 14.7379C39.9109 14.5556 40.1145 14.8291 40.2759 15.1328C40.5909 15.7253 40.6678 16.3746 40.7254 17.062C41.0058 16.9442 41.1365 16.7278 41.3017 16.5531C41.7819 16.0367 42.2468 15.5126 42.8039 15.0759C43.3648 14.6316 43.9719 14.2822 44.698 14.2025C45.7238 14.0924 46.3309 14.6088 46.4039 15.6227C46.4154 15.7784 46.4231 15.9303 46.4346 16.1278C46.6843 16.0291 46.7535 15.824 46.8841 15.6835C47.6064 14.9012 48.4324 14.324 49.5697 14.4455C50.3611 14.5291 50.9489 15.186 50.9566 15.9493C50.9605 16.762 50.3457 17.5556 49.6081 17.681C48.8743 17.8101 48.2634 17.3012 48.2557 16.5607C48.2557 16.4582 48.2557 16.3594 48.2557 16.2531C47.3951 16.5949 47.0608 18.1822 47.7101 18.7936C48.0521 19.1164 48.467 19.1506 48.905 19.0443C49.5658 18.8848 50.1114 18.505 50.6185 18.0873C51.5022 17.362 52.3513 16.5949 53.2426 15.8772C53.9534 15.3037 54.741 14.8557 55.6631 14.6772C57.0616 14.4076 58.095 14.9506 58.606 16.2531C58.7751 16.2303 58.8212 16.0784 58.8942 15.9683C60.0353 14.2556 61.1725 12.5392 62.2982 10.8151C62.4519 10.5759 62.6133 10.4696 62.8976 10.4772C63.4278 10.4924 63.9579 10.4772 64.4881 10.4848C64.6149 10.4848 64.7801 10.4278 64.857 10.5531C64.9377 10.6898 64.7916 10.7924 64.7263 10.8949L64.7302 10.9063ZM36.845 11.8405C36.9871 11.924 37.1216 11.8367 37.2445 11.7531C37.5135 11.5746 37.7555 11.3658 37.8631 11.0468C37.9284 10.8531 37.9976 10.6405 37.7824 10.4962C37.5634 10.3519 37.3636 10.4506 37.1907 10.6025C36.9295 10.8341 36.7989 11.1341 36.7566 11.4645C36.772 11.6012 36.7105 11.7569 36.845 11.8367V11.8405Z" fill="white"/>
<path d="M57.2727 17.3999C57.2189 17.7493 56.8078 18.0759 57.1882 18.467C57.2035 18.4822 57.1498 18.5696 57.1229 18.6227C56.5427 19.7202 55.8166 20.6923 54.7216 21.3493C54.5603 21.448 54.3835 21.524 54.203 21.5848C53.3616 21.8696 52.8006 21.4594 52.816 20.4417C52.8813 19.2379 53.569 18.1936 54.4604 17.2518C54.8753 16.8151 55.3325 16.4278 55.9165 16.2227C56.3084 16.086 56.6964 16.0632 57.0384 16.3518C57.3803 16.6442 57.3303 17.0164 57.2689 17.3999H57.2727Z" fill="white"/>
<path d="M37.863 11.0505C37.7554 11.3657 37.5134 11.5746 37.2444 11.7569C37.1215 11.8366 36.987 11.924 36.8449 11.8442C36.7104 11.7645 36.7718 11.6088 36.7565 11.4721C36.7987 11.1417 36.9294 10.8417 37.1906 10.61C37.3635 10.4581 37.5672 10.3556 37.7823 10.5037C37.9936 10.6442 37.9283 10.8607 37.863 11.0543V11.0505Z" fill="white"/>
<path d="M57.2727 17.3999C57.2189 17.7493 56.8078 18.0759 57.1882 18.467C57.2035 18.4822 57.1498 18.5696 57.1229 18.6227C56.5427 19.7202 55.8166 20.6923 54.7216 21.3493C54.5603 21.448 54.3835 21.524 54.203 21.5848C53.3616 21.8696 52.8006 21.4594 52.816 20.4417C52.8813 19.2379 53.569 18.1936 54.4604 17.2518C54.8753 16.8151 55.3325 16.4278 55.9165 16.2227C56.3084 16.086 56.6964 16.0632 57.0384 16.3518C57.3803 16.6442 57.3303 17.0164 57.2689 17.3999H57.2727Z" fill="white"/>
<path d="M37.863 11.0505C37.7554 11.3657 37.5134 11.5746 37.2444 11.7569C37.1215 11.8366 36.987 11.924 36.8449 11.8442C36.7104 11.7645 36.7718 11.6088 36.7565 11.4721C36.7987 11.1417 36.9294 10.8417 37.1906 10.61C37.3635 10.4581 37.5672 10.3556 37.7823 10.5037C37.9936 10.6442 37.9283 10.8607 37.863 11.0543V11.0505Z" fill="white"/>
</g>
<defs>
<clipPath id="clip0_316_44">
<rect width="82" height="30" fill="white"/>
</clipPath>
</defs>
</svg>
