<svg width="62" height="50" viewBox="0 0 62 50" fill="none" xmlns="http://www.w3.org/2000/svg">
<g clip-path="url(#clip0_316_65)">
<path d="M38.9147 26.8766C38.0548 28.7099 36.5484 29.3334 34.7031 29.4692C32.2364 29.5926 29.7697 29.5926 27.303 29.4692C25.4577 29.3334 23.9513 28.7099 23.0914 26.8766C21.1457 22.7655 18.7669 9.6976 18.0576 5.95068C16.8776 6.00007 15.8106 6.08647 14.8 6.1482C14.8377 14.2593 16.2688 37.9075 16.8902 43.5865C18.6727 43.6976 20.4552 43.784 22.2378 43.8458C23.1479 39.8025 24.2903 36.6297 24.8552 35.5803C25.7339 33.9569 26.6628 33.3211 29.1546 32.9939C29.6756 32.926 30.3409 32.889 31.0062 32.889C31.6213 32.889 32.2364 32.9198 32.8515 32.9939C35.3433 33.3211 36.2785 33.9569 37.151 35.5803C37.7159 36.6297 38.8582 39.7964 39.7683 43.8458C41.6826 43.7779 43.5217 43.6914 45.1159 43.5865C45.7436 37.9075 47.1747 14.2655 47.2123 6.1482C46.2081 6.0803 45.1348 6.00007 43.9548 5.95068C43.2393 9.70377 40.8604 22.7655 38.921 26.8766H38.9147Z" fill="white"/>
<path d="M61.4477 25.0371C61.7678 19.8025 61.7615 15.0988 61.4289 11.0741C60.8703 4.22227 57.6441 1.48771 50.9156 0.740795C46.4278 0.240795 36.3665 0.00622559 31 0.00622559C25.6335 0.00622559 15.5722 0.246968 11.0719 0.740795C4.34335 1.48771 1.12346 4.22227 0.558572 11.0741C0.23219 15.0988 0.22592 19.8025 0.546026 25.0371C1.05443 33.3951 1.88293 39.2223 3.00644 42.3581C4.31824 46.0371 6.99208 48.2778 10.9589 49.0062C14.6934 49.6976 26.0352 49.9939 30.9937 49.9939C35.9585 49.9939 47.3003 49.6976 51.0223 49.0124C54.9954 48.2778 57.6692 46.0433 58.9873 42.3643C60.1108 39.2223 60.9393 33.3951 61.4415 25.0433L61.4477 25.0371ZM58.3785 24.8457C57.7696 34.9075 56.7905 39.3704 56.0875 41.3519C55.1774 43.7716 53.0434 45.5494 50.4637 46.0309C47.3254 46.6112 37.013 46.9692 31 46.9692C24.987 46.9692 14.6683 46.6112 11.5301 46.0309C8.48591 45.463 6.59037 43.2531 5.9125 41.3519C5.20952 39.3704 4.23665 34.9075 3.62155 24.8457C3.314 19.747 3.314 15.1976 3.62783 11.3087C4.0107 6.66055 6.39579 4.30252 11.4171 3.74697C15.7981 3.25931 25.69 3.03091 30.9937 3.03091C36.2974 3.03091 46.1893 3.25313 50.5704 3.74079C55.5917 4.29634 57.9831 6.65437 58.3597 11.3025C58.6798 15.1914 58.686 19.747 58.3722 24.8395L58.3785 24.8457Z" fill="white"/>
</g>
<defs>
<clipPath id="clip0_316_65">
<rect width="62" height="50" fill="white"/>
</clipPath>
</defs>
</svg>
