<svg width="60" height="30" viewBox="0 0 60 30" fill="none" xmlns="http://www.w3.org/2000/svg">
<g clip-path="url(#clip0_316_77)">
<path d="M10.8994 26.6773C22.9033 31.5038 39.2332 31.333 50.8587 25.8114C54.8409 23.814 59.2969 20.4988 59.8472 15.7481C60.3211 10.6216 55.7695 6.77854 51.7491 4.5912C50.251 3.80133 48.6803 3.15954 47.0867 2.57473C39.9555 0.144354 31.5746 -0.702484 23.6065 0.258276C16.2689 1.25701 9.13765 2.98866 3.54275 8.04309C0.867589 10.5114 -0.722216 14.2216 0.584791 17.7836C2.29307 22.1165 6.84466 25.0026 10.8994 26.6773ZM48.0154 13.6178C49.0778 11.6393 50.0638 9.60386 50.9733 7.60639C51.088 7.47728 51.2294 7.38232 51.3899 7.32536C52.2459 7.40131 52.8536 8.05827 53.5338 8.51017C55.8842 10.4317 58.009 13.052 57.2867 16.2152C56.1096 20.8899 50.9886 23.3773 46.9147 24.9608C44.6982 25.6975 42.4587 26.4494 40.0319 26.6773C39.8791 26.6583 39.6306 26.6963 39.5963 26.4722L39.6536 26.2102C43.1045 22.3444 45.7224 18.0114 48.0154 13.6216V13.6178ZM24.8561 6.62284C25.8612 4.68233 27.6421 2.40005 30.1109 2.36208C35.423 2.3279 40.4294 3.11777 45.1912 4.43549C45.474 4.58359 45.8179 4.64055 45.9861 4.92536C46.1389 5.24434 45.8332 5.45322 45.665 5.65829C41.7402 8.71145 37.2459 10.4051 32.6523 11.8975C30.3211 12.4596 27.967 13.4811 25.3682 12.9152C24.7377 12.7558 24.195 12.3456 23.8702 11.7836C23.2243 10.0102 24.0956 8.16461 24.8561 6.62284ZM28.3874 17.8406C30.2256 17.3127 32.1822 16.7469 34.2459 17.0127C35.0982 17.1228 35.9504 17.7076 36.2523 18.5013C36.7109 20.8367 35.4765 22.7773 34.4523 24.6646C33.3135 26.4152 31.437 27.9228 29.1784 27.6988C24.2294 27.6304 19.3186 26.8823 14.5759 25.4735C14.358 25.4165 14.1708 25.2836 14.0447 25.0975C13.9491 24.8355 14.0867 24.5887 14.274 24.4216C18.4663 21.0494 23.4536 19.4849 28.3835 17.8444L28.3874 17.8406ZM2.69053 13.8608C3.84849 9.33803 8.53001 6.92283 12.4396 5.28612C14.7861 4.38612 17.2205 3.72917 19.7045 3.32664C19.9682 3.32664 20.3084 3.29246 20.4421 3.53549L20.3657 3.8203C15.3784 9.45575 12.0956 15.995 8.98861 22.4963C8.38097 23.0621 7.79244 22.3064 7.24212 22.0633C4.47524 20.2519 1.97205 17.3317 2.69434 13.8646L2.69053 13.8608Z" fill="white"/>
</g>
<defs>
<clipPath id="clip0_316_77">
<rect width="60" height="30" fill="white"/>
</clipPath>
</defs>
</svg>
