<svg width="67" height="50" viewBox="0 0 67 50" fill="none" xmlns="http://www.w3.org/2000/svg">
<g clip-path="url(#clip0_316_63)">
<path d="M49.3363 2.94506L47.6369 5.1219C56.9073 8.95726 61.6947 16.6158 61.6947 24.8231C61.6947 26.6707 61.3841 28.4572 60.8176 30.1646C60.3973 31.3536 59.8796 32.0365 58.3812 32.0609C47.6125 32.2926 41.5094 32.4634 30.7102 32.1768C29.3154 32.1463 28.8647 31.6402 28.6394 30.5365C28.4688 29.8841 28.6089 29.3353 29.0596 28.5183C34.7851 18.3597 44.7681 6.74994 46.7233 3.99384C47.0948 3.48775 46.9182 2.45727 45.6452 2.12191C41.9054 1.01825 37.7087 0.567017 33.4573 0.567017C14.2039 0.646285 0.621171 11.4877 0.304443 24.9451C1.07799 41.0975 15.1053 49.439 33.4573 49.439C44.6828 49.439 54.9704 45.4633 60.9882 39.1646L55.4272 39.3902C50.2925 43.9633 42.0698 46.4024 33.5669 46.4024C18.0655 46.4024 5.43907 38.6829 5.43907 24.8292C5.43907 12.9146 18.0594 3.20727 33.5669 3.20727L34.2795 3.23775C35.3272 3.26824 35.2115 3.99995 35.0409 4.25605C31.9589 9.06093 24.6681 17.5182 19.3629 26.7926C18.4858 28.2987 17.828 29.4024 17.828 31.0548C17.828 33.2926 19.2228 35.939 22.0246 37.0731C23.8702 37.8109 25.0274 37.8353 27.0192 37.8658C41.7896 38.3231 47.71 37.9207 60.9273 37.4756C61.6886 37.4756 62.4013 36.9572 62.6571 36.6463C65.2153 33.9816 66.6832 29.1829 66.6832 24.9512C66.6832 15.5304 59.904 7.04263 49.3302 2.95727L49.3363 2.94506Z" fill="white"/>
</g>
<defs>
<clipPath id="clip0_316_63">
<rect width="67" height="50" fill="white"/>
</clipPath>
</defs>
</svg>
