<svg width="62" height="50" viewBox="0 0 62 50" fill="none" xmlns="http://www.w3.org/2000/svg">
<g clip-path="url(#clip0_316_71)">
<path d="M31.6503 0.567017C33.5346 0.652382 35.8809 0.701169 38.215 0.877998C41.6189 1.14019 44.9621 1.73776 48.1654 2.98166C50.4448 3.86581 52.5358 5.06093 54.3532 6.71337C56.3591 8.53044 57.9274 10.6768 59.0579 13.1402C60.2736 15.7987 61.0031 18.5792 61.3617 21.4816C61.5623 23.1097 61.6109 24.7377 61.5197 26.3658C61.3617 29.1463 60.8937 31.878 59.8846 34.4939C58.675 37.6341 56.888 40.3963 54.3958 42.6707C52.1103 44.756 49.4358 46.1585 46.5303 47.1402C43.947 48.0121 41.3029 48.6036 38.598 48.9695C36.6285 49.2378 34.6591 49.4451 32.6715 49.439C30.854 49.439 29.0366 49.4451 27.2252 49.3536C24.5203 49.2134 21.8215 48.9268 19.1652 48.3536C15.9558 47.6646 12.8923 46.5914 10.1327 44.7621C7.55542 43.0426 5.45226 40.8536 3.82932 38.2073C2.24893 35.628 1.36756 32.8109 0.887362 29.8414C0.534813 27.6829 0.382852 25.506 0.449714 23.3231C0.589518 18.7134 1.73227 14.3963 4.31561 10.5243C6.15737 7.76825 8.57051 5.6402 11.5003 4.10361C14.5335 2.51215 17.7672 1.56702 21.1589 1.18288C23.1831 0.957267 25.2193 0.829212 27.2556 0.701164C28.5625 0.621895 29.8754 0.615797 31.6503 0.567017ZM7.98698 20.1707C7.94444 20.317 7.91403 20.3963 7.90188 20.4817C7.8107 21.3841 7.71953 22.2926 7.64051 23.1951C7.50071 24.8597 7.54932 26.5305 7.79854 28.1768C8.01736 29.6158 8.34561 31.0426 8.74679 32.4451C9.50659 35.1097 10.6919 37.5731 12.564 39.6463C14.6307 41.9451 17.1715 43.4939 20.1317 44.3353C23.1101 45.1829 26.1797 45.4268 29.2554 45.4817C31.4193 45.5183 33.5832 45.439 35.7411 45.317C38.4095 45.1707 41.005 44.6402 43.4911 43.6219C45.3754 42.8536 47.0956 41.8048 48.6031 40.4268C50.3233 38.8536 51.5511 36.9329 52.4568 34.7987C53.8244 31.5426 54.4505 28.1402 54.4566 24.6158C54.4566 23.2195 54.3532 21.8292 54.0858 20.4573C54.0068 20.0548 53.9764 20.0609 53.6117 20.2317C52.6452 20.6951 51.697 21.2256 50.688 21.5731C48.6638 22.2621 46.6032 22.8414 44.5609 23.4817C42.9683 23.9817 41.394 24.5487 39.9291 25.3719C36.1909 27.4634 33.5286 30.4938 32.0697 34.5548C31.936 34.9207 31.7719 35.2865 31.5652 35.6158C31.4558 35.7926 31.2431 35.9695 31.0425 36.0182C30.775 36.0853 30.6474 35.817 30.538 35.6036C30.4164 35.3597 30.3009 35.1158 30.2036 34.8658C29.2797 32.4999 28.0397 30.3292 26.2101 28.5304C24.6723 27.0182 22.9825 25.7012 20.9766 24.9268C19.0376 24.1829 17.0256 23.6036 15.0319 23.0121C12.8801 22.378 10.7527 21.689 8.76502 20.6097C8.52189 20.4756 8.27874 20.3353 7.9809 20.1646L7.98698 20.1707ZM51.5511 12.9877C51.466 12.8231 51.4113 12.7134 51.3505 12.6097C50.6576 11.4268 49.7397 10.4329 48.755 9.48165C46.6701 7.46945 44.2509 6.04872 41.4913 5.19506C38.5919 4.29262 35.6134 3.8597 32.5803 3.82311C29.8876 3.78653 27.207 3.96335 24.5385 4.33531C21.2623 4.79262 18.1866 5.76215 15.4756 7.73776C13.6825 9.04263 12.0717 10.5304 10.8195 12.378C10.3576 13.0609 10.3636 13.067 11.0627 13.4878C12.9956 14.6402 15.0319 15.5609 17.1168 16.3902C18.9403 17.1158 20.7638 17.8292 22.4962 18.7622C24.8607 20.0365 26.9031 21.6951 28.4956 23.8719C29.2676 24.9329 29.9787 26.0426 30.7203 27.128C30.9634 27.4878 31.0425 27.4756 31.2795 27.1097C31.8448 26.2317 32.4101 25.3536 33.0058 24.4938C34.2215 22.7316 35.6135 21.1402 37.3944 19.9329C39.0539 18.8048 40.8531 17.9512 42.707 17.1951C45.114 16.2195 47.5636 15.3414 49.8431 14.0609C50.4266 13.7317 50.9736 13.3536 51.5572 12.9877H51.5511Z" fill="white"/>
</g>
<defs>
<clipPath id="clip0_316_71">
<rect width="62" height="50" fill="white"/>
</clipPath>
</defs>
</svg>
