<svg width="57" height="50" viewBox="0 0 57 50" fill="none" xmlns="http://www.w3.org/2000/svg">
<g clip-path="url(#clip0_316_58)">
<path d="M28.4631 33.2407C28.0096 32.4444 27.5867 31.7098 27.1638 30.9691C24.4977 26.3086 21.8315 21.6419 19.1593 16.9814C19.0735 16.8333 19.0122 16.716 19.1225 16.5247C22.1993 11.179 25.2638 5.83329 28.3283 0.487613C28.365 0.419712 28.408 0.357973 28.4693 0.265381C28.7206 0.691307 28.9535 1.09872 29.1864 1.50613C32.0609 6.49378 34.9293 11.4752 37.8099 16.4567C37.9202 16.6543 37.9325 16.7901 37.816 16.9938C34.7638 22.2901 31.7177 27.5925 28.6715 32.895C28.6102 32.9999 28.5489 33.0987 28.4631 33.2469V33.2407Z" fill="white"/>
<path d="M28.4877 33.2654C28.5796 33.2654 28.6655 33.2531 28.7574 33.2531C34.8803 33.2531 41.0032 33.2531 47.1323 33.2531C47.3284 33.2531 47.451 33.2963 47.5552 33.4876C50.6013 38.8148 53.6535 44.1358 56.7058 49.4568C56.7487 49.5308 56.7916 49.6111 56.8406 49.6975C56.7487 49.7592 56.6629 49.7345 56.5771 49.7345C50.4603 49.7345 44.3497 49.7345 38.2329 49.7407C38.0245 49.7407 37.9203 49.6666 37.8223 49.4876C34.7823 44.2037 31.7361 38.9259 28.69 33.6419C28.6226 33.5308 28.5551 33.4197 28.4877 33.3086C28.4693 33.2963 28.4632 33.2901 28.4693 33.2777C28.4755 33.2654 28.4816 33.2654 28.4877 33.2654Z" fill="white"/>
<path d="M28.4877 33.2654C28.4877 33.2654 28.4877 33.2962 28.4877 33.3086C28.3529 33.3641 28.3222 33.5061 28.261 33.611C25.221 38.9012 22.1871 44.1974 19.1532 49.4937C19.0552 49.6604 18.9632 49.7345 18.761 49.7345C12.6319 49.7283 6.49677 49.7345 0.367738 49.7345H0.16547C0.147083 49.6234 0.214511 49.5678 0.251285 49.4999C3.30967 44.1604 6.3742 38.8209 9.43258 33.4814C9.51839 33.3332 9.59806 33.2468 9.79419 33.2468C15.9784 33.253 22.1564 33.2468 28.3406 33.2468C28.3897 33.2468 28.4387 33.253 28.4877 33.2592V33.2654Z" fill="white"/>
</g>
<defs>
<clipPath id="clip0_316_58">
<rect width="57" height="50" fill="white"/>
</clipPath>
</defs>
</svg>
