<svg width="61" height="50" viewBox="0 0 61 50" fill="none" xmlns="http://www.w3.org/2000/svg">
<g clip-path="url(#clip0_316_56)">
<path d="M35.7978 27.0169C35.747 27.0281 35.555 27.0281 35.4759 27.0281H29.2742V28.4607H35.5889C35.6397 28.4607 36.0125 28.4607 36.0803 28.4494C37.368 28.3315 37.9554 27.264 37.9554 26.3315C37.9554 25.3989 37.3398 24.3483 36.1763 24.236C35.9503 24.2135 35.7583 24.2135 35.6736 24.2135H31.5504C31.3697 24.2135 31.1664 24.2022 31.0929 24.1798C30.771 24.0955 30.6467 23.809 30.6467 23.5674C30.6467 23.3539 30.7654 23.0674 31.1042 22.9719C31.2003 22.9494 31.3076 22.9382 31.5392 22.9382H37.4923V21.5281H31.4431C31.1889 21.5281 30.9969 21.5393 30.8444 21.5618C29.8108 21.7079 29.0878 22.5281 29.0878 23.5843C29.0878 24.4438 29.6301 25.4494 30.8218 25.618C31.0365 25.6404 31.3414 25.6405 31.4713 25.6405H35.4872C35.5606 25.6405 35.7414 25.6404 35.7753 25.6517C36.2328 25.7135 36.3909 26.0449 36.3909 26.3427C36.3909 26.6405 36.2101 26.9382 35.8148 27.0112L35.7978 27.0169ZM24.0384 27.0169C23.9876 27.0281 23.7955 27.0281 23.7278 27.0281H17.5091V28.4607H23.8238C23.8746 28.4607 24.2474 28.4607 24.3152 28.4494C25.6029 28.3315 26.1903 27.264 26.1903 26.3315C26.1903 25.3989 25.5747 24.3483 24.4112 24.236C24.1852 24.2135 23.9876 24.2135 23.9085 24.2135H19.7854C19.6046 24.2135 19.4013 24.2022 19.3278 24.1798C19.0059 24.0955 18.8816 23.809 18.8816 23.5674C18.8816 23.3539 19.0002 23.0674 19.3391 22.9719C19.4352 22.9494 19.5425 22.9382 19.7741 22.9382H25.7272V21.5281H19.678C19.4239 21.5281 19.2318 21.5393 19.0793 21.5618C18.0457 21.7079 17.3227 22.5281 17.3227 23.5843C17.3227 24.4438 17.865 25.4494 19.0567 25.618C19.2714 25.6404 19.5764 25.6405 19.7063 25.6405H23.7221C23.7955 25.6405 23.9763 25.6404 24.0102 25.6517C24.4677 25.7135 24.6258 26.0449 24.6258 26.3427C24.6258 26.6405 24.4564 26.9382 24.0497 27.0112L24.0384 27.0169ZM12.7139 21.4775H14.2784V28.5H12.7139V21.4775ZM2.49072 21.4775H0.47998V28.5H2.04451V23.2359L7.28599 28.5H9.25721V21.4775H7.69266V26.7135L2.48507 21.4775H2.49072ZM52.3187 28.5H53.8832V23.2359L59.1134 28.5H61.0846V21.4775H59.5314V26.7135L54.3238 21.4775H52.3187V28.5ZM44.1741 21.4775L39.7741 28.5H41.6719L42.4514 27.2416H47.5855L48.365 28.5H50.2514L45.8515 21.4775H44.1684H44.1741ZM46.7835 25.9157H43.2591L45.0269 23.0955L46.7835 25.9157ZM9.17813 17.4944C12.3298 8.34832 21.011 2.19662 30.7936 2.19662C40.5762 2.19662 49.2743 8.3427 52.409 17.4944L52.4317 17.5674H59.3224V16.7416L56.4588 16.4045C54.6909 16.2022 54.3181 15.4214 53.838 14.4438L53.7194 14.2023C49.585 5.44945 40.5762 -0.219116 30.7936 -0.219116C21.011 -0.219116 12.0022 5.44944 7.86211 14.2303L7.74349 14.4719C7.2634 15.4551 6.89063 16.2303 5.12276 16.4326L2.25914 16.7696V17.5955H9.13858L9.17247 17.5L9.17813 17.4944ZM52.4373 32.4214L52.4147 32.4944C49.263 41.6405 40.5818 47.7809 30.7993 47.7809C21.0167 47.7809 12.3185 41.6348 9.18378 32.4831L9.16118 32.4101H2.28174V33.2359L5.14534 33.573C6.91321 33.7753 7.286 34.5562 7.76609 35.5337L7.88469 35.7753C12.0191 44.5505 21.0279 50.2247 30.8105 50.2247C40.5931 50.2247 49.6019 44.5562 53.742 35.7921L53.8606 35.5506C54.3407 34.5674 54.7135 33.7921 56.4814 33.5899L59.345 33.2528V32.4269H52.4429L52.4373 32.4214Z" fill="white"/>
</g>
<defs>
<clipPath id="clip0_316_56">
<rect width="61" height="50" fill="white"/>
</clipPath>
</defs>
</svg>
