<svg width="66" height="50" viewBox="0 0 66 50" fill="none" xmlns="http://www.w3.org/2000/svg">
<g clip-path="url(#clip0_316_42)">
<path fill-rule="evenodd" clip-rule="evenodd" d="M0.14624 18.9647L8.77662 18.8889C11.4972 8.07073 21.2662 0.0656738 32.8994 0.0656738C46.6384 0.0656738 57.7728 11.2323 57.7728 25C57.7728 25.2172 57.7728 25.4293 57.7677 25.6414L65.854 26.0202V30.2223L57.2136 30.298C54.7902 41.5253 44.8247 49.9344 32.9044 49.9344C19.1653 49.9344 8.03097 38.7677 8.03097 25C8.03097 24.5303 8.04105 24.0606 8.06624 23.596L0.14624 23.3889V18.9647ZM11.5123 18.8636L46.9609 18.5455L38.6681 24.7525L55.1429 25.5202C55.1429 25.3485 55.1479 25.1768 55.1479 25C55.1479 12.6818 45.1874 2.70204 32.8994 2.70204C22.7374 2.70204 14.1675 9.53536 11.5073 18.8687L11.5123 18.8636ZM54.5081 30.3232L19.1452 30.6414L27.962 24.1212L10.6962 23.6667C10.671 24.1111 10.6559 24.5556 10.6559 25C10.6559 37.3131 20.6163 47.298 32.9044 47.298C43.3586 47.298 52.1301 40.0657 54.5081 30.3232Z" fill="white"/>
</g>
<defs>
<clipPath id="clip0_316_42">
<rect width="66" height="50" fill="white"/>
</clipPath>
</defs>
</svg>
