<svg width="38" height="50" viewBox="0 0 38 50" fill="none" xmlns="http://www.w3.org/2000/svg">
<g clip-path="url(#clip0_316_73)">
<path d="M20.8625 49.8177C21.4536 48.7103 21.9978 47.6869 22.5467 46.6635C26.342 39.5701 30.1373 32.4813 33.942 25.3878C34.0734 25.1402 34.1297 24.9486 33.9748 24.6589C30.3109 17.7991 26.6563 10.9299 23.0018 4.06542C22.9361 3.94392 22.861 3.82709 22.7719 3.67288C21.5944 5.88316 20.4356 8.06541 19.2721 10.2477C16.7247 15.028 14.182 19.8084 11.6299 24.5841C11.4704 24.8785 11.4563 25.0934 11.6205 25.3972C13.6941 29.2523 15.7442 33.1168 17.8131 36.9719C17.982 37.2897 17.9914 37.5187 17.8131 37.8364C17.2642 38.8224 16.7529 39.8318 16.1946 40.8972C16.0726 40.6916 15.9835 40.5514 15.9038 40.4065C13.2203 35.3925 10.5462 30.3785 7.85337 25.3738C7.70324 25.0934 7.71264 24.8832 7.86276 24.6075C12.1178 16.6168 16.3682 8.62616 20.6092 0.626157C20.7874 0.289709 20.9798 0.158867 21.3645 0.172886C22.359 0.200923 23.3583 0.191577 24.3529 0.172886C24.6109 0.172886 24.7423 0.247649 24.8642 0.476621C29.1521 8.55606 33.4447 16.6355 37.7467 24.7056C37.8687 24.9346 37.8452 25.0935 37.7326 25.3037C33.4494 33.3505 29.1709 41.4019 24.9018 49.4533C24.7563 49.729 24.5968 49.8224 24.2825 49.8177C23.1754 49.7944 22.0682 49.8084 20.8625 49.8084V49.8177Z" fill="white"/>
<path d="M21.843 9.08893C21.9556 9.28052 22.0447 9.42537 22.1244 9.5749C24.8032 14.5889 27.482 19.5983 30.1701 24.6076C30.3203 24.888 30.3296 25.0889 30.1748 25.3786C25.8682 33.374 21.5662 41.3786 17.2783 49.3833C17.1094 49.7011 16.9311 49.8366 16.5558 49.8272C15.6222 49.7945 14.6887 49.8085 13.7598 49.8226C13.4924 49.8226 13.3422 49.7525 13.2109 49.5048C8.89013 41.4254 4.55532 33.3553 0.234583 25.2712C0.159521 25.1263 0.154829 24.874 0.234583 24.7338C4.54125 16.645 8.85729 8.56555 13.1827 0.490787C13.2531 0.355273 13.4501 0.201079 13.5862 0.196406C14.7215 0.173042 15.8615 0.182388 17.0859 0.182388C16.9827 0.392669 16.9124 0.556208 16.8279 0.710414C12.5729 8.65901 8.3131 16.6123 4.04866 24.5609C3.88446 24.8646 3.85631 25.0889 4.03459 25.416C7.68446 32.2291 11.3203 39.0515 14.9608 45.8693C15.0264 45.9955 15.0968 46.117 15.1906 46.2805C15.383 45.9254 15.5566 45.5983 15.7302 45.2712C19.2674 38.645 22.8 32.0188 26.3467 25.402C26.5062 25.0983 26.5015 24.8833 26.342 24.5889C24.2872 20.7618 22.2511 16.9207 20.1916 13.0983C19.9852 12.7104 19.9993 12.4301 20.2104 12.0702C20.764 11.103 21.2894 10.117 21.8524 9.08893H21.843Z" fill="white"/>
</g>
<defs>
<clipPath id="clip0_316_73">
<rect width="38" height="50" fill="white"/>
</clipPath>
</defs>
</svg>
