<svg width="50" height="50" viewBox="0 0 50 50" fill="none" xmlns="http://www.w3.org/2000/svg">
<g clip-path="url(#clip0_316_25)">
<path d="M32.2523 29.9112C31.8878 30.3598 32.5327 30.8365 32.1682 31.2009C31.8037 31.285 31.2429 31.1776 31.07 30.8131C31.07 30.8131 31.0467 30.3832 31.1541 29.8271C31.285 29.2664 31.757 27.8925 31.757 27.8925C33.3691 22.1355 31.3037 16.6963 27.5654 12.6776C26.1495 11.1308 24.2336 11.6028 22.4953 11.7757C21.9579 11.8645 20.9906 12.1402 21.5046 13.042C21.5046 13.042 22.8364 14.3084 23.2897 14.7804C23.7616 15.2523 24.6448 16.3271 24.6448 16.3271C24.6448 16.3271 24.9439 16.6729 24.8364 16.9953C24.7944 17.1449 24.5794 17.3832 24.2149 17.1682L22.3037 15.0421C22.3037 15.0421 20.6915 12.9159 19.1869 13.0654C18.3504 13.1729 17.2102 13.9252 16.3084 14.7196C15.4252 15.472 14.7803 16.3084 14.5887 16.6729C13.9439 17.8972 15.2336 17.6402 17.2523 18.7149C17.9392 19.0794 18.9953 19.5935 19.0373 20.1308C18.8644 20.9673 18.2616 20.3224 17.6822 20.0233C17.2336 19.785 13.8364 17.271 12.7616 19.6355C12.5233 20.0841 12.2897 20.6448 12.1168 21.1635C11.771 22.3037 11.6869 23.4626 12.1401 23.8037C12.6775 24.1916 13.514 24.1028 14.3084 24.0607C15.0607 23.9953 15.6215 24.0841 16.3925 24.4486C19.0327 25.7149 20.8411 28.4673 20.6261 30.9579C20.5841 31.0654 20.5186 31.0841 20.4766 31.1075C19.6588 31.3224 18.8644 30.6122 18.0934 30.271C16.0513 29.5421 12.8738 30.014 12.743 30.229C12.4626 30.8318 14.1168 31.6448 14.4859 32.4439C14.8504 33.0888 14.9813 33.9906 15.5373 34.5514C15.7943 34.7009 16.7616 34.7243 17.3411 34.5935C17.7476 34.486 18.4579 33.3458 18.8458 33.3271L32.1448 33.3505C32.7055 33.7149 31.8644 34.1869 32.1214 34.5514C33.9485 35 35.7289 33.6262 36.9112 32.1869C35.556 31.0047 34.0514 29.7383 32.2476 29.9112H32.2523ZM27.6121 30.1028C26.4953 30.1028 25.5934 29.2009 25.5934 28.0841C25.5934 26.9673 26.4953 26.042 27.6121 26.042C28.7289 26.042 29.6308 26.9673 29.6308 28.0841C29.6308 29.2009 28.7289 30.1028 27.6121 30.1028Z" fill="white"/>
<path d="M40.6308 15.2757L41.4065 16.6729L43.2757 14.7617L40.6308 15.2757ZM40.6308 15.2757L41.4065 16.6729L43.2757 14.7617L40.6308 15.2757ZM14.6121 41.0373L15.4299 41.6168L15.7757 40.07L14.6168 41.0373H14.6121ZM40.6308 15.2757L41.4065 16.6729L43.2757 14.7617L40.6308 15.2757ZM40.6308 15.2757L41.4065 16.6729L43.2757 14.7617L40.6308 15.2757ZM14.6121 41.0373L15.4299 41.6168L15.7757 40.07L14.6168 41.0373H14.6121ZM14.6121 41.0373L15.4299 41.6168L15.7757 40.07L14.6168 41.0373H14.6121ZM35.5841 41.299C35.2383 40.785 34.9626 39.7944 34.0794 39.9673C33.4766 40.0514 33.1355 40.7616 33.3925 41.2757C33.6916 41.7897 33.9953 42.7803 34.8971 42.6074C35.5607 42.5 35.8645 41.9205 35.5841 41.299ZM40.6308 15.2757L41.4065 16.6729L43.2757 14.7617L40.6308 15.2757ZM40.6308 15.2757L41.4065 16.6729L43.2757 14.7617L40.6308 15.2757ZM35.5841 41.299C35.2383 40.785 34.9626 39.7944 34.0794 39.9673C33.4766 40.0514 33.1355 40.7616 33.3925 41.2757C33.6916 41.7897 33.9953 42.7803 34.8971 42.6074C35.5607 42.5 35.8645 41.9205 35.5841 41.299ZM14.6121 41.0373L15.4299 41.6168L15.7757 40.07L14.6168 41.0373H14.6121ZM14.6121 41.0373L15.4299 41.6168L15.7757 40.07L14.6168 41.0373H14.6121ZM35.5841 41.299C35.2383 40.785 34.9626 39.7944 34.0794 39.9673C33.4766 40.0514 33.1355 40.7616 33.3925 41.2757C33.6916 41.7897 33.9953 42.7803 34.8971 42.6074C35.5607 42.5 35.8645 41.9205 35.5841 41.299ZM40.6308 15.2757L41.4065 16.6729L43.2757 14.7617L40.6308 15.2757ZM40.6308 15.2757L41.4065 16.6729L43.2757 14.7617L40.6308 15.2757ZM35.5841 41.299C35.2383 40.785 34.9626 39.7944 34.0794 39.9673C33.4766 40.0514 33.1355 40.7616 33.3925 41.2757C33.6916 41.7897 33.9953 42.7803 34.8971 42.6074C35.5607 42.5 35.8645 41.9205 35.5841 41.299ZM14.6121 41.0373L15.4299 41.6168L15.7757 40.07L14.6168 41.0373H14.6121ZM14.6121 41.0373L15.4299 41.6168L15.7757 40.07L14.6168 41.0373H14.6121ZM26.1495 4.96257C25.9766 4.25229 25.1822 3.99529 24.6028 4.0794C24.0654 4.16351 23.7196 4.7009 23.6355 5.21959C23.4626 6.10277 23.3551 7.15416 24.0654 7.84108C24.6028 8.20556 25.3551 8.05603 25.8925 7.66818C26.4953 6.98127 26.2383 5.75696 26.1495 4.96257ZM35.5841 41.299C35.2383 40.785 34.9626 39.7944 34.0794 39.9673C33.4766 40.0514 33.1355 40.7616 33.3925 41.2757C33.6916 41.7897 33.9953 42.7803 34.8971 42.6074C35.5607 42.5 35.8645 41.9205 35.5841 41.299ZM40.6308 15.2757L41.4065 16.6729L43.2757 14.7617L40.6308 15.2757ZM40.6308 15.2757L41.4065 16.6729L43.2757 14.7617L40.6308 15.2757ZM35.5841 41.299C35.2383 40.785 34.9626 39.7944 34.0794 39.9673C33.4766 40.0514 33.1355 40.7616 33.3925 41.2757C33.6916 41.7897 33.9953 42.7803 34.8971 42.6074C35.5607 42.5 35.8645 41.9205 35.5841 41.299ZM26.1495 4.96257C25.9766 4.25229 25.1822 3.99529 24.6028 4.0794C24.0654 4.16351 23.7196 4.7009 23.6355 5.21959C23.4626 6.10277 23.3551 7.15416 24.0654 7.84108C24.6028 8.20556 25.3551 8.05603 25.8925 7.66818C26.4953 6.98127 26.2383 5.75696 26.1495 4.96257ZM14.6121 41.0373L15.4299 41.6168L15.7757 40.07L14.6168 41.0373H14.6121ZM14.6121 41.0373L15.4299 41.6168L15.7757 40.07L14.6168 41.0373H14.6121ZM26.1495 4.96257C25.9766 4.25229 25.1822 3.99529 24.6028 4.0794C24.0654 4.16351 23.7196 4.7009 23.6355 5.21959C23.4626 6.10277 23.3551 7.15416 24.0654 7.84108C24.6028 8.20556 25.3551 8.05603 25.8925 7.66818C26.4953 6.98127 26.2383 5.75696 26.1495 4.96257ZM35.5841 41.299C35.2383 40.785 34.9626 39.7944 34.0794 39.9673C33.4766 40.0514 33.1355 40.7616 33.3925 41.2757C33.6916 41.7897 33.9953 42.7803 34.8971 42.6074C35.5607 42.5 35.8645 41.9205 35.5841 41.299ZM36.5046 8.16351C36.3317 7.47659 35.6215 7.3037 35 6.93921L33.4299 9.84108C33.4299 9.84108 34.8457 10.8925 35.5373 10.3551C36.2476 9.84108 36.5887 8.9579 36.5046 8.16351ZM40.6308 15.2757L41.4065 16.6729L43.2757 14.7617L40.6308 15.2757ZM35.5841 41.299C35.2383 40.785 34.9626 39.7944 34.0794 39.9673C33.4766 40.0514 33.1355 40.7616 33.3925 41.2757C33.6916 41.7897 33.9953 42.7803 34.8971 42.6074C35.5607 42.5 35.8645 41.9205 35.5841 41.299ZM14.6121 41.0373L15.4299 41.6168L15.7757 40.07L14.6168 41.0373H14.6121ZM26.1495 4.96257C25.9766 4.25229 25.1822 3.99529 24.6028 4.0794C24.0654 4.16351 23.7196 4.7009 23.6355 5.21959C23.4626 6.10277 23.3551 7.15416 24.0654 7.84108C24.6028 8.20556 25.3551 8.05603 25.8925 7.66818C26.4953 6.98127 26.2383 5.75696 26.1495 4.96257ZM36.5046 8.16351C36.3317 7.47659 35.6215 7.3037 35 6.93921L33.4299 9.84108C33.4299 9.84108 34.8457 10.8925 35.5373 10.3551C36.2476 9.84108 36.5887 8.9579 36.5046 8.16351ZM41.4065 16.6729L43.2757 14.7617L40.6308 15.2757L41.4065 16.6729ZM25.0093 1.52799C12.0514 1.52799 1.52333 12.0327 1.52333 25.014C1.52333 37.9953 12.0514 48.4766 25.0093 48.4766C37.9673 48.4766 48.4953 37.9719 48.4953 25.014C48.4953 12.056 37.9673 1.52799 25.0093 1.52799ZM34.1215 5.11211C35.5373 5.88781 37.2803 6.33641 38.1588 7.9065C38.5233 8.95791 38.1588 9.92518 37.6448 10.785C37.2149 11.5794 36.014 12.2243 35.3691 12.1168C33.9532 11.8598 32.7476 10.9766 31.3504 10.1168L34.1215 5.11211ZM21.7009 4.68219C22.0467 3.36911 23.5467 3.02799 24.7757 2.94388C25.8504 2.94388 26.9439 3.11678 27.7196 3.88781C28.3411 4.77099 28.4298 5.99528 28.257 7.04668C28.0654 8.01397 27.2897 8.61678 26.4112 8.89716C25.0373 9.07005 23.3598 9.41117 22.1355 8.10276C21.4486 7.13547 21.4486 5.91117 21.7056 4.68687L21.7009 4.68219ZM14.57 5.78033L16.1588 4.93921C16.3317 5.82239 16.0514 7.06538 16.028 8.03267C17.0607 8.67753 18.3457 9.10743 19.3784 9.8364L17.6168 10.6729L14.5233 9.06071L14.5654 5.77565L14.57 5.78033ZM12.9159 6.81303L16.1401 11.542L14.785 12.5514L11.5841 7.75697L12.9159 6.81303ZM5.00463 13.8364L5.69154 13.7289L5.36911 13.1682C5.51864 12.9532 5.62612 12.7196 5.77565 12.5046L6.16351 13.2149L5.51865 14.3738C5.32706 14.3972 4.98127 14.4392 4.76632 14.4579C4.80837 14.3084 5.00463 13.8364 5.00463 13.8364ZM9.9065 18.5654L8.93921 17.9626C9.64949 17.3411 10.6822 16.3925 10.2476 15.4252C8.89715 14.7616 8.67752 17.2523 7.285 17.2523C6.66351 17.2523 5.82239 16.8224 5.60743 16.1121C5.60743 16.1121 5.52332 15.6822 5.52332 15.4018C5.49996 14.9065 5.71491 14.3691 5.95322 13.9205C6.21023 13.4906 6.49062 13.1448 6.49062 13.1448L7.285 12.2616L8.0607 12.8831C7.54669 13.4859 6.92052 14.0233 6.83641 14.7943C6.83641 15.0513 7.07472 15.3738 7.37379 15.3317C8.2336 14.6215 9.11678 13.1401 10.3411 13.4859C10.9626 13.4859 11.5654 14.1074 11.7383 14.6261C12.1028 16.1962 10.9626 17.528 9.91117 18.556L9.9065 18.5654ZM16.0934 44.2196L14.7803 43.3831L15.0607 42.4579L13.8785 41.5747L13.0186 42.1542C12.6728 41.8551 12.3504 41.5514 12.028 41.2523L15.4439 38.7149L17.2056 39.7663L16.0887 44.2149L16.0934 44.2196ZM22.5841 45.486C21.9813 45.9345 21.014 45.6775 20.3925 45.486C18.9953 44.9906 19.2336 43.8317 19.2336 43.8317L19.8785 41.1261L21.2102 41.4065L20.6962 44.2429C20.6728 44.6915 21.514 44.9953 21.813 44.5233C21.9205 44.2009 22.2009 42.6121 22.3738 41.6448C22.8224 41.7523 23.3411 41.8598 23.6822 41.9486C23.5747 42.6775 23.4673 44.7196 22.5888 45.4953L22.5841 45.486ZM29.3317 45.5093L27.9579 45.7897L27.3364 42.6542L26.2616 42.9112L26.0467 41.9672L29.6121 41.1728L29.8691 42.1168L28.7102 42.3971L29.3317 45.514V45.5093ZM36.4439 42.5841C35.757 43.2944 34.9626 43.7243 33.9953 43.6355C33.1355 43.5514 32.4252 42.6682 32.1682 41.9813C31.9953 41.271 31.9953 40.5187 32.5093 40.0467C33.2196 39.4205 33.9065 39.014 34.8738 38.9065C35.7523 38.9065 36.5514 39.8738 36.8925 40.6495C37.2149 41.3785 36.9766 42.1542 36.4439 42.5841ZM25.0093 39.6635C16.9065 39.6635 10.3364 33.0888 10.3364 25.0093C10.3364 16.9299 16.9112 10.3317 25.0093 10.3317C33.1074 10.3317 39.6635 16.9065 39.6635 25.0093C39.6635 33.1121 33.1121 39.6635 25.0093 39.6635ZM40.5046 20.285L39.6869 18.542L40.7196 17.5514L39.5607 15.5514L38.2523 15.8504L37.2616 14.4532L43.556 13.4018L44.8037 15.4859L40.5046 20.2757V20.285ZM36.5046 8.16351C36.3317 7.47659 35.6215 7.3037 35 6.93921L33.4299 9.84108C33.4299 9.84108 34.8457 10.8925 35.5373 10.3551C36.2476 9.84108 36.5887 8.9579 36.5046 8.16351ZM34.0794 39.9673C33.4766 40.0514 33.1355 40.7616 33.3925 41.2757C33.6916 41.7897 33.9953 42.7803 34.8971 42.6074C35.5607 42.5 35.8645 41.9205 35.5841 41.299C35.2383 40.785 34.9626 39.7944 34.0794 39.9673ZM25.8925 7.67286C26.4953 6.98594 26.2383 5.76164 26.1495 4.96725C25.9766 4.25697 25.1822 3.99995 24.6028 4.08406C24.0654 4.16818 23.7196 4.70556 23.6355 5.22425C23.4626 6.10743 23.3551 7.15884 24.0654 7.84575C24.6028 8.21024 25.3551 8.06071 25.8925 7.67286ZM15.4299 41.6215L15.7757 40.0747L14.6168 41.042L15.4345 41.6215H15.4299ZM40.6308 15.2757L41.4065 16.6729L43.2757 14.7617L40.6308 15.2757ZM41.4065 16.6729L43.2757 14.7617L40.6308 15.2757L41.4065 16.6729ZM25.0093 1.52799C12.0514 1.52799 1.52333 12.0327 1.52333 25.014C1.52333 37.9953 12.0514 48.4766 25.0093 48.4766C37.9673 48.4766 48.4953 37.9719 48.4953 25.014C48.4953 12.056 37.9673 1.52799 25.0093 1.52799ZM34.1215 5.11211C35.5373 5.88781 37.2803 6.33641 38.1588 7.9065C38.5233 8.95791 38.1588 9.92518 37.6448 10.785C37.2149 11.5794 36.014 12.2243 35.3691 12.1168C33.9532 11.8598 32.7476 10.9766 31.3504 10.1168L34.1215 5.11211ZM21.7009 4.68219C22.0467 3.36911 23.5467 3.02799 24.7757 2.94388C25.8504 2.94388 26.9439 3.11678 27.7196 3.88781C28.3411 4.77099 28.4298 5.99528 28.257 7.04668C28.0654 8.01397 27.2897 8.61678 26.4112 8.89716C25.0373 9.07005 23.3598 9.41117 22.1355 8.10276C21.4486 7.13547 21.4486 5.91117 21.7056 4.68687L21.7009 4.68219ZM14.57 5.78033L16.1588 4.93921C16.3317 5.82239 16.0514 7.06538 16.028 8.03267C17.0607 8.67753 18.3457 9.10743 19.3784 9.8364L17.6168 10.6729L14.5233 9.06071L14.5654 5.77565L14.57 5.78033ZM12.9159 6.81303L16.1401 11.542L14.785 12.5514L11.5841 7.75697L12.9159 6.81303ZM5.00463 13.8364L5.69154 13.7289L5.36911 13.1682C5.51864 12.9532 5.62612 12.7196 5.77565 12.5046L6.16351 13.2149L5.51865 14.3738C5.32706 14.3972 4.98127 14.4392 4.76632 14.4579C4.80837 14.3084 5.00463 13.8364 5.00463 13.8364ZM9.9065 18.5654L8.93921 17.9626C9.64949 17.3411 10.6822 16.3925 10.2476 15.4252C8.89715 14.7616 8.67752 17.2523 7.285 17.2523C6.66351 17.2523 5.82239 16.8224 5.60743 16.1121C5.60743 16.1121 5.52332 15.6822 5.52332 15.4018C5.49996 14.9065 5.71491 14.3691 5.95322 13.9205C6.21023 13.4906 6.49062 13.1448 6.49062 13.1448L7.285 12.2616L8.0607 12.8831C7.54669 13.4859 6.92052 14.0233 6.83641 14.7943C6.83641 15.0513 7.07472 15.3738 7.37379 15.3317C8.2336 14.6215 9.11678 13.1401 10.3411 13.4859C10.9626 13.4859 11.5654 14.1074 11.7383 14.6261C12.1028 16.1962 10.9626 17.528 9.91117 18.556L9.9065 18.5654ZM16.0934 44.2196L14.7803 43.3831L15.0607 42.4579L13.8785 41.5747L13.0186 42.1542C12.6728 41.8551 12.3504 41.5514 12.028 41.2523L15.4439 38.7149L17.2056 39.7663L16.0887 44.2149L16.0934 44.2196ZM22.5841 45.486C21.9813 45.9345 21.014 45.6775 20.3925 45.486C18.9953 44.9906 19.2336 43.8317 19.2336 43.8317L19.8785 41.1261L21.2102 41.4065L20.6962 44.2429C20.6728 44.6915 21.514 44.9953 21.813 44.5233C21.9205 44.2009 22.2009 42.6121 22.3738 41.6448C22.8224 41.7523 23.3411 41.8598 23.6822 41.9486C23.5747 42.6775 23.4673 44.7196 22.5888 45.4953L22.5841 45.486ZM29.3317 45.5093L27.9579 45.7897L27.3364 42.6542L26.2616 42.9112L26.0467 41.9672L29.6121 41.1728L29.8691 42.1168L28.7102 42.3971L29.3317 45.514V45.5093ZM36.4439 42.5841C35.757 43.2944 34.9626 43.7243 33.9953 43.6355C33.1355 43.5514 32.4252 42.6682 32.1682 41.9813C31.9953 41.271 31.9953 40.5187 32.5093 40.0467C33.2196 39.4205 33.9065 39.014 34.8738 38.9065C35.7523 38.9065 36.5514 39.8738 36.8925 40.6495C37.2149 41.3785 36.9766 42.1542 36.4439 42.5841ZM25.0093 39.6635C16.9065 39.6635 10.3364 33.0888 10.3364 25.0093C10.3364 16.9299 16.9112 10.3317 25.0093 10.3317C33.1074 10.3317 39.6635 16.9065 39.6635 25.0093C39.6635 33.1121 33.1121 39.6635 25.0093 39.6635ZM40.5046 20.285L39.6869 18.542L40.7196 17.5514L39.5607 15.5514L38.2523 15.8504L37.2616 14.4532L43.556 13.4018L44.8037 15.4859L40.5046 20.2757V20.285ZM36.5046 8.16351C36.3317 7.47659 35.6215 7.3037 35 6.93921L33.4299 9.84108C33.4299 9.84108 34.8457 10.8925 35.5373 10.3551C36.2476 9.84108 36.5887 8.9579 36.5046 8.16351ZM34.0794 39.9673C33.4766 40.0514 33.1355 40.7616 33.3925 41.2757C33.6916 41.7897 33.9953 42.7803 34.8971 42.6074C35.5607 42.5 35.8645 41.9205 35.5841 41.299C35.2383 40.785 34.9626 39.7944 34.0794 39.9673ZM25.8925 7.67286C26.4953 6.98594 26.2383 5.76164 26.1495 4.96725C25.9766 4.25697 25.1822 3.99995 24.6028 4.08406C24.0654 4.16818 23.7196 4.70556 23.6355 5.22425C23.4626 6.10743 23.3551 7.15884 24.0654 7.84575C24.6028 8.21024 25.3551 8.06071 25.8925 7.67286ZM15.4299 41.6215L15.7757 40.0747L14.6168 41.042L15.4345 41.6215H15.4299ZM25.0093 0.172852C11.299 0.172852 0.172852 11.3037 0.172852 25.0093C0.172852 38.7149 11.3037 49.8271 25.0093 49.8271C38.7149 49.8271 49.8271 38.7196 49.8271 25.0093C49.8271 11.299 38.7196 0.172852 25.0093 0.172852ZM25.0093 49.2056C11.6448 49.2056 0.817714 38.3785 0.817714 25.014C0.817714 11.6495 11.6448 0.799018 25.0093 0.799018C38.3738 0.799018 49.2009 11.6495 49.2009 25.014C49.2009 38.3785 38.3691 49.2056 25.0093 49.2056ZM41.4065 16.6729L43.2757 14.7617L40.6308 15.2757L41.4065 16.6729ZM25.0093 1.52799C12.0514 1.52799 1.52333 12.0327 1.52333 25.014C1.52333 37.9953 12.0514 48.4766 25.0093 48.4766C37.9673 48.4766 48.4953 37.9719 48.4953 25.014C48.4953 12.056 37.9673 1.52799 25.0093 1.52799ZM34.1215 5.11211C35.5373 5.88781 37.2803 6.33641 38.1588 7.9065C38.5233 8.95791 38.1588 9.92518 37.6448 10.785C37.2149 11.5794 36.014 12.2243 35.3691 12.1168C33.9532 11.8598 32.7476 10.9766 31.3504 10.1168L34.1215 5.11211ZM21.7009 4.68219C22.0467 3.36911 23.5467 3.02799 24.7757 2.94388C25.8504 2.94388 26.9439 3.11678 27.7196 3.88781C28.3411 4.77099 28.4298 5.99528 28.257 7.04668C28.0654 8.01397 27.2897 8.61678 26.4112 8.89716C25.0373 9.07005 23.3598 9.41117 22.1355 8.10276C21.4486 7.13547 21.4486 5.91117 21.7056 4.68687L21.7009 4.68219ZM14.57 5.78033L16.1588 4.93921C16.3317 5.82239 16.0514 7.06538 16.028 8.03267C17.0607 8.67753 18.3457 9.10743 19.3784 9.8364L17.6168 10.6729L14.5233 9.06071L14.5654 5.77565L14.57 5.78033ZM12.9159 6.81303L16.1401 11.542L14.785 12.5514L11.5841 7.75697L12.9159 6.81303ZM5.00463 13.8364L5.69154 13.7289L5.36911 13.1682C5.51864 12.9532 5.62612 12.7196 5.77565 12.5046L6.16351 13.2149L5.51865 14.3738C5.32706 14.3972 4.98127 14.4392 4.76632 14.4579C4.80837 14.3084 5.00463 13.8364 5.00463 13.8364ZM9.9065 18.5654L8.93921 17.9626C9.64949 17.3411 10.6822 16.3925 10.2476 15.4252C8.89715 14.7616 8.67752 17.2523 7.285 17.2523C6.66351 17.2523 5.82239 16.8224 5.60743 16.1121C5.60743 16.1121 5.52332 15.6822 5.52332 15.4018C5.49996 14.9065 5.71491 14.3691 5.95322 13.9205C6.21023 13.4906 6.49062 13.1448 6.49062 13.1448L7.285 12.2616L8.0607 12.8831C7.54669 13.4859 6.92052 14.0233 6.83641 14.7943C6.83641 15.0513 7.07472 15.3738 7.37379 15.3317C8.2336 14.6215 9.11678 13.1401 10.3411 13.4859C10.9626 13.4859 11.5654 14.1074 11.7383 14.6261C12.1028 16.1962 10.9626 17.528 9.91117 18.556L9.9065 18.5654ZM16.0934 44.2196L14.7803 43.3831L15.0607 42.4579L13.8785 41.5747L13.0186 42.1542C12.6728 41.8551 12.3504 41.5514 12.028 41.2523L15.4439 38.7149L17.2056 39.7663L16.0887 44.2149L16.0934 44.2196ZM22.5841 45.486C21.9813 45.9345 21.014 45.6775 20.3925 45.486C18.9953 44.9906 19.2336 43.8317 19.2336 43.8317L19.8785 41.1261L21.2102 41.4065L20.6962 44.2429C20.6728 44.6915 21.514 44.9953 21.813 44.5233C21.9205 44.2009 22.2009 42.6121 22.3738 41.6448C22.8224 41.7523 23.3411 41.8598 23.6822 41.9486C23.5747 42.6775 23.4673 44.7196 22.5888 45.4953L22.5841 45.486ZM29.3317 45.5093L27.9579 45.7897L27.3364 42.6542L26.2616 42.9112L26.0467 41.9672L29.6121 41.1728L29.8691 42.1168L28.7102 42.3971L29.3317 45.514V45.5093ZM36.4439 42.5841C35.757 43.2944 34.9626 43.7243 33.9953 43.6355C33.1355 43.5514 32.4252 42.6682 32.1682 41.9813C31.9953 41.271 31.9953 40.5187 32.5093 40.0467C33.2196 39.4205 33.9065 39.014 34.8738 38.9065C35.7523 38.9065 36.5514 39.8738 36.8925 40.6495C37.2149 41.3785 36.9766 42.1542 36.4439 42.5841ZM25.0093 39.6635C16.9065 39.6635 10.3364 33.0888 10.3364 25.0093C10.3364 16.9299 16.9112 10.3317 25.0093 10.3317C33.1074 10.3317 39.6635 16.9065 39.6635 25.0093C39.6635 33.1121 33.1121 39.6635 25.0093 39.6635ZM40.5046 20.285L39.6869 18.542L40.7196 17.5514L39.5607 15.5514L38.2523 15.8504L37.2616 14.4532L43.556 13.4018L44.8037 15.4859L40.5046 20.2757V20.285ZM36.5046 8.16351C36.3317 7.47659 35.6215 7.3037 35 6.93921L33.4299 9.84108C33.4299 9.84108 34.8457 10.8925 35.5373 10.3551C36.2476 9.84108 36.5887 8.9579 36.5046 8.16351ZM34.0794 39.9673C33.4766 40.0514 33.1355 40.7616 33.3925 41.2757C33.6916 41.7897 33.9953 42.7803 34.8971 42.6074C35.5607 42.5 35.8645 41.9205 35.5841 41.299C35.2383 40.785 34.9626 39.7944 34.0794 39.9673ZM25.8925 7.67286C26.4953 6.98594 26.2383 5.76164 26.1495 4.96725C25.9766 4.25697 25.1822 3.99995 24.6028 4.08406C24.0654 4.16818 23.7196 4.70556 23.6355 5.22425C23.4626 6.10743 23.3551 7.15884 24.0654 7.84575C24.6028 8.21024 25.3551 8.06071 25.8925 7.67286ZM15.4299 41.6215L15.7757 40.0747L14.6168 41.042L15.4345 41.6215H15.4299ZM14.6121 41.0373L15.4299 41.6168L15.7757 40.07L14.6168 41.0373H14.6121ZM26.1495 4.96257C25.9766 4.25229 25.1822 3.99529 24.6028 4.0794C24.0654 4.16351 23.7196 4.7009 23.6355 5.21959C23.4626 6.10277 23.3551 7.15416 24.0654 7.84108C24.6028 8.20556 25.3551 8.05603 25.8925 7.66818C26.4953 6.98127 26.2383 5.75696 26.1495 4.96257ZM36.5046 8.16351C36.3317 7.47659 35.6215 7.3037 35 6.93921L33.4299 9.84108C33.4299 9.84108 34.8457 10.8925 35.5373 10.3551C36.2476 9.84108 36.5887 8.9579 36.5046 8.16351ZM35.5841 41.299C35.2383 40.785 34.9626 39.7944 34.0794 39.9673C33.4766 40.0514 33.1355 40.7616 33.3925 41.2757C33.6916 41.7897 33.9953 42.7803 34.8971 42.6074C35.5607 42.5 35.8645 41.9205 35.5841 41.299ZM40.6308 15.2757L41.4065 16.6729L43.2757 14.7617L40.6308 15.2757ZM40.6308 15.2757L41.4065 16.6729L43.2757 14.7617L40.6308 15.2757ZM36.5046 8.16351C36.3317 7.47659 35.6215 7.3037 35 6.93921L33.4299 9.84108C33.4299 9.84108 34.8457 10.8925 35.5373 10.3551C36.2476 9.84108 36.5887 8.9579 36.5046 8.16351ZM35.5841 41.299C35.2383 40.785 34.9626 39.7944 34.0794 39.9673C33.4766 40.0514 33.1355 40.7616 33.3925 41.2757C33.6916 41.7897 33.9953 42.7803 34.8971 42.6074C35.5607 42.5 35.8645 41.9205 35.5841 41.299ZM26.1495 4.96257C25.9766 4.25229 25.1822 3.99529 24.6028 4.0794C24.0654 4.16351 23.7196 4.7009 23.6355 5.21959C23.4626 6.10277 23.3551 7.15416 24.0654 7.84108C24.6028 8.20556 25.3551 8.05603 25.8925 7.66818C26.4953 6.98127 26.2383 5.75696 26.1495 4.96257ZM14.6121 41.0373L15.4299 41.6168L15.7757 40.07L14.6168 41.0373H14.6121ZM14.6121 41.0373L15.4299 41.6168L15.7757 40.07L14.6168 41.0373H14.6121ZM35.5841 41.299C35.2383 40.785 34.9626 39.7944 34.0794 39.9673C33.4766 40.0514 33.1355 40.7616 33.3925 41.2757C33.6916 41.7897 33.9953 42.7803 34.8971 42.6074C35.5607 42.5 35.8645 41.9205 35.5841 41.299ZM40.6308 15.2757L41.4065 16.6729L43.2757 14.7617L40.6308 15.2757ZM40.6308 15.2757L41.4065 16.6729L43.2757 14.7617L40.6308 15.2757ZM35.5841 41.299C35.2383 40.785 34.9626 39.7944 34.0794 39.9673C33.4766 40.0514 33.1355 40.7616 33.3925 41.2757C33.6916 41.7897 33.9953 42.7803 34.8971 42.6074C35.5607 42.5 35.8645 41.9205 35.5841 41.299ZM14.6121 41.0373L15.4299 41.6168L15.7757 40.07L14.6168 41.0373H14.6121ZM14.6121 41.0373L15.4299 41.6168L15.7757 40.07L14.6168 41.0373H14.6121ZM35.5841 41.299C35.2383 40.785 34.9626 39.7944 34.0794 39.9673C33.4766 40.0514 33.1355 40.7616 33.3925 41.2757C33.6916 41.7897 33.9953 42.7803 34.8971 42.6074C35.5607 42.5 35.8645 41.9205 35.5841 41.299ZM40.6308 15.2757L41.4065 16.6729L43.2757 14.7617L40.6308 15.2757ZM40.6308 15.2757L41.4065 16.6729L43.2757 14.7617L40.6308 15.2757ZM35.5841 41.299C35.2383 40.785 34.9626 39.7944 34.0794 39.9673C33.4766 40.0514 33.1355 40.7616 33.3925 41.2757C33.6916 41.7897 33.9953 42.7803 34.8971 42.6074C35.5607 42.5 35.8645 41.9205 35.5841 41.299ZM14.6121 41.0373L15.4299 41.6168L15.7757 40.07L14.6168 41.0373H14.6121ZM14.6121 41.0373L15.4299 41.6168L15.7757 40.07L14.6168 41.0373H14.6121ZM40.6308 15.2757L41.4065 16.6729L43.2757 14.7617L40.6308 15.2757ZM40.6308 15.2757L41.4065 16.6729L43.2757 14.7617L40.6308 15.2757ZM14.6121 41.0373L15.4299 41.6168L15.7757 40.07L14.6168 41.0373H14.6121ZM14.6121 41.0373L15.4299 41.6168L15.7757 40.07L14.6168 41.0373H14.6121ZM40.6308 15.2757L41.4065 16.6729L43.2757 14.7617L40.6308 15.2757ZM40.6308 15.2757L41.4065 16.6729L43.2757 14.7617L40.6308 15.2757ZM14.6121 41.0373L15.4299 41.6168L15.7757 40.07L14.6168 41.0373H14.6121ZM40.6308 15.2757L41.4065 16.6729L43.2757 14.7617L40.6308 15.2757ZM40.6308 15.2757L41.4065 16.6729L43.2757 14.7617L40.6308 15.2757Z" fill="white"/>
<path d="M32.2523 29.9112C31.8878 30.3598 32.5327 30.8365 32.1682 31.2009C31.8037 31.285 31.2429 31.1776 31.07 30.8131C31.07 30.8131 31.0467 30.3832 31.1541 29.8271C31.285 29.2664 31.757 27.8925 31.757 27.8925C33.3691 22.1355 31.3037 16.6963 27.5654 12.6776C26.1495 11.1308 24.2336 11.6028 22.4953 11.7757C21.9579 11.8645 20.9906 12.1402 21.5046 13.042C21.5046 13.042 22.8364 14.3084 23.2897 14.7804C23.7616 15.2523 24.6448 16.3271 24.6448 16.3271C24.6448 16.3271 24.9439 16.6729 24.8364 16.9953C24.7944 17.1449 24.5794 17.3832 24.2149 17.1682L22.3037 15.0421C22.3037 15.0421 20.6915 12.9159 19.1869 13.0654C18.3504 13.1729 17.2102 13.9252 16.3084 14.7196C15.4252 15.472 14.7803 16.3084 14.5887 16.6729C13.9439 17.8972 15.2336 17.6402 17.2523 18.7149C17.9392 19.0794 18.9953 19.5935 19.0373 20.1308C18.8644 20.9673 18.2616 20.3224 17.6822 20.0233C17.2336 19.785 13.8364 17.271 12.7616 19.6355C12.5233 20.0841 12.2897 20.6448 12.1168 21.1635C11.771 22.3037 11.6869 23.4626 12.1401 23.8037C12.6775 24.1916 13.514 24.1028 14.3084 24.0607C15.0607 23.9953 15.6215 24.0841 16.3925 24.4486C19.0327 25.7149 20.8411 28.4673 20.6261 30.9579C20.5841 31.0654 20.5186 31.0841 20.4766 31.1075C19.6588 31.3224 18.8644 30.6122 18.0934 30.271C16.0513 29.5421 12.8738 30.014 12.743 30.229C12.4626 30.8318 14.1168 31.6448 14.4859 32.4439C14.8504 33.0888 14.9813 33.9906 15.5373 34.5514C15.7943 34.7009 16.7616 34.7243 17.3411 34.5935C17.7476 34.486 18.4579 33.3458 18.8458 33.3271L32.1448 33.3505C32.7055 33.7149 31.8644 34.1869 32.1214 34.5514C33.9485 35 35.7289 33.6262 36.9112 32.1869C35.556 31.0047 34.0514 29.7383 32.2476 29.9112H32.2523ZM27.6121 30.1028C26.4953 30.1028 25.5934 29.2009 25.5934 28.0841C25.5934 26.9673 26.4953 26.042 27.6121 26.042C28.7289 26.042 29.6308 26.9673 29.6308 28.0841C29.6308 29.2009 28.7289 30.1028 27.6121 30.1028Z" fill="white"/>
<path d="M40.6309 15.2756L41.4066 16.6728L43.2758 14.7616L40.6309 15.2756ZM40.6309 15.2756L41.4066 16.6728L43.2758 14.7616L40.6309 15.2756ZM40.6309 15.2756L41.4066 16.6728L43.2758 14.7616L40.6309 15.2756ZM14.6122 41.0373L15.43 41.6167L15.7758 40.07L14.6169 41.0373H14.6122ZM40.6309 15.2756L41.4066 16.6728L43.2758 14.7616L40.6309 15.2756ZM14.6122 41.0373L15.43 41.6167L15.7758 40.07L14.6169 41.0373H14.6122ZM40.6309 15.2756L41.4066 16.6728L43.2758 14.7616L40.6309 15.2756ZM14.6122 41.0373L15.43 41.6167L15.7758 40.07L14.6169 41.0373H14.6122ZM35.5842 41.299C35.2384 40.785 34.9627 39.7943 34.0795 39.9672C33.4767 40.0513 33.1356 40.7616 33.3926 41.2756C33.6917 41.7896 33.9954 42.7803 34.8973 42.6074C35.5608 42.4999 35.8646 41.9205 35.5842 41.299ZM40.6309 15.2756L41.4066 16.6728L43.2758 14.7616L40.6309 15.2756ZM35.5842 41.299C35.2384 40.785 34.9627 39.7943 34.0795 39.9672C33.4767 40.0513 33.1356 40.7616 33.3926 41.2756C33.6917 41.7896 33.9954 42.7803 34.8973 42.6074C35.5608 42.4999 35.8646 41.9205 35.5842 41.299ZM14.6122 41.0373L15.43 41.6167L15.7758 40.07L14.6169 41.0373H14.6122ZM40.6309 15.2756L41.4066 16.6728L43.2758 14.7616L40.6309 15.2756ZM14.6122 41.0373L15.43 41.6167L15.7758 40.07L14.6169 41.0373H14.6122ZM35.5842 41.299C35.2384 40.785 34.9627 39.7943 34.0795 39.9672C33.4767 40.0513 33.1356 40.7616 33.3926 41.2756C33.6917 41.7896 33.9954 42.7803 34.8973 42.6074C35.5608 42.4999 35.8646 41.9205 35.5842 41.299ZM40.6309 15.2756L41.4066 16.6728L43.2758 14.7616L40.6309 15.2756ZM35.5842 41.299C35.2384 40.785 34.9627 39.7943 34.0795 39.9672C33.4767 40.0513 33.1356 40.7616 33.3926 41.2756C33.6917 41.7896 33.9954 42.7803 34.8973 42.6074C35.5608 42.4999 35.8646 41.9205 35.5842 41.299ZM14.6122 41.0373L15.43 41.6167L15.7758 40.07L14.6169 41.0373H14.6122ZM40.6309 15.2756L41.4066 16.6728L43.2758 14.7616L40.6309 15.2756ZM14.6122 41.0373L15.43 41.6167L15.7758 40.07L14.6169 41.0373H14.6122ZM26.1496 4.96254C25.9767 4.25226 25.1823 3.99525 24.6029 4.07937C24.0655 4.16348 23.7197 4.70086 23.6356 5.21955C23.4627 6.10273 23.3552 7.15413 24.0655 7.84104C24.6029 8.20553 25.3552 8.056 25.8926 7.66815C26.4954 6.98123 26.2384 5.75693 26.1496 4.96254ZM35.5842 41.299C35.2384 40.785 34.9627 39.7943 34.0795 39.9672C33.4767 40.0513 33.1356 40.7616 33.3926 41.2756C33.6917 41.7896 33.9954 42.7803 34.8973 42.6074C35.5608 42.4999 35.8646 41.9205 35.5842 41.299ZM40.6309 15.2756L41.4066 16.6728L43.2758 14.7616L40.6309 15.2756ZM35.5842 41.299C35.2384 40.785 34.9627 39.7943 34.0795 39.9672C33.4767 40.0513 33.1356 40.7616 33.3926 41.2756C33.6917 41.7896 33.9954 42.7803 34.8973 42.6074C35.5608 42.4999 35.8646 41.9205 35.5842 41.299ZM14.6122 41.0373L15.43 41.6167L15.7758 40.07L14.6169 41.0373H14.6122ZM26.1496 4.96254C25.9767 4.25226 25.1823 3.99525 24.6029 4.07937C24.0655 4.16348 23.7197 4.70086 23.6356 5.21955C23.4627 6.10273 23.3552 7.15413 24.0655 7.84104C24.6029 8.20553 25.3552 8.056 25.8926 7.66815C26.4954 6.98123 26.2384 5.75693 26.1496 4.96254ZM40.6309 15.2756L41.4066 16.6728L43.2758 14.7616L40.6309 15.2756ZM14.6122 41.0373L15.43 41.6167L15.7758 40.07L14.6169 41.0373H14.6122ZM26.1496 4.96254C25.9767 4.25226 25.1823 3.99525 24.6029 4.07937C24.0655 4.16348 23.7197 4.70086 23.6356 5.21955C23.4627 6.10273 23.3552 7.15413 24.0655 7.84104C24.6029 8.20553 25.3552 8.056 25.8926 7.66815C26.4954 6.98123 26.2384 5.75693 26.1496 4.96254ZM35.5842 41.299C35.2384 40.785 34.9627 39.7943 34.0795 39.9672C33.4767 40.0513 33.1356 40.7616 33.3926 41.2756C33.6917 41.7896 33.9954 42.7803 34.8973 42.6074C35.5608 42.4999 35.8646 41.9205 35.5842 41.299ZM36.5047 8.16347C36.3318 7.47656 35.6216 7.30366 35.0001 6.93918L33.43 9.84104C33.43 9.84104 34.8459 10.8924 35.5374 10.3551C36.2477 9.84104 36.5888 8.95787 36.5047 8.16347ZM40.6309 15.2756L41.4066 16.6728L43.2758 14.7616L40.6309 15.2756ZM35.5842 41.299C35.2384 40.785 34.9627 39.7943 34.0795 39.9672C33.4767 40.0513 33.1356 40.7616 33.3926 41.2756C33.6917 41.7896 33.9954 42.7803 34.8973 42.6074C35.5608 42.4999 35.8646 41.9205 35.5842 41.299ZM14.6122 41.0373L15.43 41.6167L15.7758 40.07L14.6169 41.0373H14.6122ZM26.1496 4.96254C25.9767 4.25226 25.1823 3.99525 24.6029 4.07937C24.0655 4.16348 23.7197 4.70086 23.6356 5.21955C23.4627 6.10273 23.3552 7.15413 24.0655 7.84104C24.6029 8.20553 25.3552 8.056 25.8926 7.66815C26.4954 6.98123 26.2384 5.75693 26.1496 4.96254ZM36.5047 8.16347C36.3318 7.47656 35.6216 7.30366 35.0001 6.93918L33.43 9.84104C33.43 9.84104 34.8459 10.8924 35.5374 10.3551C36.2477 9.84104 36.5888 8.95787 36.5047 8.16347ZM41.4066 16.6728L43.2758 14.7616L40.6309 15.2756L41.4066 16.6728ZM25.0094 1.52795C12.0515 1.52795 1.52344 12.0326 1.52344 25.014C1.52344 37.9953 12.0515 48.4766 25.0094 48.4766C37.9674 48.4766 48.4954 37.9719 48.4954 25.014C48.4954 12.056 37.9674 1.52795 25.0094 1.52795ZM34.1216 5.11207C35.5375 5.88777 37.2804 6.33638 38.1589 7.90647C38.5234 8.95787 38.1589 9.92515 37.6449 10.785C37.215 11.5794 36.0141 12.2242 35.3692 12.1167C33.9533 11.8597 32.7477 10.9766 31.3505 10.1167L34.1216 5.11207ZM21.701 4.68216C22.0468 3.36908 23.5468 3.02795 24.7758 2.94384C25.8505 2.94384 26.944 3.11675 27.7197 3.88778C28.3412 4.77095 28.43 5.99524 28.2571 7.04664C28.0655 8.01393 27.2898 8.61675 26.4113 8.89712C25.0375 9.07002 23.3599 9.41114 22.1356 8.10272C21.4487 7.13543 21.4487 5.91114 21.7057 4.68684L21.701 4.68216ZM14.5702 5.78029L16.159 4.93918C16.3319 5.82236 16.0515 7.06534 16.0281 8.03263C17.0608 8.67749 18.3458 9.10739 19.3786 9.83636L17.6169 10.6728L14.5234 9.06068L14.5655 5.77562L14.5702 5.78029ZM12.916 6.813L16.1402 11.542L14.7851 12.5513L11.5842 7.75693L12.916 6.813ZM5.00474 13.8364L5.69165 13.7289L5.36922 13.1681C5.51876 12.9532 5.62623 12.7196 5.77576 12.5046L6.16362 13.2149L5.51876 14.3738C5.32717 14.3971 4.98138 14.4392 4.76643 14.4579C4.80849 14.3083 5.00474 13.8364 5.00474 13.8364ZM9.90662 18.5653L8.93932 17.9625C9.6496 17.341 10.6823 16.3924 10.2477 15.4252C8.89726 14.7616 8.67764 17.2523 7.28511 17.2523C6.66362 17.2523 5.8225 16.8223 5.60754 16.1121C5.60754 16.1121 5.52344 15.6822 5.52344 15.4018C5.50007 14.9065 5.71502 14.3691 5.95333 13.9205C6.21034 13.4906 6.49073 13.1448 6.49073 13.1448L7.28511 12.2616L8.06082 12.8831C7.5468 13.4859 6.92063 14.0233 6.83652 14.7943C6.83652 15.0513 7.07483 15.3738 7.3739 15.3317C8.23371 14.6214 9.11689 13.1401 10.3412 13.4859C10.9627 13.4859 11.5655 14.1074 11.7384 14.6261C12.1029 16.1962 10.9627 17.528 9.91128 18.556L9.90662 18.5653ZM16.0935 44.2195L14.7804 43.3831L15.0608 42.4579L13.8786 41.5747L13.0188 42.1541C12.673 41.8551 12.3505 41.5513 12.0281 41.2523L15.444 38.7149L17.2057 39.7663L16.0888 44.2149L16.0935 44.2195ZM22.5842 45.4859C21.9814 45.9345 21.0141 45.6775 20.3926 45.4859C18.9954 44.9906 19.2337 43.8317 19.2337 43.8317L19.8786 41.1261L21.2104 41.4065L20.6963 44.2429C20.673 44.6915 21.5141 44.9953 21.8131 44.5233C21.9206 44.2009 22.201 42.6121 22.3739 41.6448C22.8225 41.7523 23.3412 41.8597 23.6823 41.9485C23.5748 42.6775 23.4674 44.7195 22.5889 45.4952L22.5842 45.4859ZM29.3319 45.5093L27.958 45.7896L27.3365 42.6541L26.2618 42.9111L26.0468 41.9672L29.6122 41.1728L29.8692 42.1167L28.7103 42.3971L29.3319 45.514V45.5093ZM36.444 42.584C35.7571 43.2943 34.9627 43.7242 33.9954 43.6354C33.1356 43.5513 32.4253 42.6682 32.1683 41.9812C31.9954 41.271 31.9954 40.5186 32.5094 40.0467C33.2197 39.4205 33.9066 39.0139 34.8739 38.9065C35.7524 38.9065 36.5515 39.8737 36.8926 40.6494C37.215 41.3784 36.9767 42.1541 36.444 42.584ZM25.0094 39.6635C16.9066 39.6635 10.3365 33.0887 10.3365 25.0093C10.3365 16.9298 16.9113 10.3317 25.0094 10.3317C33.1076 10.3317 39.6636 16.9065 39.6636 25.0093C39.6636 33.1121 33.1122 39.6635 25.0094 39.6635ZM40.5047 20.285L39.687 18.542L40.7197 17.5513L39.5608 15.5513L38.2524 15.8504L37.2617 14.4532L43.5562 13.4018L44.8038 15.4859L40.5047 20.2756V20.285ZM36.5047 8.16347C36.3318 7.47656 35.6216 7.30366 35.0001 6.93918L33.43 9.84104C33.43 9.84104 34.8459 10.8924 35.5374 10.3551C36.2477 9.84104 36.5888 8.95787 36.5047 8.16347ZM34.0795 39.9672C33.4767 40.0513 33.1356 40.7616 33.3926 41.2756C33.6917 41.7896 33.9954 42.7803 34.8973 42.6074C35.5608 42.4999 35.8646 41.9205 35.5842 41.299C35.2384 40.785 34.9627 39.7943 34.0795 39.9672ZM25.8926 7.67283C26.4954 6.98591 26.2384 5.76161 26.1496 4.96721C25.9767 4.25693 25.1823 3.99992 24.6029 4.08403C24.0655 4.16814 23.7197 4.70553 23.6356 5.22422C23.4627 6.1074 23.3552 7.1588 24.0655 7.84572C24.6029 8.21021 25.3552 8.06068 25.8926 7.67283ZM15.43 41.6214L15.7758 40.0747L14.6169 41.042L15.4347 41.6214H15.43ZM40.6309 15.2756L41.4066 16.6728L43.2758 14.7616L40.6309 15.2756ZM36.5047 8.16347C36.3318 7.47656 35.6216 7.30366 35.0001 6.93918L33.43 9.84104C33.43 9.84104 34.8459 10.8924 35.5374 10.3551C36.2477 9.84104 36.5888 8.95787 36.5047 8.16347ZM26.1496 4.96254C25.9767 4.25226 25.1823 3.99525 24.6029 4.07937C24.0655 4.16348 23.7197 4.70086 23.6356 5.21955C23.4627 6.10273 23.3552 7.15413 24.0655 7.84104C24.6029 8.20553 25.3552 8.056 25.8926 7.66815C26.4954 6.98123 26.2384 5.75693 26.1496 4.96254ZM14.6122 41.0373L15.43 41.6167L15.7758 40.07L14.6169 41.0373H14.6122ZM35.5842 41.299C35.2384 40.785 34.9627 39.7943 34.0795 39.9672C33.4767 40.0513 33.1356 40.7616 33.3926 41.2756C33.6917 41.7896 33.9954 42.7803 34.8973 42.6074C35.5608 42.4999 35.8646 41.9205 35.5842 41.299ZM40.6309 15.2756L41.4066 16.6728L43.2758 14.7616L40.6309 15.2756ZM36.5047 8.16347C36.3318 7.47656 35.6216 7.30366 35.0001 6.93918L33.43 9.84104C33.43 9.84104 34.8459 10.8924 35.5374 10.3551C36.2477 9.84104 36.5888 8.95787 36.5047 8.16347ZM35.5842 41.299C35.2384 40.785 34.9627 39.7943 34.0795 39.9672C33.4767 40.0513 33.1356 40.7616 33.3926 41.2756C33.6917 41.7896 33.9954 42.7803 34.8973 42.6074C35.5608 42.4999 35.8646 41.9205 35.5842 41.299ZM26.1496 4.96254C25.9767 4.25226 25.1823 3.99525 24.6029 4.07937C24.0655 4.16348 23.7197 4.70086 23.6356 5.21955C23.4627 6.10273 23.3552 7.15413 24.0655 7.84104C24.6029 8.20553 25.3552 8.056 25.8926 7.66815C26.4954 6.98123 26.2384 5.75693 26.1496 4.96254ZM14.6122 41.0373L15.43 41.6167L15.7758 40.07L14.6169 41.0373H14.6122ZM40.6309 15.2756L41.4066 16.6728L43.2758 14.7616L40.6309 15.2756ZM14.6122 41.0373L15.43 41.6167L15.7758 40.07L14.6169 41.0373H14.6122ZM35.5842 41.299C35.2384 40.785 34.9627 39.7943 34.0795 39.9672C33.4767 40.0513 33.1356 40.7616 33.3926 41.2756C33.6917 41.7896 33.9954 42.7803 34.8973 42.6074C35.5608 42.4999 35.8646 41.9205 35.5842 41.299ZM40.6309 15.2756L41.4066 16.6728L43.2758 14.7616L40.6309 15.2756ZM35.5842 41.299C35.2384 40.785 34.9627 39.7943 34.0795 39.9672C33.4767 40.0513 33.1356 40.7616 33.3926 41.2756C33.6917 41.7896 33.9954 42.7803 34.8973 42.6074C35.5608 42.4999 35.8646 41.9205 35.5842 41.299ZM14.6122 41.0373L15.43 41.6167L15.7758 40.07L14.6169 41.0373H14.6122ZM40.6309 15.2756L41.4066 16.6728L43.2758 14.7616L40.6309 15.2756ZM14.6122 41.0373L15.43 41.6167L15.7758 40.07L14.6169 41.0373H14.6122ZM35.5842 41.299C35.2384 40.785 34.9627 39.7943 34.0795 39.9672C33.4767 40.0513 33.1356 40.7616 33.3926 41.2756C33.6917 41.7896 33.9954 42.7803 34.8973 42.6074C35.5608 42.4999 35.8646 41.9205 35.5842 41.299ZM40.6309 15.2756L41.4066 16.6728L43.2758 14.7616L40.6309 15.2756ZM35.5842 41.299C35.2384 40.785 34.9627 39.7943 34.0795 39.9672C33.4767 40.0513 33.1356 40.7616 33.3926 41.2756C33.6917 41.7896 33.9954 42.7803 34.8973 42.6074C35.5608 42.4999 35.8646 41.9205 35.5842 41.299ZM14.6122 41.0373L15.43 41.6167L15.7758 40.07L14.6169 41.0373H14.6122ZM40.6309 15.2756L41.4066 16.6728L43.2758 14.7616L40.6309 15.2756ZM14.6122 41.0373L15.43 41.6167L15.7758 40.07L14.6169 41.0373H14.6122ZM40.6309 15.2756L41.4066 16.6728L43.2758 14.7616L40.6309 15.2756ZM14.6122 41.0373L15.43 41.6167L15.7758 40.07L14.6169 41.0373H14.6122ZM40.6309 15.2756L41.4066 16.6728L43.2758 14.7616L40.6309 15.2756ZM14.6122 41.0373L15.43 41.6167L15.7758 40.07L14.6169 41.0373H14.6122ZM40.6309 15.2756L41.4066 16.6728L43.2758 14.7616L40.6309 15.2756ZM14.6122 41.0373L15.43 41.6167L15.7758 40.07L14.6169 41.0373H14.6122ZM40.6309 15.2756L41.4066 16.6728L43.2758 14.7616L40.6309 15.2756ZM40.6309 15.2756L41.4066 16.6728L43.2758 14.7616L40.6309 15.2756Z" fill="white"/>
<path d="M32.2523 29.9112C31.8878 30.3598 32.5327 30.8365 32.1682 31.2009C31.8037 31.285 31.2429 31.1776 31.07 30.8131C31.07 30.8131 31.0467 30.3832 31.1541 29.8271C31.285 29.2664 31.757 27.8925 31.757 27.8925C33.3691 22.1355 31.3037 16.6963 27.5654 12.6776C26.1495 11.1308 24.2336 11.6028 22.4953 11.7757C21.9579 11.8645 20.9906 12.1402 21.5046 13.042C21.5046 13.042 22.8364 14.3084 23.2897 14.7804C23.7616 15.2523 24.6448 16.3271 24.6448 16.3271C24.6448 16.3271 24.9439 16.6729 24.8364 16.9953C24.7944 17.1449 24.5794 17.3832 24.2149 17.1682L22.3037 15.0421C22.3037 15.0421 20.6915 12.9159 19.1869 13.0654C18.3504 13.1729 17.2102 13.9252 16.3084 14.7196C15.4252 15.472 14.7803 16.3084 14.5887 16.6729C13.9439 17.8972 15.2336 17.6402 17.2523 18.7149C17.9392 19.0794 18.9953 19.5935 19.0373 20.1308C18.8644 20.9673 18.2616 20.3224 17.6822 20.0233C17.2336 19.785 13.8364 17.271 12.7616 19.6355C12.5233 20.0841 12.2897 20.6448 12.1168 21.1635C11.771 22.3037 11.6869 23.4626 12.1401 23.8037C12.6775 24.1916 13.514 24.1028 14.3084 24.0607C15.0607 23.9953 15.6215 24.0841 16.3925 24.4486C19.0327 25.7149 20.8411 28.4673 20.6261 30.9579C20.5841 31.0654 20.5186 31.0841 20.4766 31.1075C19.6588 31.3224 18.8644 30.6122 18.0934 30.271C16.0513 29.5421 12.8738 30.014 12.743 30.229C12.4626 30.8318 14.1168 31.6448 14.4859 32.4439C14.8504 33.0888 14.9813 33.9906 15.5373 34.5514C15.7943 34.7009 16.7616 34.7243 17.3411 34.5935C17.7476 34.486 18.4579 33.3458 18.8458 33.3271L32.1448 33.3505C32.7055 33.7149 31.8644 34.1869 32.1214 34.5514C33.9485 35 35.7289 33.6262 36.9112 32.1869C35.556 31.0047 34.0514 29.7383 32.2476 29.9112H32.2523ZM27.6121 30.1028C26.4953 30.1028 25.5934 29.2009 25.5934 28.0841C25.5934 26.9673 26.4953 26.042 27.6121 26.042C28.7289 26.042 29.6308 26.9673 29.6308 28.0841C29.6308 29.2009 28.7289 30.1028 27.6121 30.1028Z" fill="white"/>
<path d="M40.6309 15.2756L41.4066 16.6728L43.2758 14.7616L40.6309 15.2756ZM40.6309 15.2756L41.4066 16.6728L43.2758 14.7616L40.6309 15.2756ZM40.6309 15.2756L41.4066 16.6728L43.2758 14.7616L40.6309 15.2756ZM14.6122 41.0373L15.43 41.6167L15.7758 40.07L14.6169 41.0373H14.6122ZM40.6309 15.2756L41.4066 16.6728L43.2758 14.7616L40.6309 15.2756ZM14.6122 41.0373L15.43 41.6167L15.7758 40.07L14.6169 41.0373H14.6122ZM40.6309 15.2756L41.4066 16.6728L43.2758 14.7616L40.6309 15.2756ZM14.6122 41.0373L15.43 41.6167L15.7758 40.07L14.6169 41.0373H14.6122ZM35.5842 41.299C35.2384 40.785 34.9627 39.7943 34.0795 39.9672C33.4767 40.0513 33.1356 40.7616 33.3926 41.2756C33.6917 41.7896 33.9954 42.7803 34.8973 42.6074C35.5608 42.4999 35.8646 41.9205 35.5842 41.299ZM40.6309 15.2756L41.4066 16.6728L43.2758 14.7616L40.6309 15.2756ZM35.5842 41.299C35.2384 40.785 34.9627 39.7943 34.0795 39.9672C33.4767 40.0513 33.1356 40.7616 33.3926 41.2756C33.6917 41.7896 33.9954 42.7803 34.8973 42.6074C35.5608 42.4999 35.8646 41.9205 35.5842 41.299ZM14.6122 41.0373L15.43 41.6167L15.7758 40.07L14.6169 41.0373H14.6122ZM40.6309 15.2756L41.4066 16.6728L43.2758 14.7616L40.6309 15.2756ZM14.6122 41.0373L15.43 41.6167L15.7758 40.07L14.6169 41.0373H14.6122ZM35.5842 41.299C35.2384 40.785 34.9627 39.7943 34.0795 39.9672C33.4767 40.0513 33.1356 40.7616 33.3926 41.2756C33.6917 41.7896 33.9954 42.7803 34.8973 42.6074C35.5608 42.4999 35.8646 41.9205 35.5842 41.299ZM40.6309 15.2756L41.4066 16.6728L43.2758 14.7616L40.6309 15.2756ZM35.5842 41.299C35.2384 40.785 34.9627 39.7943 34.0795 39.9672C33.4767 40.0513 33.1356 40.7616 33.3926 41.2756C33.6917 41.7896 33.9954 42.7803 34.8973 42.6074C35.5608 42.4999 35.8646 41.9205 35.5842 41.299ZM14.6122 41.0373L15.43 41.6167L15.7758 40.07L14.6169 41.0373H14.6122ZM40.6309 15.2756L41.4066 16.6728L43.2758 14.7616L40.6309 15.2756ZM14.6122 41.0373L15.43 41.6167L15.7758 40.07L14.6169 41.0373H14.6122ZM26.1496 4.96254C25.9767 4.25226 25.1823 3.99525 24.6029 4.07937C24.0655 4.16348 23.7197 4.70086 23.6356 5.21955C23.4627 6.10273 23.3552 7.15413 24.0655 7.84104C24.6029 8.20553 25.3552 8.056 25.8926 7.66815C26.4954 6.98123 26.2384 5.75693 26.1496 4.96254ZM35.5842 41.299C35.2384 40.785 34.9627 39.7943 34.0795 39.9672C33.4767 40.0513 33.1356 40.7616 33.3926 41.2756C33.6917 41.7896 33.9954 42.7803 34.8973 42.6074C35.5608 42.4999 35.8646 41.9205 35.5842 41.299ZM40.6309 15.2756L41.4066 16.6728L43.2758 14.7616L40.6309 15.2756ZM35.5842 41.299C35.2384 40.785 34.9627 39.7943 34.0795 39.9672C33.4767 40.0513 33.1356 40.7616 33.3926 41.2756C33.6917 41.7896 33.9954 42.7803 34.8973 42.6074C35.5608 42.4999 35.8646 41.9205 35.5842 41.299ZM14.6122 41.0373L15.43 41.6167L15.7758 40.07L14.6169 41.0373H14.6122ZM26.1496 4.96254C25.9767 4.25226 25.1823 3.99525 24.6029 4.07937C24.0655 4.16348 23.7197 4.70086 23.6356 5.21955C23.4627 6.10273 23.3552 7.15413 24.0655 7.84104C24.6029 8.20553 25.3552 8.056 25.8926 7.66815C26.4954 6.98123 26.2384 5.75693 26.1496 4.96254ZM40.6309 15.2756L41.4066 16.6728L43.2758 14.7616L40.6309 15.2756ZM14.6122 41.0373L15.43 41.6167L15.7758 40.07L14.6169 41.0373H14.6122ZM26.1496 4.96254C25.9767 4.25226 25.1823 3.99525 24.6029 4.07937C24.0655 4.16348 23.7197 4.70086 23.6356 5.21955C23.4627 6.10273 23.3552 7.15413 24.0655 7.84104C24.6029 8.20553 25.3552 8.056 25.8926 7.66815C26.4954 6.98123 26.2384 5.75693 26.1496 4.96254ZM35.5842 41.299C35.2384 40.785 34.9627 39.7943 34.0795 39.9672C33.4767 40.0513 33.1356 40.7616 33.3926 41.2756C33.6917 41.7896 33.9954 42.7803 34.8973 42.6074C35.5608 42.4999 35.8646 41.9205 35.5842 41.299ZM36.5047 8.16347C36.3318 7.47656 35.6216 7.30366 35.0001 6.93918L33.43 9.84104C33.43 9.84104 34.8459 10.8924 35.5374 10.3551C36.2477 9.84104 36.5888 8.95787 36.5047 8.16347ZM40.6309 15.2756L41.4066 16.6728L43.2758 14.7616L40.6309 15.2756ZM35.5842 41.299C35.2384 40.785 34.9627 39.7943 34.0795 39.9672C33.4767 40.0513 33.1356 40.7616 33.3926 41.2756C33.6917 41.7896 33.9954 42.7803 34.8973 42.6074C35.5608 42.4999 35.8646 41.9205 35.5842 41.299ZM14.6122 41.0373L15.43 41.6167L15.7758 40.07L14.6169 41.0373H14.6122ZM26.1496 4.96254C25.9767 4.25226 25.1823 3.99525 24.6029 4.07937C24.0655 4.16348 23.7197 4.70086 23.6356 5.21955C23.4627 6.10273 23.3552 7.15413 24.0655 7.84104C24.6029 8.20553 25.3552 8.056 25.8926 7.66815C26.4954 6.98123 26.2384 5.75693 26.1496 4.96254ZM36.5047 8.16347C36.3318 7.47656 35.6216 7.30366 35.0001 6.93918L33.43 9.84104C33.43 9.84104 34.8459 10.8924 35.5374 10.3551C36.2477 9.84104 36.5888 8.95787 36.5047 8.16347ZM41.4066 16.6728L43.2758 14.7616L40.6309 15.2756L41.4066 16.6728ZM25.0094 1.52795C12.0515 1.52795 1.52344 12.0326 1.52344 25.014C1.52344 37.9953 12.0515 48.4766 25.0094 48.4766C37.9674 48.4766 48.4954 37.9719 48.4954 25.014C48.4954 12.056 37.9674 1.52795 25.0094 1.52795ZM34.1216 5.11207C35.5375 5.88777 37.2804 6.33638 38.1589 7.90647C38.5234 8.95787 38.1589 9.92515 37.6449 10.785C37.215 11.5794 36.0141 12.2242 35.3692 12.1167C33.9533 11.8597 32.7477 10.9766 31.3505 10.1167L34.1216 5.11207ZM21.701 4.68216C22.0468 3.36908 23.5468 3.02795 24.7758 2.94384C25.8505 2.94384 26.944 3.11675 27.7197 3.88778C28.3412 4.77095 28.43 5.99524 28.2571 7.04664C28.0655 8.01393 27.2898 8.61675 26.4113 8.89712C25.0375 9.07002 23.3599 9.41114 22.1356 8.10272C21.4487 7.13543 21.4487 5.91114 21.7057 4.68684L21.701 4.68216ZM14.5702 5.78029L16.159 4.93918C16.3319 5.82236 16.0515 7.06534 16.0281 8.03263C17.0608 8.67749 18.3458 9.10739 19.3786 9.83636L17.6169 10.6728L14.5234 9.06068L14.5655 5.77562L14.5702 5.78029ZM12.916 6.813L16.1402 11.542L14.7851 12.5513L11.5842 7.75693L12.916 6.813ZM5.00474 13.8364L5.69165 13.7289L5.36922 13.1681C5.51876 12.9532 5.62623 12.7196 5.77576 12.5046L6.16362 13.2149L5.51876 14.3738C5.32717 14.3971 4.98138 14.4392 4.76643 14.4579C4.80849 14.3083 5.00474 13.8364 5.00474 13.8364ZM9.90662 18.5653L8.93932 17.9625C9.6496 17.341 10.6823 16.3924 10.2477 15.4252C8.89726 14.7616 8.67764 17.2523 7.28511 17.2523C6.66362 17.2523 5.8225 16.8223 5.60754 16.1121C5.60754 16.1121 5.52344 15.6822 5.52344 15.4018C5.50007 14.9065 5.71502 14.3691 5.95333 13.9205C6.21034 13.4906 6.49073 13.1448 6.49073 13.1448L7.28511 12.2616L8.06082 12.8831C7.5468 13.4859 6.92063 14.0233 6.83652 14.7943C6.83652 15.0513 7.07483 15.3738 7.3739 15.3317C8.23371 14.6214 9.11689 13.1401 10.3412 13.4859C10.9627 13.4859 11.5655 14.1074 11.7384 14.6261C12.1029 16.1962 10.9627 17.528 9.91128 18.556L9.90662 18.5653ZM16.0935 44.2195L14.7804 43.3831L15.0608 42.4579L13.8786 41.5747L13.0188 42.1541C12.673 41.8551 12.3505 41.5513 12.0281 41.2523L15.444 38.7149L17.2057 39.7663L16.0888 44.2149L16.0935 44.2195ZM22.5842 45.4859C21.9814 45.9345 21.0141 45.6775 20.3926 45.4859C18.9954 44.9906 19.2337 43.8317 19.2337 43.8317L19.8786 41.1261L21.2104 41.4065L20.6963 44.2429C20.673 44.6915 21.5141 44.9953 21.8131 44.5233C21.9206 44.2009 22.201 42.6121 22.3739 41.6448C22.8225 41.7523 23.3412 41.8597 23.6823 41.9485C23.5748 42.6775 23.4674 44.7195 22.5889 45.4952L22.5842 45.4859ZM29.3319 45.5093L27.958 45.7896L27.3365 42.6541L26.2618 42.9111L26.0468 41.9672L29.6122 41.1728L29.8692 42.1167L28.7103 42.3971L29.3319 45.514V45.5093ZM36.444 42.584C35.7571 43.2943 34.9627 43.7242 33.9954 43.6354C33.1356 43.5513 32.4253 42.6682 32.1683 41.9812C31.9954 41.271 31.9954 40.5186 32.5094 40.0467C33.2197 39.4205 33.9066 39.0139 34.8739 38.9065C35.7524 38.9065 36.5515 39.8737 36.8926 40.6494C37.215 41.3784 36.9767 42.1541 36.444 42.584ZM25.0094 39.6635C16.9066 39.6635 10.3365 33.0887 10.3365 25.0093C10.3365 16.9298 16.9113 10.3317 25.0094 10.3317C33.1076 10.3317 39.6636 16.9065 39.6636 25.0093C39.6636 33.1121 33.1122 39.6635 25.0094 39.6635ZM40.5047 20.285L39.687 18.542L40.7197 17.5513L39.5608 15.5513L38.2524 15.8504L37.2617 14.4532L43.5562 13.4018L44.8038 15.4859L40.5047 20.2756V20.285ZM36.5047 8.16347C36.3318 7.47656 35.6216 7.30366 35.0001 6.93918L33.43 9.84104C33.43 9.84104 34.8459 10.8924 35.5374 10.3551C36.2477 9.84104 36.5888 8.95787 36.5047 8.16347ZM34.0795 39.9672C33.4767 40.0513 33.1356 40.7616 33.3926 41.2756C33.6917 41.7896 33.9954 42.7803 34.8973 42.6074C35.5608 42.4999 35.8646 41.9205 35.5842 41.299C35.2384 40.785 34.9627 39.7943 34.0795 39.9672ZM25.8926 7.67283C26.4954 6.98591 26.2384 5.76161 26.1496 4.96721C25.9767 4.25693 25.1823 3.99992 24.6029 4.08403C24.0655 4.16814 23.7197 4.70553 23.6356 5.22422C23.4627 6.1074 23.3552 7.1588 24.0655 7.84572C24.6029 8.21021 25.3552 8.06068 25.8926 7.67283ZM15.43 41.6214L15.7758 40.0747L14.6169 41.042L15.4347 41.6214H15.43ZM40.6309 15.2756L41.4066 16.6728L43.2758 14.7616L40.6309 15.2756ZM36.5047 8.16347C36.3318 7.47656 35.6216 7.30366 35.0001 6.93918L33.43 9.84104C33.43 9.84104 34.8459 10.8924 35.5374 10.3551C36.2477 9.84104 36.5888 8.95787 36.5047 8.16347ZM26.1496 4.96254C25.9767 4.25226 25.1823 3.99525 24.6029 4.07937C24.0655 4.16348 23.7197 4.70086 23.6356 5.21955C23.4627 6.10273 23.3552 7.15413 24.0655 7.84104C24.6029 8.20553 25.3552 8.056 25.8926 7.66815C26.4954 6.98123 26.2384 5.75693 26.1496 4.96254ZM14.6122 41.0373L15.43 41.6167L15.7758 40.07L14.6169 41.0373H14.6122ZM35.5842 41.299C35.2384 40.785 34.9627 39.7943 34.0795 39.9672C33.4767 40.0513 33.1356 40.7616 33.3926 41.2756C33.6917 41.7896 33.9954 42.7803 34.8973 42.6074C35.5608 42.4999 35.8646 41.9205 35.5842 41.299ZM40.6309 15.2756L41.4066 16.6728L43.2758 14.7616L40.6309 15.2756ZM36.5047 8.16347C36.3318 7.47656 35.6216 7.30366 35.0001 6.93918L33.43 9.84104C33.43 9.84104 34.8459 10.8924 35.5374 10.3551C36.2477 9.84104 36.5888 8.95787 36.5047 8.16347ZM35.5842 41.299C35.2384 40.785 34.9627 39.7943 34.0795 39.9672C33.4767 40.0513 33.1356 40.7616 33.3926 41.2756C33.6917 41.7896 33.9954 42.7803 34.8973 42.6074C35.5608 42.4999 35.8646 41.9205 35.5842 41.299ZM26.1496 4.96254C25.9767 4.25226 25.1823 3.99525 24.6029 4.07937C24.0655 4.16348 23.7197 4.70086 23.6356 5.21955C23.4627 6.10273 23.3552 7.15413 24.0655 7.84104C24.6029 8.20553 25.3552 8.056 25.8926 7.66815C26.4954 6.98123 26.2384 5.75693 26.1496 4.96254ZM14.6122 41.0373L15.43 41.6167L15.7758 40.07L14.6169 41.0373H14.6122ZM40.6309 15.2756L41.4066 16.6728L43.2758 14.7616L40.6309 15.2756ZM14.6122 41.0373L15.43 41.6167L15.7758 40.07L14.6169 41.0373H14.6122ZM35.5842 41.299C35.2384 40.785 34.9627 39.7943 34.0795 39.9672C33.4767 40.0513 33.1356 40.7616 33.3926 41.2756C33.6917 41.7896 33.9954 42.7803 34.8973 42.6074C35.5608 42.4999 35.8646 41.9205 35.5842 41.299ZM40.6309 15.2756L41.4066 16.6728L43.2758 14.7616L40.6309 15.2756ZM35.5842 41.299C35.2384 40.785 34.9627 39.7943 34.0795 39.9672C33.4767 40.0513 33.1356 40.7616 33.3926 41.2756C33.6917 41.7896 33.9954 42.7803 34.8973 42.6074C35.5608 42.4999 35.8646 41.9205 35.5842 41.299ZM14.6122 41.0373L15.43 41.6167L15.7758 40.07L14.6169 41.0373H14.6122ZM40.6309 15.2756L41.4066 16.6728L43.2758 14.7616L40.6309 15.2756ZM14.6122 41.0373L15.43 41.6167L15.7758 40.07L14.6169 41.0373H14.6122ZM35.5842 41.299C35.2384 40.785 34.9627 39.7943 34.0795 39.9672C33.4767 40.0513 33.1356 40.7616 33.3926 41.2756C33.6917 41.7896 33.9954 42.7803 34.8973 42.6074C35.5608 42.4999 35.8646 41.9205 35.5842 41.299ZM40.6309 15.2756L41.4066 16.6728L43.2758 14.7616L40.6309 15.2756ZM35.5842 41.299C35.2384 40.785 34.9627 39.7943 34.0795 39.9672C33.4767 40.0513 33.1356 40.7616 33.3926 41.2756C33.6917 41.7896 33.9954 42.7803 34.8973 42.6074C35.5608 42.4999 35.8646 41.9205 35.5842 41.299ZM14.6122 41.0373L15.43 41.6167L15.7758 40.07L14.6169 41.0373H14.6122ZM40.6309 15.2756L41.4066 16.6728L43.2758 14.7616L40.6309 15.2756ZM14.6122 41.0373L15.43 41.6167L15.7758 40.07L14.6169 41.0373H14.6122ZM40.6309 15.2756L41.4066 16.6728L43.2758 14.7616L40.6309 15.2756ZM14.6122 41.0373L15.43 41.6167L15.7758 40.07L14.6169 41.0373H14.6122ZM40.6309 15.2756L41.4066 16.6728L43.2758 14.7616L40.6309 15.2756ZM14.6122 41.0373L15.43 41.6167L15.7758 40.07L14.6169 41.0373H14.6122ZM40.6309 15.2756L41.4066 16.6728L43.2758 14.7616L40.6309 15.2756ZM14.6122 41.0373L15.43 41.6167L15.7758 40.07L14.6169 41.0373H14.6122ZM40.6309 15.2756L41.4066 16.6728L43.2758 14.7616L40.6309 15.2756ZM40.6309 15.2756L41.4066 16.6728L43.2758 14.7616L40.6309 15.2756Z" fill="white"/>
<path d="M32.2523 29.9112C31.8878 30.3598 32.5327 30.8365 32.1682 31.2009C31.8037 31.285 31.2429 31.1776 31.07 30.8131C31.07 30.8131 31.0467 30.3832 31.1541 29.8271C31.285 29.2664 31.757 27.8925 31.757 27.8925C33.3691 22.1355 31.3037 16.6963 27.5654 12.6776C26.1495 11.1308 24.2336 11.6028 22.4953 11.7757C21.9579 11.8645 20.9906 12.1402 21.5046 13.042C21.5046 13.042 22.8364 14.3084 23.2897 14.7804C23.7616 15.2523 24.6448 16.3271 24.6448 16.3271C24.6448 16.3271 24.9439 16.6729 24.8364 16.9953C24.7944 17.1449 24.5794 17.3832 24.2149 17.1682L22.3037 15.0421C22.3037 15.0421 20.6915 12.9159 19.1869 13.0654C18.3504 13.1729 17.2102 13.9252 16.3084 14.7196C15.4252 15.472 14.7803 16.3084 14.5887 16.6729C13.9439 17.8972 15.2336 17.6402 17.2523 18.7149C17.9392 19.0794 18.9953 19.5935 19.0373 20.1308C18.8644 20.9673 18.2616 20.3224 17.6822 20.0233C17.2336 19.785 13.8364 17.271 12.7616 19.6355C12.5233 20.0841 12.2897 20.6448 12.1168 21.1635C11.771 22.3037 11.6869 23.4626 12.1401 23.8037C12.6775 24.1916 13.514 24.1028 14.3084 24.0607C15.0607 23.9953 15.6215 24.0841 16.3925 24.4486C19.0327 25.715 20.8411 28.4673 20.6261 30.9579C20.5841 31.0654 20.5186 31.0841 20.4766 31.1075C19.6588 31.3224 18.8644 30.6122 18.0934 30.271C16.0513 29.5421 12.8738 30.014 12.743 30.229C12.4626 30.8318 14.1168 31.6449 14.4859 32.4439C14.8504 33.0888 14.9813 33.9906 15.5373 34.5514C15.7943 34.7009 16.7616 34.7243 17.3411 34.5935C17.7476 34.486 18.4579 33.3458 18.8458 33.3271L32.1448 33.3505C32.7055 33.7149 31.8644 34.1869 32.1214 34.5514C33.9485 35 35.7289 33.6262 36.9112 32.1869C35.556 31.0047 34.0514 29.7383 32.2476 29.9112H32.2523ZM27.6121 30.1028C26.4953 30.1028 25.5934 29.2009 25.5934 28.0841C25.5934 26.9673 26.4953 26.042 27.6121 26.042C28.7289 26.042 29.6308 26.9673 29.6308 28.0841C29.6308 29.2009 28.7289 30.1028 27.6121 30.1028ZM26.1495 4.96261C25.9766 4.25233 25.1822 3.99533 24.6028 4.07944C24.0654 4.16355 23.7196 4.70093 23.6355 5.21963C23.4626 6.1028 23.3551 7.1542 24.0654 7.84111C24.6028 8.2056 25.3551 8.05607 25.8925 7.66822C26.4953 6.9813 26.2383 5.757 26.1495 4.96261Z" fill="white"/>
<path d="M25.8925 7.67287C25.3551 8.06072 24.6028 8.21025 24.0654 7.84577C23.3551 7.15885 23.4626 6.10277 23.6355 5.22426C23.7196 4.71025 24.0654 4.17286 24.6028 4.08408C25.1822 3.99996 25.9766 4.25698 26.1495 4.96726C26.2336 5.76165 26.4953 6.98596 25.8925 7.67287Z" fill="white"/>
<path d="M35.5374 10.3597C34.8505 10.8971 33.4299 9.84573 33.4299 9.84573L35 6.94385C35.6215 7.30833 36.3318 7.48124 36.5047 8.16816C36.5888 8.96255 36.2477 9.84573 35.5374 10.3597Z" fill="white"/>
<path d="M35.5374 10.3597C34.8505 10.8971 33.4299 9.84573 33.4299 9.84573L35 6.94385C35.6215 7.30833 36.3318 7.48124 36.5047 8.16816C36.5888 8.96255 36.2477 9.84573 35.5374 10.3597Z" fill="white"/>
<path d="M40.6309 15.2756L41.4065 16.6728L43.2757 14.7616L40.6309 15.2756Z" fill="white"/>
<path d="M43.2757 14.7616L41.4065 16.6728L40.6309 15.2756L43.2757 14.7616Z" fill="white"/>
<path d="M14.6121 41.0373L15.4298 41.6168L15.7756 40.0701L14.6167 41.0373H14.6121ZM35.584 41.299C35.2382 40.785 34.9625 39.7944 34.0793 39.9673C33.4765 40.0514 33.1354 40.7617 33.3924 41.2757C33.6915 41.7897 33.9952 42.7803 34.8971 42.6074C35.5606 42.5 35.8644 41.9205 35.584 41.299Z" fill="white"/>
<path d="M14.6121 41.0373L15.4298 41.6168L15.7756 40.0701L14.6167 41.0373H14.6121ZM35.584 41.299C35.2382 40.785 34.9625 39.7944 34.0793 39.9673C33.4765 40.0514 33.1354 40.7617 33.3924 41.2757C33.6915 41.7897 33.9952 42.7803 34.8971 42.6074C35.5606 42.5 35.8644 41.9205 35.584 41.299Z" fill="white"/>
<path d="M32.2523 29.9112C31.8878 30.3598 32.5327 30.8365 32.1682 31.2009C31.8037 31.285 31.2429 31.1776 31.07 30.8131C31.07 30.8131 31.0467 30.3832 31.1541 29.8271C31.285 29.2664 31.757 27.8925 31.757 27.8925C33.3691 22.1355 31.3037 16.6963 27.5654 12.6776C26.1495 11.1308 24.2336 11.6028 22.4953 11.7757C21.9579 11.8645 20.9906 12.1402 21.5046 13.042C21.5046 13.042 22.8364 14.3084 23.2897 14.7804C23.7616 15.2523 24.6448 16.3271 24.6448 16.3271C24.6448 16.3271 24.9439 16.6729 24.8364 16.9953C24.7944 17.1449 24.5794 17.3832 24.2149 17.1682L22.3037 15.0421C22.3037 15.0421 20.6915 12.9159 19.1869 13.0654C18.3504 13.1729 17.2102 13.9252 16.3084 14.7196C15.4252 15.472 14.7803 16.3084 14.5887 16.6729C13.9439 17.8972 15.2336 17.6402 17.2523 18.7149C17.9392 19.0794 18.9953 19.5935 19.0373 20.1308C18.8644 20.9673 18.2616 20.3224 17.6822 20.0233C17.2336 19.785 13.8364 17.271 12.7616 19.6355C12.5233 20.0841 12.2897 20.6448 12.1168 21.1635C11.771 22.3037 11.6869 23.4626 12.1401 23.8037C12.6775 24.1916 13.514 24.1028 14.3084 24.0607C15.0607 23.9953 15.6215 24.0841 16.3925 24.4486C19.0327 25.7149 20.8411 28.4673 20.6261 30.9579C20.5841 31.0654 20.5186 31.0841 20.4766 31.1075C19.6588 31.3224 18.8644 30.6122 18.0934 30.271C16.0513 29.5421 12.8738 30.014 12.743 30.229C12.4626 30.8318 14.1168 31.6448 14.4859 32.4439C14.8504 33.0888 14.9813 33.9906 15.5373 34.5514C15.7943 34.7009 16.7616 34.7243 17.3411 34.5935C17.7476 34.486 18.4579 33.3458 18.8458 33.3271L32.1448 33.3505C32.7055 33.7149 31.8644 34.1869 32.1214 34.5514C33.9485 35 35.7289 33.6262 36.9112 32.1869C35.556 31.0047 34.0514 29.7383 32.2476 29.9112H32.2523ZM27.6121 30.1028C26.4953 30.1028 25.5934 29.2009 25.5934 28.0841C25.5934 26.9673 26.4953 26.042 27.6121 26.042C28.7289 26.042 29.6308 26.9673 29.6308 28.0841C29.6308 29.2009 28.7289 30.1028 27.6121 30.1028Z" fill="white"/>
</g>
<defs>
<clipPath id="clip0_316_25">
<rect width="50" height="50" fill="white"/>
</clipPath>
</defs>
</svg>
