<svg width="76" height="50" viewBox="0 0 76 50" fill="none" xmlns="http://www.w3.org/2000/svg">
<g clip-path="url(#clip0_316_69)">
<path d="M72.01 14.5488C68.8597 10.311 64.7042 7.29878 59.9358 5.16463C49.2897 0.402438 38.2023 -0.524388 26.8146 1.73781C19.0797 3.26829 12.0191 6.24389 6.31908 11.8415C-0.74157 18.7744 -1.55674 27.9329 4.16778 35.6646C6.59488 38.9451 9.75747 41.4085 13.3184 43.4085C21.0165 47.7195 29.3765 49.3171 38.0981 49.439C42.082 49.3293 46.0413 49.0305 49.9455 48.1464C57.9684 46.3354 65.2375 43.1463 70.8762 36.9329C76.7539 30.4634 77.2259 21.5549 72.0162 14.5488H72.01ZM18.0255 8.13416C20.7591 5.99392 24.0626 5.17072 27.3907 4.48779C31.252 3.69511 35.1623 3.44513 39.7468 3.5122C44.552 3.66464 49.9271 4.24391 55.0142 6.39025C56.3626 6.95732 57.6252 7.64025 58.6671 8.69513C60.4691 10.5244 60.4507 12.3597 58.5936 14.1341C57.2452 15.4268 55.5842 16.189 53.8681 16.8232C51.8578 17.5671 49.7617 18.0427 47.6533 18.4939C46.6052 18.7195 46.6113 18.0549 46.501 17.4451C46.0658 15.0183 45.4591 12.6402 44.4784 10.372C43.7552 8.69513 42.8971 7.09757 41.561 5.79878C39.2871 3.59757 36.8846 3.57318 34.6046 5.72562C32.8333 7.39635 31.8281 9.52439 31.0313 11.7439C30.492 13.25 30.0936 14.811 29.732 16.3719C29.211 18.6219 29.2355 18.7073 26.9739 18.1829C23.8297 17.4573 20.6855 16.6768 18.0807 14.6158C15.4146 12.5061 15.3594 10.2195 18.0255 8.12806V8.13416ZM42.3271 19.1464C40.9297 19.1585 39.5323 19.1524 38.1349 19.1524C36.7374 19.1524 35.2358 19.1524 33.7833 19.1524C33.1029 19.1524 32.7842 18.878 32.9375 18.1707C33.4584 15.8171 33.9917 13.4634 35.4688 11.4817C37.0746 9.31708 38.9991 9.31706 40.5804 11.4634C42.082 13.5061 42.5907 15.9146 43.1239 18.3232C43.2833 19.0549 42.8481 19.1463 42.321 19.1524L42.3271 19.1464ZM10.3152 36.1219C4.13713 29.3658 3.86133 19.811 9.56745 13.2317C11.682 19.6951 17.241 21.6768 22.941 23.439C24.4242 23.8963 25.9442 24.2988 27.4765 24.5305C28.5368 24.6951 28.8739 25.0793 28.8739 26.1524C28.8739 30.8781 29.4317 35.5427 31.0313 40.0244C31.9139 42.5061 33.0907 44.8354 35.5362 46.939C25.5765 46.0793 16.9284 43.3536 10.3152 36.1158V36.1219ZM35.8058 38.1281C34.3104 36.4268 33.7404 34.2988 33.2316 32.1707C32.7965 30.3537 32.6126 28.5 32.4901 26.628C32.4165 25.5183 32.821 25.2683 33.8384 25.3171C35.2849 25.3903 36.7313 25.3354 38.1778 25.3354C39.6794 25.3354 41.181 25.3537 42.6765 25.3232C43.3446 25.311 43.6449 25.5 43.6142 26.2256C43.4671 29.8781 42.891 33.439 41.2117 36.7378C40.9481 37.2561 40.5926 37.7378 40.1942 38.1707C38.7784 39.7195 37.191 39.7134 35.7997 38.1281H35.8058ZM65.5684 36.3293C60.7326 41.5488 54.5607 44.3841 47.7084 45.9268C45.5081 46.4207 43.2771 46.7134 40.7029 46.8719C44.5213 43.1829 45.7226 38.5854 46.6052 33.8598C47.0342 31.5915 47.2733 29.2927 47.1936 27C47.1384 25.3415 47.5797 24.6402 49.3633 24.3353C53.1755 23.689 56.8775 22.5366 60.2546 20.5671C63.1536 18.878 65.6175 16.8171 66.4081 13.0975C72.3165 19.7378 71.9242 29.4512 65.5623 36.3232L65.5684 36.3293Z" fill="white"/>
</g>
<defs>
<clipPath id="clip0_316_69">
<rect width="76" height="50" fill="white"/>
</clipPath>
</defs>
</svg>
