<svg width="49" height="50" viewBox="0 0 49 50" fill="none" xmlns="http://www.w3.org/2000/svg">
<g clip-path="url(#clip0_316_19)">
<path fill-rule="evenodd" clip-rule="evenodd" d="M24.4907 0.172852C10.9279 0.172852 -0.0693359 11.2897 -0.0693359 25C-0.0693359 38.7102 10.9279 49.8271 24.4907 49.8271C38.0536 49.8271 49.0508 38.7102 49.0508 25C49.0508 11.2897 38.0536 0.172852 24.4907 0.172852ZM24.4907 47.6028C12.1437 47.6028 2.13103 37.4859 2.13103 25C2.13103 12.514 12.139 2.39716 24.4907 2.39716C36.8424 2.39716 46.8505 12.514 46.8505 25C46.8505 37.4859 36.8378 47.6028 24.4907 47.6028Z" fill="white"/>
<path fill-rule="evenodd" clip-rule="evenodd" d="M19.5955 8.11209C21.1856 7.6448 22.8359 7.40649 24.4908 7.40649C26.1873 7.40649 27.8284 7.65415 29.3816 8.11209L24.4908 19.07L19.5955 8.11677V8.11209Z" fill="white"/>
<path fill-rule="evenodd" clip-rule="evenodd" d="M33.8331 10.1542C35.6637 11.3364 37.2631 12.8504 38.5482 14.6261L30.5233 32.5794L27.4261 25.6168H21.56L18.4628 32.5794L10.4472 14.6121C11.7276 12.8458 13.3225 11.3364 15.1484 10.1588L21.5554 24.528H27.4446L33.8331 10.1588V10.1542ZM7.67359 20.4486C7.28066 21.9345 7.08188 23.4626 7.0865 25C7.0865 31.8925 11.0111 37.8598 16.7201 40.7476L7.67359 20.4486Z" fill="white"/>
<path fill-rule="evenodd" clip-rule="evenodd" d="M19.6741 41.9112C21.2411 42.3645 22.8591 42.5934 24.4862 42.5934C26.155 42.5934 27.7683 42.3551 29.2938 41.9112L24.4862 31.1168L19.6741 41.9112ZM32.2569 40.7476C37.9705 37.8645 41.8905 31.8972 41.8905 25C41.8905 23.4392 41.6871 21.9252 41.3127 20.486L32.2569 40.7476Z" fill="white"/>
</g>
<defs>
<clipPath id="clip0_316_19">
<rect width="49" height="50" fill="white"/>
</clipPath>
</defs>
</svg>
