<svg width="25" height="30" viewBox="0 0 25 30" fill="none" xmlns="http://www.w3.org/2000/svg">
<g clip-path="url(#clip0_165_132)">
<path d="M3.18696 14.1538H11.3566V9.21205C11.3566 8.87553 11.8893 8.52511 12.2177 8.51449C12.5216 8.50469 13.154 8.83632 13.154 9.13037V14.1538H21.3236V9.21205C21.3236 8.47937 22.9494 8.17061 23.116 9.21696L23.1242 20.7332C23.094 21.4782 22.3947 21.684 21.7631 21.4292C21.6063 21.3655 21.3228 20.944 21.3228 20.8108V15.9508H13.1531V20.8925C13.1531 21.7338 11.3558 21.7338 11.3558 20.8925V15.9508H3.18696V20.7292C3.18696 21.6767 1.5857 21.8408 1.39453 20.8876L1.43456 9.01194C1.70008 8.22207 3.18696 8.49734 3.18696 9.21205V14.1538Z" fill="#D81F1F"/>
<path d="M19.9348 23.1388C20.5688 23.178 21.2199 23.1036 21.858 23.1355C22.4045 23.1624 23.2664 23.2229 23.7484 23.4508C25.1936 24.1345 25.0686 26.7434 23.5303 27.2629L25 30H23.5703L22.264 27.4671L21.242 27.3862V30H19.9348V23.1388ZM21.242 26.2427H22.59C22.6815 26.2427 23.0859 26.0197 23.161 25.9143C23.4911 25.4495 23.3056 24.364 22.6717 24.364H21.242V26.2427Z" fill="#D81F1F"/>
<path d="M24.0197 1.32972H21.4463C21.2085 1.74547 21.3687 2.38422 21.2428 2.88166C22.0835 2.26415 23.6488 2.46346 24.2003 3.39544C24.5777 4.03337 24.5532 5.26023 24.2427 5.92267C23.4233 7.67392 19.8769 7.42888 19.7715 5.25125L21.1603 5.08707C21.0794 6.09583 22.5345 6.30249 22.974 5.47097C23.215 5.016 23.1987 4.18857 22.7983 3.81692C22.2747 3.33091 21.2502 3.46977 21.0288 4.1951L19.9373 3.85939L20.3434 0.104492L23.8865 0.116744C24.1472 0.201693 23.9707 1.0814 24.0205 1.33053L24.0197 1.32972Z" fill="#D81F1F"/>
<path d="M11.5201 2.88175C12.1688 2.97078 12.9767 2.83764 12.9751 2.02409C12.9727 0.811118 11.11 0.875647 11.0201 2.05595L9.73584 1.78231C10.2644 -1.19416 15.6629 -0.18703 13.9718 2.92422L13.154 3.45352C14.368 3.56705 14.7291 4.91562 14.2765 5.92438C13.5029 7.64705 9.58388 7.46245 9.64025 5.16965L10.8976 5.012L10.9899 5.08715C11.0111 6.16289 12.8697 6.26745 13.0527 5.27338C13.2545 4.17885 12.44 3.95341 11.5201 4.0261V2.88256V2.88175Z" fill="#D81F1F"/>
<path d="M13.6442 23.1388V27.5496L14.6703 27.6288L14.7062 28.6106H13.6442V30H12.4187V28.6115H9.47766V27.4271L12.2145 23.1388H13.6442ZM12.4187 27.5496V24.9358L10.7031 27.5496H12.4187Z" fill="#D81F1F"/>
<path d="M1.79814 28.8564H4.37159L4.47453 28.9757L4.49413 30H0L0.0424823 28.9397C0.700958 27.9955 2.97948 26.321 3.09957 25.2126C3.2548 23.775 1.24097 23.869 1.30715 25.2624L0 25.0974C0.110291 24.7413 0.120094 24.3884 0.294925 24.0446C0.96157 22.7344 3.56361 22.7164 4.22699 24.0176C5.19264 25.9126 2.87327 27.6165 1.79814 28.8556V28.8564Z" fill="#D81F1F"/>
<path d="M3.02363 0.104597V6.88417H1.71648V1.65655L0.327637 2.22832V1.00309C0.875821 1.03168 1.56616 0.220585 1.94033 0.1242C2.25895 0.0425189 2.68785 0.140537 3.02363 0.104597Z" fill="#D81F1F"/>
</g>
<defs>
<clipPath id="clip0_165_132">
<rect width="25" height="30" fill="white"/>
</clipPath>
</defs>
</svg>
