<svg width="27" height="30" viewBox="0 0 27 30" fill="none" xmlns="http://www.w3.org/2000/svg">
<g clip-path="url(#clip0_165_102)">
<path d="M12.3348 3.28563C12.4303 3.28318 12.5258 3.28662 12.6214 3.28563C12.6691 3.28514 12.7169 3.28563 12.7647 3.28563C12.8124 3.28563 12.8602 3.28563 12.9079 3.28563C12.9399 3.28563 12.9715 3.28563 13.0035 3.28563C13.6077 3.28269 14.3795 3.22673 14.9618 3.28563C14.9928 3.28858 15.0296 3.27974 15.0573 3.28563C15.3123 3.33913 15.5975 3.6032 15.6304 3.87463C15.6452 3.99734 15.6195 4.14115 15.6304 4.26778L21.0759 4.34092V5.49437H15.7026C15.5956 5.49437 15.6343 5.9317 15.6309 6.03428C15.6304 6.05048 15.6324 6.06716 15.6309 6.08336C15.5626 6.10447 15.5359 6.15895 15.5354 6.23061C15.4504 6.27871 15.415 6.36363 15.3921 6.37786L15.3443 6.42694C15 6.62818 14.2229 6.34743 14.1503 6.81961L14.1598 23.1323C14.1775 23.1942 14.2281 23.1937 14.2458 23.2133C14.3141 23.2904 14.2883 23.2756 14.3891 23.3115C14.6398 23.4013 14.8863 23.3483 15.1533 23.3606C15.2034 23.3709 15.2803 23.337 15.3329 23.3714C15.3577 23.3876 15.6629 23.8003 15.6787 23.8514C15.6763 24.3677 15.5774 24.3633 16.0608 24.3913C16.5847 24.4217 17.1541 24.3884 17.6847 24.3913H17.7325C17.9231 24.3923 18.1151 24.3908 18.3057 24.3913H18.4489C18.5287 24.3913 18.608 24.3913 18.6878 24.3913H18.7355C18.8626 24.3913 18.9906 24.3913 19.1176 24.3913C19.2289 24.3913 19.3407 24.3908 19.452 24.3913C19.5475 24.3918 19.643 24.3913 19.7385 24.3913C19.7705 24.3913 19.8021 24.3913 19.8341 24.3913C19.8661 24.3913 19.8976 24.3913 19.9296 24.3913H20.0729C20.2768 24.3928 20.9474 24.3481 21.0759 24.3913C21.0602 24.5709 21.1251 25.586 20.999 25.6213C19.2103 25.6714 17.4144 25.4711 15.6338 25.6208C15.6935 26.2457 15.4633 26.5961 14.8447 26.6511C13.9076 26.7345 12.8549 26.5853 11.9054 26.6491C11.5257 26.52 11.3724 26.2466 11.3322 25.8638C11.3236 25.7838 11.3385 25.6989 11.3322 25.6179H5.93453C5.88677 25.5722 5.96892 24.5606 5.93453 24.3913H6.45993C6.57122 24.3913 6.68298 24.3913 6.79427 24.3913C6.8578 24.3913 6.9218 24.3913 6.98532 24.3913C7.03309 24.3913 7.08085 24.3913 7.12861 24.3913C7.2399 24.3908 7.35167 24.3913 7.46295 24.3913H7.51072C7.59048 24.3913 7.66977 24.3913 7.74953 24.3913C7.79729 24.3913 7.84506 24.3913 7.89282 24.3913C8.01987 24.3913 8.14692 24.3913 8.27493 24.3913C8.30693 24.3913 8.33845 24.3913 8.37045 24.3913C8.59303 24.3913 8.81656 24.3918 9.03914 24.3913H9.0869C9.1189 24.3913 9.15042 24.3913 9.18242 24.3913H9.23019C9.91177 24.3893 10.5957 24.3987 11.2773 24.3844C11.3709 23.9172 11.2783 23.5422 11.8094 23.3606C11.9513 23.3527 12.0979 23.3718 12.2393 23.3606C12.2708 23.3581 12.3033 23.3635 12.3348 23.3606C12.4112 23.3576 12.533 23.391 12.5736 23.3115C12.6992 23.2835 12.683 23.3218 12.7647 23.2133C12.7771 23.1966 12.8277 23.1986 12.8497 23.1309C12.8764 23.0494 12.9032 22.8 12.9099 22.6999C13.002 21.3251 12.9509 19.5311 12.9099 18.1308C12.907 18.0375 12.9142 17.9452 12.8602 17.8633C12.8621 17.8142 12.8583 17.7651 12.8602 17.716C12.8989 16.6161 12.9079 15.4906 12.9079 14.3784C12.9079 13.6107 12.9185 12.8391 12.9079 12.0715C12.906 11.9237 12.9352 11.7652 12.8602 11.6297C12.8602 11.5969 12.8602 11.5645 12.8602 11.5316C12.9868 11.0923 12.8702 10.5745 12.8707 10.1327C12.8707 9.78471 12.9099 9.43131 12.9079 9.07742C12.9051 8.59052 12.9877 7.07386 12.8349 6.72291C12.7938 6.62818 12.7064 6.60511 12.6214 6.57419C12.3821 6.4883 12.159 6.53443 11.9049 6.52511C11.7946 6.48928 11.4531 6.25123 11.3943 6.1668C11.2878 6.01415 11.3662 5.74174 11.3318 5.59253C11.3256 5.56505 11.3107 5.53167 11.2864 5.51842L5.93453 5.49437C5.90062 5.24846 5.92546 5.0055 5.93453 4.75812C5.93644 4.70904 5.93262 4.65996 5.93453 4.61087C5.93501 4.59468 5.93406 4.57799 5.93453 4.56179C5.93692 4.49651 5.93119 4.43074 5.93453 4.36546C5.93597 4.33306 5.93358 4.29969 5.93453 4.26729C6.09024 4.25208 6.23305 4.32276 6.38828 4.32079C7.50355 4.30901 8.61882 4.28005 9.72979 4.26533C10.195 4.25895 10.8255 4.3257 11.2625 4.26876C11.3107 4.26238 11.3165 4.26876 11.3318 4.21821C11.3528 4.14998 11.317 4.00028 11.3346 3.90261C11.3743 3.68517 11.584 3.45252 11.7616 3.33472C11.9555 3.28023 12.138 3.29054 12.3348 3.28563Z" fill="#D81F1F"/>
<path d="M21.8396 20.6609C22.2065 20.2599 22.559 19.9355 23.157 20.0189C23.2663 20.0341 23.2138 20.1117 23.2248 20.121V20.1701C23.2248 20.203 23.2243 20.2354 23.2248 20.2683V20.3173C23.2267 20.3664 23.2248 20.4155 23.2248 20.4646V20.5628C23.2262 20.6609 23.2238 20.7591 23.2248 20.8573V21.0045C23.2248 21.0374 23.2248 21.0698 23.2248 21.1027V21.299C23.2248 21.3319 23.2248 21.3643 23.2248 21.3972V21.4463C23.2238 21.7403 23.2253 22.0357 23.2248 22.3297V22.3788C23.2248 22.6076 23.2248 22.8373 23.2248 23.066V23.1151C23.2248 23.148 23.2248 23.1804 23.2248 23.2132V23.2623C23.2248 23.6869 23.2248 24.1139 23.2248 24.5385V24.5876C23.2248 24.6857 23.2248 24.7839 23.2248 24.8821V24.9311C23.2248 24.9802 23.2248 25.0293 23.2248 25.0784V25.1766C23.2248 25.3886 23.2248 25.6026 23.2248 25.8146V25.8637C23.2248 25.8966 23.2248 25.929 23.2248 25.9619V26.011C23.2248 26.223 23.2248 26.437 23.2248 26.649V26.6981C23.2243 26.9431 23.2257 27.1894 23.2248 27.4344V27.5816C23.2248 27.6145 23.2248 27.6469 23.2248 27.6798V27.7289C23.2238 27.9247 23.2262 28.122 23.2248 28.3179V28.3669C23.2229 28.579 23.2276 28.793 23.2248 29.005C23.2243 29.0541 23.2257 29.1032 23.2248 29.1523C23.2243 29.1852 23.2257 29.2176 23.2248 29.2504C23.2224 29.3643 23.2305 29.4801 23.2248 29.594C23.2138 29.8237 23.2076 30.0559 22.8747 29.9882C22.8422 29.9813 22.8498 29.9062 22.8073 29.892C22.751 29.8733 22.6731 29.892 22.6039 29.865C22.066 29.6549 21.6987 29.3074 21.6467 28.6879C21.5894 27.9993 21.6605 27.2464 21.6486 26.5509V26.4036C21.6462 26.2736 21.6553 26.141 21.6486 26.011V25.9619C21.6405 25.902 21.6204 25.823 21.6008 25.7656L21.6486 25.6674C21.6691 25.6404 21.6476 25.0862 21.6486 24.9802V24.833C21.6505 24.6533 21.6476 24.4727 21.6486 24.2931V24.244C21.6495 24.1134 21.6486 23.9819 21.6486 23.8513V23.8022C21.6486 23.7693 21.6486 23.737 21.6486 23.7041V23.655C21.6486 23.6059 21.6486 23.5568 21.6486 23.5077V23.4587C21.6495 23.2466 21.6472 23.0326 21.6486 22.8206V22.6733C21.6505 22.4937 21.6457 22.3131 21.6486 22.1334V21.9371C21.6519 21.8232 21.6419 21.7069 21.6486 21.5935C21.6658 21.2946 21.6763 21.1513 21.7441 20.8573C21.7475 20.842 21.7413 20.8244 21.7441 20.8082C21.8124 20.7871 21.8392 20.7326 21.8396 20.6609Z" fill="#D81F1F"/>
<path d="M22.7949 0.0461216C22.9353 0.0338509 23.0839 0.0544657 23.2253 0.0461216C23.2281 0.127599 23.2214 0.210059 23.2253 0.292027C23.2377 0.567874 23.2234 0.850101 23.2253 1.12644V1.17552C23.2262 1.38756 23.2243 1.60156 23.2253 1.8136V1.86268C23.2257 1.96085 23.2253 2.05901 23.2253 2.15718V2.20626C23.2262 2.43499 23.2243 2.6647 23.2253 2.89342V2.94251C23.2253 3.00779 23.2253 3.07356 23.2253 3.13884V3.23701C23.2262 3.43285 23.2238 3.63016 23.2253 3.826V3.92417C23.2277 4.18529 23.22 4.44837 23.2253 4.70949V4.85674C23.2262 4.88963 23.2243 4.92202 23.2253 4.95491C23.2291 5.06633 23.2128 5.19247 23.2253 5.29849C23.232 5.35592 23.2539 5.43887 23.273 5.49482L23.2253 5.59299C23.1675 5.66809 23.2253 7.25641 23.2253 7.50722V7.55631C23.2253 7.58919 23.2253 7.62159 23.2253 7.65447V7.8508C23.2253 7.88369 23.2253 7.91609 23.2253 7.94897V8.09622C23.2238 8.61895 23.2253 9.14414 23.2253 9.66687V9.76504C23.1164 9.86173 23.3375 10.0365 22.793 9.93929C22.5279 9.89217 22.1157 9.66442 21.9557 9.45189C21.9228 9.40772 21.7217 9.08426 21.7136 9.06266C21.6773 8.96744 21.6658 8.79663 21.6491 8.68522L21.6013 3.23701C21.6013 3.20412 21.6013 3.17173 21.6013 3.13884C21.6844 3.0716 21.6476 2.90275 21.6491 2.79526C21.6491 2.76237 21.6491 2.72998 21.6491 2.69709C21.65 2.51745 21.6491 2.33682 21.6491 2.15718C21.6491 2.1081 21.6491 2.05901 21.6491 2.00993V1.96085C21.65 1.92796 21.6481 1.89557 21.6491 1.86268C21.6505 1.8136 21.6472 1.76452 21.6491 1.71543C21.6505 1.68304 21.6472 1.64966 21.6491 1.61727C21.6668 1.30608 21.6553 1.23638 21.7446 0.930106C21.757 0.887404 21.725 0.818688 21.758 0.747517C21.8 0.657205 22.217 0.277302 22.3178 0.193861L22.3655 0.144778C22.3732 0.13987 22.3584 0.101095 22.3655 0.0956954C22.3736 0.0898054 22.3961 0.0991312 22.4133 0.0956954C22.4281 0.0927504 22.4453 0.0971679 22.4611 0.0956954C22.5747 0.085388 22.6832 0.0520116 22.7476 0.0466124C22.7634 0.0451399 22.7796 0.0480849 22.7954 0.0466124L22.7949 0.0461216Z" fill="#D81F1F"/>
<path d="M1.58815 0.0461377V9.86322C1.10336 9.93194 0.769495 9.74542 0.394078 9.47007C0.376883 9.4578 0.368763 9.41117 0.298551 9.3719C0.31288 9.31595 0.262251 9.29435 0.250788 9.27374C0.137112 9.06955 0.0788411 8.92181 0.0597359 8.68474C-0.0735232 7.02868 0.0578253 5.08254 0.0640346 3.40832C0.0645122 3.26254 0.00910699 3.13444 0.0119728 2.99112C0.0520938 2.96657 0.0525714 2.93467 0.0597359 2.89295C0.100335 2.65392 0.0525714 2.18615 0.0597359 1.91129C0.0745424 1.34978 -0.0329245 0.983622 0.347747 0.513898C0.660596 0.127615 1.111 0.0112888 1.58815 0.0461377Z" fill="#D81F1F"/>
<path d="M1.54036 20.0229C1.56042 20.0268 1.57857 20.0524 1.58812 20.072C1.51982 23.1593 1.67935 26.2628 1.58812 29.3487C1.58764 29.3649 1.5886 29.3816 1.58812 29.3978C1.58526 29.4792 1.59385 29.5622 1.58812 29.6432C1.58812 29.6476 1.55373 29.6707 1.54848 29.7153C1.54227 29.7693 1.63254 29.9053 1.51218 29.9357C1.48782 29.9421 1.06941 29.8817 1.01162 29.867C0.515363 29.7413 0.107466 29.2579 0.0601807 28.7342V21.1759C0.0950477 20.8524 0.387358 20.4116 0.63286 20.2188L0.823913 20.1206C0.838242 20.1157 0.856869 20.125 0.871676 20.1206C1.06512 20.0651 1.34453 19.9817 1.54036 20.0224V20.0229Z" fill="#D81F1F"/>
<path d="M25.804 20.0229C26.0242 20.0558 26.2697 20.2247 26.4727 20.3174C26.5037 20.3449 26.5806 20.4274 26.616 20.4647C26.6862 20.6546 26.9503 20.9742 26.9503 21.1764V27.8026C26.9503 28.1535 26.9704 28.5059 26.9503 28.8579C26.903 28.8535 26.8199 29.1715 26.7774 29.2446C26.4756 29.7684 25.9989 29.9132 25.4463 29.9873C25.3961 29.9897 25.4305 29.7968 25.4219 29.7414V28.5634C25.4219 26.7807 25.4205 24.996 25.4219 23.2133C25.4219 23.1804 25.4219 23.1481 25.4219 23.1152C25.4219 22.9684 25.4219 22.8202 25.4219 22.6734C25.4219 22.6405 25.4219 22.6081 25.4219 22.5753C25.4224 22.1998 25.4219 21.8218 25.4219 21.4463C25.4219 21.4135 25.4219 21.3811 25.4219 21.3482C25.4219 21.1361 25.4209 20.9221 25.4219 20.7101C25.4219 20.6772 25.4219 20.6448 25.4219 20.6119C25.4224 20.5138 25.4205 20.4156 25.4219 20.3174C25.4224 20.2846 25.4219 20.2522 25.4219 20.2193V20.1211C25.431 20.0946 25.3932 20.0337 25.452 20.021C25.5638 20.0328 25.6975 20.0067 25.804 20.0229Z" fill="#D81F1F"/>
<path d="M4.16738 20.0229C4.32214 20.0474 4.58674 20.1981 4.74054 20.2683C4.77302 20.283 4.80407 20.3017 4.83607 20.3174C4.84419 20.4033 4.96742 20.4018 4.97936 20.4156C5.06103 20.5118 5.29841 21.1346 5.31513 21.273L5.3137 28.7597C5.27023 29.1877 5.06437 29.3423 4.83607 29.6431C4.74197 29.6466 4.68131 29.7055 4.64501 29.7904C4.63069 29.7948 4.61206 29.786 4.59725 29.7904C4.33408 29.8655 4.06469 29.9465 3.78528 29.9376V20.0224C3.90612 20.0352 4.0518 20.0047 4.16738 20.0224V20.0229Z" fill="#D81F1F"/>
<path d="M3.9285 0.0461773C4.23992 0.0235992 4.52029 0.156123 4.78824 0.291592C4.80352 0.30828 4.82024 0.323987 4.836 0.340675C4.89523 0.40252 4.96735 0.482034 5.02705 0.537007C5.04377 0.552223 5.05667 0.570874 5.07482 0.58609C5.0753 0.657751 5.10204 0.712233 5.17034 0.733339C5.18611 0.776532 5.20044 0.796656 5.21811 0.831505L5.33847 1.24675L5.31363 8.68478C5.24533 9.17021 5.02897 9.51526 4.59719 9.71552C4.31825 9.84461 4.09711 9.8932 3.78521 9.86277L3.78235 0.0726821C3.79811 0.0132917 3.90653 0.0599206 3.9285 0.0461773Z" fill="#D81F1F"/>
<path d="M26.4727 0.340579C26.658 0.500589 26.8452 0.831409 26.9025 1.07682C26.9293 1.19217 26.9445 1.27168 26.9522 1.39341C27.1041 3.73663 26.8328 6.25115 26.9522 8.61253C26.9541 8.85451 26.8242 9.05182 26.7592 9.27319C26.7459 9.29086 26.7268 9.30558 26.7115 9.32227L26.6637 9.42044C26.5667 9.51075 26.1225 9.83813 26.0227 9.87102C25.9157 9.90636 25.483 9.87495 25.4219 9.8131V5.34655C25.4219 4.9053 25.4219 4.46257 25.4219 4.02131C25.4219 3.98843 25.4219 3.95603 25.4219 3.92314C25.4219 3.71111 25.4219 3.4971 25.4219 3.28507V3.1869C25.4219 2.20328 25.4806 1.11314 25.4219 0.143756C25.42 0.111361 25.4266 0.0755308 25.4219 0.0455902C25.7681 0.0230121 26.1999 0.104981 26.4727 0.340088V0.340579Z" fill="#D81F1F"/>
<path d="M24.8487 20.0229C24.9046 20.0308 24.907 20.0279 24.9442 20.072C24.9461 20.4642 24.9418 20.8578 24.9442 21.25C24.9442 21.2829 24.9442 21.3153 24.9442 21.3482C24.9442 21.4302 24.9442 21.5116 24.9442 21.5936C24.9442 21.6265 24.9442 21.6589 24.9442 21.6918V21.8881C24.9442 21.921 24.9442 21.9534 24.9442 21.9863C24.9442 22.3618 24.9442 22.7397 24.9442 23.1152C24.9442 23.1481 24.9442 23.1805 24.9442 23.2133C24.9442 24.0635 24.9442 24.9155 24.9442 25.7657C24.9442 25.7985 24.9442 25.8309 24.9442 25.8638V29.7905C24.9318 29.841 24.9227 29.8921 24.8965 29.9377H24.8487C24.6973 29.9676 24.5674 29.9716 24.4188 29.9868C24.2923 29.8955 24.0592 29.9397 23.8934 29.9377C23.8614 29.9377 23.8299 29.9382 23.7979 29.9377H23.7502C23.7334 29.9357 23.7153 29.9416 23.7024 29.9377L23.6546 29.8395C23.658 29.8086 23.6561 29.7728 23.6546 29.7414C23.7315 29.7001 23.7005 29.5745 23.7024 29.496C23.7033 29.4636 23.7029 29.4302 23.7024 29.3978C23.701 29.3158 23.7033 29.2343 23.7024 29.1524C23.701 29.0046 23.7014 28.8618 23.7024 28.7106C23.7024 28.6777 23.7024 28.6454 23.7024 28.6125C23.7024 28.5634 23.7024 28.5143 23.7024 28.4652C23.7033 28.2532 23.7033 28.0392 23.7024 27.8271C23.7024 27.7943 23.7024 27.7619 23.7024 27.729C23.701 27.6146 23.7062 27.4993 23.7024 27.3854C23.6995 27.3039 23.7062 27.2215 23.7024 27.14C23.6967 27.0133 23.6589 26.9049 23.6546 26.8455C23.6503 26.7861 23.6565 26.7159 23.6546 26.6982C23.742 26.5853 23.7014 26.3615 23.7024 26.2074C23.7024 26.1583 23.7024 26.1092 23.7024 26.0602C23.7024 25.9458 23.7024 25.8309 23.7024 25.7166C23.7024 25.6837 23.7024 25.6513 23.7024 25.6184C23.7024 25.5855 23.7024 25.5531 23.7024 25.5202C23.7024 25.4874 23.7024 25.455 23.7024 25.4221C23.7024 25.3568 23.7024 25.291 23.7024 25.2257C23.7024 25.1767 23.7024 25.1276 23.7024 25.0785C23.7024 24.8665 23.7024 24.6525 23.7024 24.4404C23.7024 24.3751 23.7024 24.3094 23.7024 24.2441C23.7024 24.1788 23.7024 24.113 23.7024 24.0478C23.7024 24.0149 23.7024 23.9825 23.7024 23.9496C23.701 23.8421 23.7377 23.6728 23.6546 23.606C23.6556 23.5574 23.6575 23.5069 23.6546 23.4588C23.7263 23.4249 23.701 23.3272 23.7024 23.2624C23.7062 23.0995 23.7019 22.9346 23.7024 22.7716C23.7024 22.6896 23.7024 22.6081 23.7024 22.5262C23.7024 22.4933 23.7024 22.4609 23.7024 22.428C23.7024 22.3951 23.7024 22.3627 23.7024 22.3298C23.7024 22.1831 23.7024 22.0349 23.7024 21.8881C23.7024 21.7899 23.7019 21.6918 23.7024 21.5936C23.7033 21.4468 23.7014 21.2986 23.7024 21.1519C23.7024 21.1357 23.7024 21.119 23.7024 21.1028C23.7029 21.0208 23.7019 20.9393 23.7024 20.8574C23.7024 20.8083 23.7024 20.7592 23.7024 20.7101C23.7033 20.6281 23.701 20.5467 23.7024 20.4647C23.7038 20.3994 23.6995 20.3336 23.7024 20.2684C23.7038 20.236 23.701 20.2026 23.7024 20.1702V20.1211C23.7134 20.0961 23.6909 20.0396 23.7502 20.0229C23.8533 19.9945 24.7083 20.0033 24.8487 20.0229Z" fill="#D81F1F"/>
<path d="M2.06575 26.4528C2.06575 26.2977 2.06575 26.1402 2.06575 25.9865V20.0229H3.30807C3.31189 20.1039 3.30329 20.1869 3.30807 20.2684C3.30998 20.3008 3.30711 20.3341 3.30807 20.3665C3.31046 20.4318 3.30711 20.4976 3.30807 20.5629C3.30807 20.5791 3.30807 20.5957 3.30807 20.6119C3.30807 20.6448 3.30807 20.6772 3.30807 20.7101C3.30902 20.8245 3.30759 20.9393 3.30807 21.0537C3.30807 21.0866 3.30807 21.119 3.30807 21.1519C3.30855 21.2824 3.30807 21.414 3.30807 21.5445C3.30807 21.5936 3.30807 21.6427 3.30807 21.6918C3.30807 21.708 3.30807 21.7247 3.30807 21.7409C3.30807 21.8228 3.30807 21.9043 3.30807 21.9863C3.30807 22.0354 3.30807 22.0844 3.30807 22.1335C3.30807 22.1988 3.30807 22.2646 3.30807 22.3298C3.30807 22.346 3.30807 22.3627 3.30807 22.3789C3.30807 22.5257 3.30807 22.6739 3.30807 22.8207C3.30807 22.8369 3.30807 22.8536 3.30807 22.8698C3.30807 22.9026 3.30807 22.935 3.30807 22.9679C3.30807 23.017 3.30807 23.0661 3.30807 23.1152C3.30807 23.1643 3.30807 23.2133 3.30807 23.2624C3.30807 23.3277 3.30807 23.3935 3.30807 23.4588C3.30807 23.524 3.30807 23.5898 3.30807 23.6551C3.30807 23.6713 3.30807 23.688 3.30807 23.7042C3.30807 23.7533 3.30807 23.8023 3.30807 23.8514C3.30807 23.9167 3.30807 23.9825 3.30807 24.0478C3.30807 24.1783 3.30807 24.3099 3.30807 24.4404C3.30807 24.4895 3.30807 24.5386 3.30807 24.5877C3.30807 24.6205 3.30807 24.6529 3.30807 24.6858C3.30807 24.702 3.30807 24.7187 3.30807 24.7349C3.30807 24.8331 3.30807 24.9312 3.30807 25.0294C3.30807 25.0456 3.30807 25.0623 3.30807 25.0785V29.8886C3.29469 29.9058 3.27941 29.9289 3.26031 29.9377H2.11399C2.06718 29.8896 2.071 29.8886 2.06384 29.8199C1.98169 29.0616 2.10874 28.2493 2.01846 27.4836C2.01655 27.4674 2.02085 27.4507 2.01846 27.4345C2.01608 27.4183 2.02133 27.4011 2.01846 27.3854C2.09011 27.3515 2.06479 27.2539 2.06623 27.1891C2.07053 26.977 2.06623 26.763 2.06623 26.551C2.06623 26.5181 2.06623 26.4857 2.06623 26.4528H2.06575Z" fill="#D81F1F"/>
<path d="M2.01802 0.0461791C2.45744 0.0231102 2.86725 -0.045606 3.30715 0.04667C3.31144 0.111459 3.30619 0.177231 3.30715 0.242511C3.3081 0.275397 3.30571 0.308282 3.30715 0.340677C3.31097 0.438352 3.30571 0.537009 3.30715 0.635175C3.30762 0.66806 3.30715 0.700455 3.30715 0.733341C3.30715 0.749538 3.30715 0.766226 3.30715 0.782424C3.30715 0.815309 3.30715 0.847704 3.30715 0.88059C3.30715 0.896787 3.30715 0.913475 3.30715 0.929672C3.30715 0.962558 3.30715 0.994953 3.30715 1.02784C3.30715 1.07692 3.30715 1.126 3.30715 1.17509C3.30715 1.22417 3.30715 1.27325 3.30715 1.32234C3.30715 1.46909 3.30667 1.61732 3.30715 1.76408C3.30715 1.82936 3.30715 1.89513 3.30715 1.96041C3.30715 2.0095 3.30715 2.05858 3.30715 2.10766C3.30715 2.14055 3.30715 2.17294 3.30715 2.20583C3.30715 2.22203 3.30715 2.23871 3.30715 2.25491C3.30715 2.2878 3.30715 2.32019 3.30715 2.35308C3.30715 2.48364 3.30715 2.61518 3.30715 2.74574C3.30715 2.79482 3.30715 2.84391 3.30715 2.89299C3.30715 3.26848 3.30715 3.64641 3.30715 4.0219C3.30715 4.05478 3.30715 4.08718 3.30715 4.12007C3.30715 4.25063 3.30715 4.38217 3.30715 4.51273C3.30715 4.57801 3.30715 4.64378 3.30715 4.70906C3.30571 6.14768 3.32291 7.59023 3.30715 9.02836C3.30667 9.09364 3.30762 9.15941 3.30715 9.22469C3.30571 9.41513 3.32291 9.62865 3.30715 9.81369C3.30428 9.84461 3.31479 9.8932 3.30715 9.91185H2.11307C2.02518 9.82007 2.07056 9.64828 2.06531 9.51919C2.06483 9.50299 2.06531 9.48631 2.06531 9.47011C2.06435 9.43722 2.06578 9.40483 2.06531 9.37194C2.06531 9.35574 2.06531 9.33906 2.06531 9.32286C2.06435 9.27378 2.06626 9.22469 2.06531 9.17561C2.06053 8.86541 2.06674 8.55324 2.06531 8.24303C2.06531 8.17775 2.06531 8.11198 2.06531 8.0467C2.06531 7.68741 2.06674 7.32616 2.06531 6.96688C2.06531 6.91779 2.06531 6.86871 2.06531 6.81963C2.06483 6.73766 2.06722 6.65569 2.06531 6.57421C2.06435 6.52562 2.0696 6.47507 2.06531 6.42696C2.06148 6.38524 2.06435 6.34254 2.01754 6.3288C2.03665 6.27284 2.05814 6.19038 2.06531 6.13247C2.07104 6.08535 2.06196 6.03332 2.06531 5.98522C2.07104 5.90423 2.06244 5.82128 2.06531 5.7398C2.06626 5.70692 2.06435 5.67452 2.06531 5.64164C2.06626 5.59255 2.06435 5.54347 2.06531 5.49439C2.06817 5.31474 2.06435 5.13412 2.06531 4.95448C2.06722 4.62807 2.06387 4.29922 2.06531 3.97282C2.06531 3.93993 2.06531 3.90754 2.06531 3.87465C2.06531 3.79268 2.06531 3.7112 2.06531 3.62924L2.01754 3.58015C2.01754 3.48689 2.06531 3.37106 2.06531 3.23657V3.04024C2.06531 3.00735 2.06531 2.97496 2.06531 2.94207C2.06531 2.92588 2.06531 2.90919 2.06531 2.89299C2.06531 2.5337 2.06531 2.17245 2.06531 1.81317C2.06531 1.78028 2.06531 1.74789 2.06531 1.715C2.06531 1.63303 2.06531 1.55155 2.06531 1.46959C2.06531 1.10195 2.07008 0.73285 2.06626 0.364728C2.06531 0.281777 2.09683 0.146308 2.01754 0.0952621C2.01945 0.0790647 2.01468 0.0618857 2.01754 0.0461791H2.01802Z" fill="#D81F1F"/>
<path d="M24.8965 0.0461451C24.908 0.063815 24.9395 0.0800124 24.9443 0.0952281V4.5127C24.9443 4.75762 24.9443 5.00402 24.9443 5.24894C24.9443 5.28183 24.9443 5.31422 24.9443 5.34711C24.9443 5.47767 24.9443 5.60921 24.9443 5.73977C24.9443 5.78885 24.9443 5.83794 24.9443 5.88702C24.9443 6.21342 24.9443 6.54228 24.9443 6.86868C24.9443 6.91776 24.9443 6.96685 24.9443 7.01593C24.9443 7.14649 24.9443 7.27803 24.9443 7.40859C24.9443 7.44148 24.9443 7.47387 24.9443 7.50676C24.9443 7.83316 24.9434 8.16202 24.9443 8.48842C24.9443 8.5213 24.9443 8.5537 24.9443 8.58658C24.9448 8.76623 24.9434 8.94685 24.9443 9.1265C24.9443 9.15938 24.9443 9.19178 24.9443 9.22466V9.42099C24.9434 9.45339 24.9472 9.48726 24.9443 9.51916C24.9357 9.61585 24.95 9.71647 24.9443 9.81366C24.9352 9.83869 24.9099 9.89759 24.8965 9.91182H24.7533C24.7217 9.91035 24.6893 9.9133 24.6577 9.91182H24.61C24.578 9.91182 24.5464 9.91182 24.5144 9.91182C24.2441 9.90937 23.9723 9.9133 23.702 9.91182C23.6986 9.71598 23.7077 9.51818 23.702 9.32234C23.701 9.28945 23.7034 9.25657 23.702 9.22417C23.6963 9.07103 23.6686 8.99054 23.6542 8.88059C23.6428 8.79224 23.6428 8.82169 23.6542 8.73334C23.6709 8.60327 23.702 8.51443 23.702 8.34068C23.702 8.17723 23.702 8.01329 23.702 7.84985C23.702 7.60492 23.702 7.35853 23.702 7.1136C23.702 7.06452 23.702 7.01544 23.702 6.96635C23.702 6.73763 23.7025 6.50792 23.702 6.27919C23.702 6.24631 23.702 6.21391 23.702 6.18103C23.702 6.14814 23.702 6.11575 23.702 6.08286C23.702 6.01758 23.702 5.95181 23.702 5.88653C23.702 5.85364 23.702 5.82125 23.702 5.78836C23.702 5.75548 23.702 5.72308 23.702 5.6902C23.702 5.65731 23.702 5.62492 23.702 5.59203C23.702 5.55914 23.702 5.52675 23.702 5.49386C23.6977 4.95935 23.7435 4.34581 23.702 3.82504C23.6929 3.71117 23.6772 3.63853 23.6542 3.53055C23.7306 3.48932 23.7001 3.36415 23.702 3.28513C23.7034 3.21985 23.702 3.15408 23.702 3.0888C23.7039 2.79234 23.7407 2.43403 23.6542 2.15622C23.66 2.10861 23.649 2.05707 23.6542 2.00897C23.6671 1.88479 23.6943 1.77485 23.702 1.61631C23.7068 1.51863 23.6991 1.41949 23.702 1.32181C23.7058 1.19125 23.7006 1.05971 23.702 0.929148C23.7025 0.880065 23.702 0.830982 23.702 0.781899C23.7025 0.667536 23.7001 0.552681 23.702 0.438318C23.7025 0.405433 23.701 0.373038 23.702 0.340152C23.7029 0.307267 23.7006 0.274381 23.702 0.241986C23.7044 0.176706 23.6986 0.110935 23.702 0.0456543H24.8961L24.8965 0.0461451Z" fill="#D81F1F"/>
</g>
<defs>
<clipPath id="clip0_165_102">
<rect width="27" height="30" fill="white"/>
</clipPath>
</defs>
</svg>
