<svg width="37" height="30" viewBox="0 0 37 30" fill="none" xmlns="http://www.w3.org/2000/svg">
<g clip-path="url(#clip0_165_120)">
<path d="M21.572 0.659564C21.6039 0.686448 21.7062 0.794583 21.7494 0.838793C22.1451 1.24505 22.4634 1.78273 22.5172 2.36344C22.7609 4.97839 22.3954 8.01573 22.5184 10.6964C22.5214 10.7639 22.503 10.8912 22.5184 10.9354C22.5391 10.9951 22.5432 10.9886 22.6042 10.9969C23.0484 11.0549 23.6216 10.9653 24.0883 10.9927C24.6378 11.025 25.2128 11.123 25.7126 11.3536C26.2125 11.5842 26.7857 12.1207 27.1323 12.6082L27.3689 13.0861C27.376 13.1029 27.3624 13.1285 27.3689 13.1459C27.4352 13.3161 27.4973 13.435 27.5464 13.6238C27.5955 13.8126 27.7238 14.1968 27.7238 14.3706V22.6749C27.7238 22.9694 28.3355 24.5747 28.552 24.5568L28.6111 24.6166C28.6561 24.699 28.7028 24.7026 28.7294 24.736L28.7886 24.7958C28.8075 24.8167 28.8276 24.8358 28.8477 24.8555C28.8886 24.8956 28.9116 24.9284 28.966 24.975C29.079 25.0724 29.2074 25.1489 29.321 25.214L29.4393 25.3335C29.4552 25.3412 29.4819 25.3257 29.4984 25.3335C29.6995 25.4804 30.0219 25.6633 30.2674 25.6919C30.2869 25.6943 30.307 25.6895 30.3266 25.6919C31.0021 25.9213 31.7693 25.824 32.4283 25.5742L32.8701 25.2737C32.9671 25.2229 33.0706 25.1835 33.1623 25.1202C33.4386 24.9302 34.2407 24.049 34.2306 23.7204L34.2898 23.6607C34.2981 23.6559 34.2833 23.62 34.2898 23.6009C34.4513 23.3775 34.4513 23.0835 34.4672 22.8243C34.4684 22.8045 34.4661 22.7842 34.4672 22.7645L34.5258 17.4474C33.6793 17.4307 32.8139 17.5227 31.9828 17.3279C31.5498 17.1493 31.1754 16.8493 30.8589 16.4915L30.504 15.8343C30.5271 13.8258 30.2733 11.5185 30.4425 9.52903C30.4679 9.23091 30.6478 8.67948 30.7998 8.42617L30.9181 8.30668C30.969 8.24873 31.1618 8.05218 31.2138 8.00797L31.3322 7.88848C31.4493 7.7911 31.7663 7.71881 31.848 7.50194C31.8042 7.28866 31.6368 7.23131 31.5433 7.10943C31.4262 6.95649 30.6992 5.86498 30.6223 5.85721L30.5632 5.79747C30.517 5.71323 30.4715 5.71084 30.4449 5.67799C30.2828 5.47785 30.2798 5.50294 30.0899 5.37927C29.8663 5.23409 29.6155 5.08354 29.3801 4.96107C29.0985 4.8141 28.8915 4.72926 28.6111 4.60261C28.468 4.53809 28.3869 4.49089 28.2562 4.42338C28.245 4.41741 28.2331 4.35886 28.1935 4.33795C27.2855 3.85522 26.2515 3.56368 27.1915 2.33237C27.3441 2.26068 27.5618 2.24813 27.7238 2.27263L27.8421 2.33237C27.8694 2.34312 27.922 2.37359 27.9604 2.39211C28.0847 2.45186 28.2237 2.56417 28.3745 2.63109C28.3911 2.63826 28.4171 2.62392 28.4337 2.63109C29.4008 3.22314 30.5016 3.58339 31.3913 4.30389C31.4812 4.46281 31.6007 4.50164 31.6871 4.60261L31.8054 4.7221C32.391 5.42766 32.8879 6.2097 33.5208 6.87285C33.6628 7.00309 33.8674 6.86807 34.0733 6.87703C34.3247 6.88778 34.5932 7.01743 34.8222 7.11182C35.2694 7.53719 35.7414 8.30071 36.1223 8.80016C36.2986 9.03137 36.8245 9.55352 36.9233 9.79727C37.0972 10.2274 36.9599 10.7036 36.6861 11.0561C36.5618 11.2162 36.2732 11.4068 36.1827 11.5334C36.1537 11.5746 36.1016 11.5973 36.12 11.6762L36.1259 22.7376C36.0673 23.1917 36.0123 23.6386 35.8869 24.0795C35.5971 25.0963 34.8287 26.0241 33.994 26.6484L33.3433 27.0069C33.3268 27.014 33.3013 26.9997 33.2842 27.0069C31.4061 27.7847 30.4626 27.5798 28.6111 26.9471C28.594 26.9412 28.5709 26.9525 28.552 26.9471C28.5881 26.7912 28.4366 26.7996 28.3154 26.7679C28.1125 26.597 27.8333 26.4423 27.6647 26.29L27.5464 26.1705C27.4671 26.0976 27.3299 25.9554 27.2506 25.8718L27.014 25.6328C26.8241 25.4111 26.5065 24.8896 26.3633 24.6171C26.1527 24.0257 25.9392 23.4312 25.8907 22.7944C25.6908 20.1633 26.1161 17.221 25.8925 14.6084C25.8741 14.3933 25.8209 14.37 25.7718 14.2218C25.489 13.3657 24.852 12.975 23.97 12.9051C23.5027 12.8681 22.9904 12.9362 22.5184 12.9075C22.5154 12.9469 22.5208 12.987 22.5184 13.027C22.5107 13.1853 22.5208 13.3466 22.5184 13.5049C22.4527 17.8273 22.3433 22.5291 22.5184 26.8276V26.8874C22.5214 26.9465 22.516 27.0075 22.5184 27.0666C22.7142 27.0762 22.9147 27.0547 23.1105 27.0666C23.1685 27.0702 23.2312 27.0594 23.288 27.0666C23.8724 27.1413 24.0422 27.4107 24.2344 27.903C24.3368 28.5249 24.3273 29.2502 24.2344 29.8745C24.209 29.8978 24.0398 29.9803 23.9978 29.994L0.480483 29.9964C0.379331 30.0179 0.297109 29.954 0.218436 29.9343C0.198916 29.9295 0.175255 29.9403 0.159284 29.9343C0.0959902 29.8279 0.0522172 29.7353 0.0392036 29.6069C-0.0264558 28.9575 -0.062539 27.7829 0.395894 27.3056C0.414232 27.2865 0.434935 27.2626 0.455047 27.2458C0.546142 27.1688 0.859651 27.0069 0.957845 27.0069H1.81556V2.27263C2.11724 1.34064 2.66144 0.559196 3.59014 0.181619C3.8303 0.0842378 4.12902 0.0400279 4.38633 0H19.9476C20.4812 0.0424176 21.1597 0.316639 21.572 0.659564ZM5.24582 3.40775C4.87671 3.63119 4.74302 4.01115 4.71108 4.45086C4.5212 7.03296 4.85778 9.85164 4.71463 12.4582C4.74362 12.8262 4.93231 13.1357 5.18726 13.3848C5.39903 13.5922 5.67586 13.7236 5.98346 13.7457H18.2919C18.5061 13.7726 18.6374 13.6423 18.7924 13.5641C18.8149 13.5527 18.8912 13.5886 18.9521 13.5479C19.0461 13.4846 19.3076 13.1417 19.3839 13.0264C19.5347 12.7982 19.5957 12.7074 19.6229 12.4015C19.8536 9.81938 19.4436 6.89077 19.6217 4.27223C19.5205 3.74649 19.1449 3.34024 18.6469 3.16579C14.4174 3.03256 10.1626 3.14966 5.92371 3.10664C5.66876 3.1156 5.4221 3.22553 5.24582 3.40775ZM32.5152 15.8941C32.601 15.9311 32.5962 15.995 32.779 16.0153C33.3232 16.0757 33.9698 15.9669 34.5264 16.0135V11.7419C34.5264 11.6636 34.1993 11.4838 34.1111 11.4444C33.8556 11.3303 32.7826 10.979 32.5288 10.9473C32.0798 10.8912 31.9 11.1511 31.8622 11.5609C31.7864 12.3824 31.7764 14.275 31.871 15.0816C31.9255 15.5464 32.1195 15.7232 32.5152 15.8947V15.8941Z" fill="#D81F1F"/>
<path d="M12.1073 5.14025C12.1203 5.00344 12.0979 4.85946 12.1073 4.72205L12.3185 4.77701L13.527 6.39426C13.5932 6.6171 13.7317 6.80469 13.8417 7.00543C13.8843 7.0825 13.8375 7.20676 14.0002 7.17092C14.0653 7.32386 14.1162 7.49413 14.1777 7.64886C14.7035 8.96739 15.143 10.2333 14.5917 11.6516C14.2007 12.0215 13.963 12.601 13.3454 12.8125L12.9355 12.9063C13.5311 11.7084 12.8864 10.4209 12.5208 9.26192C12.3924 9.41128 12.1771 9.52001 12.1665 9.73987C12.1446 9.75301 12.128 9.78766 12.1073 9.79961C12.0074 9.85697 11.8956 9.80798 11.9299 10.0386C11.9163 10.0481 11.8831 10.029 11.8707 10.0386L11.8116 10.1581C11.7991 10.1742 11.7453 10.1802 11.7246 10.222C11.6903 10.2913 11.7075 10.3504 11.6933 10.397C11.5466 10.3785 11.5803 10.4908 11.5424 10.5703C11.1905 11.3117 11.1029 11.902 11.4567 12.6673C11.4981 12.7575 11.6578 12.8471 11.5164 12.9373C11.4756 12.963 11.2325 12.9206 11.1609 12.9063C11.1952 12.742 11.0775 12.7921 10.984 12.7593C10.7705 12.6858 10.583 12.6087 10.3919 12.4881C10.3552 12.4648 10.3055 12.4522 10.2736 12.4283L10.1553 12.3088C10.1127 12.2718 9.88851 12.0466 9.85953 12.0101L9.80038 11.9504C9.77672 11.9181 9.64421 11.6947 9.62292 11.6516C9.39695 11.1874 9.33011 10.6414 9.38572 10.1276C9.42831 9.73867 9.6732 9.40292 9.74122 9.02295C10.3641 8.28512 11.197 7.23544 11.6341 6.39426C11.8749 5.93065 11.9689 5.82012 12.0482 5.25914C12.0511 5.23942 12.0452 5.21911 12.0482 5.19939C12.076 5.19342 12.105 5.16653 12.1073 5.13965V5.14025Z" fill="#D81F1F"/>
</g>
<defs>
<clipPath id="clip0_165_120">
<rect width="37" height="30" fill="white"/>
</clipPath>
</defs>
</svg>
