<svg width="32" height="30" viewBox="0 0 32 30" fill="none" xmlns="http://www.w3.org/2000/svg">
<g clip-path="url(#clip0_165_124)">
<path d="M14.8747 0.0258589C22.724 -0.399329 29.7965 4.3779 31.582 12.0089C31.8148 13.0043 32.081 14.5777 31.9773 15.5825C31.8518 16.8049 30.2664 16.6661 30.1294 15.7886C30.0431 15.2366 30.0913 14.5219 30.0124 13.9214C28.8646 5.14637 19.9421 -0.0576137 11.4583 2.60516C6.20358 4.25426 2.36226 8.99289 1.92146 14.4363C1.86272 15.1594 2.12678 16.4371 0.987456 16.4934C-0.0947162 16.5466 -0.0179851 15.2643 0.0158824 14.5407C0.387366 6.67183 6.97512 0.454177 14.8747 0.0258589Z" fill="#D81F1F"/>
<path d="M16.7903 26.5135V27.8438L16.8697 27.9221H17.8222C18.0048 27.9221 18.199 28.2946 18.2191 28.4699C18.2784 28.9816 18.3376 29.8779 17.6645 29.9578C16.5956 30.0845 15.2366 29.8811 14.1428 29.9322C14.056 29.8889 13.9423 29.8487 13.8782 29.7757C13.6316 29.496 13.6121 27.9221 14.065 27.9221H15.1234L15.2028 27.8438V26.5135H3.74604C3.72487 26.5135 3.39837 26.405 3.34916 26.383C2.75066 26.1185 2.54269 25.5264 2.50035 24.9244C2.39452 23.4182 2.40087 21.1081 2.50035 19.5983C2.54798 18.8716 2.80516 18.3013 3.55818 18.0848L28.4756 18.0974C28.9678 18.2549 29.3223 18.6363 29.4335 19.1355C29.308 21.1003 29.6166 23.2998 29.4403 25.2369C29.3927 25.7633 28.8074 26.5129 28.2476 26.5129H16.7908L16.7903 26.5135ZM4.0228 19.1695C3.75821 19.2456 3.59311 19.4298 3.55977 19.7042C3.68466 21.3611 3.39837 23.2434 3.55818 24.8727C3.58782 25.1763 3.71852 25.3668 4.0228 25.4581L28.0121 25.4466C28.2317 25.3381 28.3703 25.145 28.4201 24.9098L28.4328 19.8096C28.4069 19.5331 28.2449 19.2686 27.9719 19.1684L4.02333 19.1695H4.0228Z" fill="#D81F1F"/>
<path d="M23.6549 6.33353C23.9761 6.26258 24.2946 6.50621 24.1581 6.83019L18.4403 14.6542C18.0345 15.5431 17.419 16.4426 16.34 16.5485C14.2614 16.7519 13.0559 14.481 14.435 12.8965C15.08 12.1552 15.7161 12.3091 16.5771 12.0869C18.2123 10.7445 19.83 9.37714 21.4752 8.0468C22.052 7.5804 22.6865 7.01174 23.2744 6.58603C23.3744 6.51404 23.5485 6.35753 23.6549 6.33353Z" fill="#D81F1F"/>
<path d="M13.1845 22.5772L12.4543 23.1834V23.5861H11.1964V20.9724H12.4543V22.0951L13.7994 20.9724H15.125L13.9545 21.9386L15.2441 23.5856H13.9545L13.1845 22.5761V22.5772Z" fill="#D81F1F"/>
<path d="M19.5902 21.8025L18.6456 23.5868H17.7529L16.7527 21.8025V23.5868H15.7605V20.973H17.7248L18.3201 22.0295L18.8795 20.973H20.7962V23.5868H19.5896V21.8025H19.5902Z" fill="#D81F1F"/>
</g>
<defs>
<clipPath id="clip0_165_124">
<rect width="32" height="30" fill="white"/>
</clipPath>
</defs>
</svg>
