<svg width="74" height="55" viewBox="0 0 74 55" fill="none" xmlns="http://www.w3.org/2000/svg">
<g clip-path="url(#clip0_143_176)">
<path d="M51.5187 17.7014C52.3506 17.8466 52.9793 18.1133 53.7394 18.5052C56.2762 19.8101 58.4576 21.896 60.7685 23.549C61.2221 23.8735 61.7405 23.7895 62.2291 23.9137C62.3027 23.9321 62.2869 24.0782 62.3263 24.0764C62.4647 24.0703 62.6223 23.9408 62.843 23.9986C63.0269 24.0467 62.8404 24.0423 63.2519 24.086C63.2003 24.3484 63.3789 24.2426 63.5409 24.2732C63.8518 24.3327 64.1653 24.3869 64.4779 24.4359C64.8036 24.6055 65.0471 24.8461 65.266 25.1356C65.8238 26.144 65.7047 27.3151 65.7897 28.4171C65.8019 28.5719 65.8203 28.7179 65.9665 28.8089C66.0287 29.422 65.9403 29.596 66.3168 30.1645C66.407 30.301 66.7914 30.6176 66.8361 30.7147C67.0795 31.2464 66.858 34.039 66.5734 34.6014C66.5156 34.7151 65.7485 35.6291 65.6373 35.7209C65.1793 36.097 64.1819 36.2098 63.6031 36.3314L60.8 36.5946C60.716 36.5107 60.9524 34.8516 60.6258 34.5822C60.6223 34.5533 60.6293 34.5236 60.6258 34.4947C60.5986 34.2638 60.6196 33.7128 60.3631 33.795C60.0846 32.9948 59.7545 32.4411 59.2247 31.7834C58.9585 31.4528 58.8744 31.3575 58.5241 31.0838C57.6038 30.3639 56.5381 29.8471 55.3717 29.6844C55.4207 29.4194 55.2377 29.5165 55.0696 29.5095C53.9242 29.4649 53.1676 29.5558 52.1316 30.0342C50.2008 30.9272 48.579 32.8268 48.3662 35.0195L48.2786 34.974C48.3321 35.5504 48.1657 36.2229 48.3662 36.7687C48.3645 36.7976 48.368 36.8273 48.3662 36.8562L29.8517 36.8614L29.7142 36.5063C29.7702 33.3455 28.5364 31.0278 25.5109 29.8593C24.1895 29.3494 22.967 29.3739 21.6579 29.8593C20.0142 30.468 18.5589 31.7423 17.8049 33.3577C17.2734 34.4956 17.1271 35.609 17.3671 36.8553L13.7768 36.9436C12.4773 36.8334 11.9729 36.0708 11.7627 34.8446C11.9921 34.2594 11.7469 33.5003 11.8704 32.8968C11.9781 32.3677 12.5727 32.003 12.7618 31.5132C12.8442 31.3015 12.979 30.7855 12.9011 30.559C13.8635 27.755 16.0439 27.1165 18.593 26.3609C20.5475 25.8973 22.5169 25.4688 24.4601 24.9615C24.5564 24.9361 24.6422 24.895 24.7228 24.874C24.7823 25.0192 25.0013 24.8907 25.1063 24.8644C25.4233 24.7857 25.7281 24.7219 26.0363 24.6117C27.2719 24.1691 28.4164 22.9123 29.4848 22.1085C31.4699 20.6138 33.9148 18.639 36.2818 17.9647L38.8213 17.5274C39.0095 17.5903 39.2092 17.4548 39.3467 17.4399C42.8582 17.0682 48.0107 17.0901 51.5187 17.7023V17.7014ZM43.1121 19.1008C42.275 18.9005 41.345 19.0667 40.4859 19.0142L40.8353 19.1008C40.3607 19.1183 39.7539 19.1428 39.2591 19.1882C38.6943 19.1699 38.0235 19.1751 37.5078 19.4506C35.2319 19.9789 32.9936 21.9494 31.3123 23.4764C31.2063 23.5726 31.0067 23.612 30.9007 23.7414C30.7685 23.9032 30.6695 24.5146 30.8175 24.6213C31.1468 24.8566 32.6959 24.7 33.2169 24.6991H42.0613L43.1121 19.1016V19.1008ZM45.564 19.1008C45.5526 19.1611 45.43 19.2521 45.4117 19.3422C45.3819 19.4847 45.4073 19.6072 45.3889 19.713C45.113 19.6631 45.24 19.8494 45.212 20.013C45.1078 20.6226 45.0955 21.1334 45.0386 21.7246C44.9756 22.377 44.9116 23.0286 44.8547 23.6828C44.8267 23.9986 44.6542 24.3397 44.7759 24.6983C44.8188 24.8242 44.8915 24.7831 44.9896 24.7892C48.3154 25.0149 51.8917 24.609 55.2447 24.7892C55.4741 24.7918 55.7482 24.7044 55.8971 24.5225C56.3726 23.9426 55.8323 23.1572 55.4592 22.6858C55.1475 22.2922 54.7841 21.9651 54.4084 21.6363C53.3926 20.7459 52.2201 19.8967 50.9057 19.5372C50.9574 19.2757 50.7787 19.3806 50.6167 19.35C48.9258 19.0317 47.1954 18.9923 45.4756 19.0142C45.4668 19.0719 45.5649 19.0938 45.564 19.0999V19.1008Z" fill="#D81F1F"/>
<path d="M30.5391 19.4C29.2282 20.5011 27.6809 21.9547 26.2912 22.8976C25.215 23.6279 23.3962 23.7311 22.0949 24.0415C19.2235 24.7264 14.226 25.7479 12.4274 28.2047C11.733 29.1527 11.7312 29.6425 11.4151 30.6938C11.3853 30.7918 11.472 30.8486 11.282 30.8197L1.03475 20.5886C-0.837461 18.089 1.9043 16.1019 3.52869 14.4191C8.02619 9.76273 12.7645 5.3311 17.2769 0.687813C17.7927 0.296864 18.4232 0.0720908 19.0747 0.0266113L31.2046 2.35044C32.0663 2.60845 32.4008 3.10173 32.5803 3.95009C33.3378 7.5386 33.519 11.4875 34.1802 15.1188C34.0856 16.9774 31.8474 18.3015 30.54 19.4H30.5391ZM26.6266 5.47803C26.2124 5.54887 25.6221 5.99842 25.3848 6.3369C24.1641 8.07736 25.9234 10.3513 27.9077 9.55632C30.2904 8.60038 29.328 5.01624 26.6266 5.47803ZM23.3007 10.8962C23.1335 10.9277 22.9303 11.0773 22.7946 11.184L15.4669 18.5674L15.2182 18.4948C14.3066 17.6246 13.5097 16.645 12.5972 15.7756C12.388 15.5762 11.1953 14.4585 11.0674 14.4174C10.2802 14.1637 8.82043 15.6506 9.08839 16.4823C9.12517 16.5978 10.0622 17.6228 10.2285 17.7925C11.7382 19.3292 13.4038 20.7487 14.8723 22.3378C15.1096 22.553 15.5019 22.5661 15.797 22.4734C16.2077 22.3448 17.903 20.3612 18.3295 19.93C20.5625 17.6718 22.8524 15.4678 25.06 13.1833C25.3288 12.7539 25.3043 12.5256 25.0249 12.111C24.7456 11.6965 23.841 10.7956 23.3016 10.8971L23.3007 10.8962Z" fill="#1F1F1E"/>
<path d="M30.3088 40.9039C33.1408 40.7604 35.7083 41.9193 38.4282 42.1021C40.634 42.2508 43.0614 41.9167 45.2462 42.1143C49.0169 42.4563 48.4845 46.6448 44.9975 46.9168L35.6268 46.915C35.1662 47.0034 35.0664 47.794 35.5568 47.9436C35.7065 47.989 36.1321 48.0275 36.3265 48.0494C38.8073 48.3249 44.0001 48.6109 46.3032 47.9584C47.5501 47.6051 48.46 46.5818 49.6203 45.9363C51.3611 44.969 55.5407 42.7781 57.3648 42.4773C58.582 42.277 60.4822 42.5455 60.3649 44.1565C60.272 45.4238 57.9751 46.8162 56.9751 47.5098C53.7736 49.7295 46.6946 54.1034 43.0272 54.832C39.1707 55.5981 32.5252 53.4203 28.5049 52.6253C25.5793 52.0472 24.461 51.895 21.4986 52.5702C20.4635 52.8064 19.1667 53.325 18.1763 53.4501C16.044 53.7195 16.5519 52.1338 16.403 50.6304C16.2559 49.1409 15.9328 47.4625 15.875 45.9984C15.8452 45.2611 16.0186 44.9008 16.7524 44.6813C17.995 44.3096 19.5213 44.2492 20.8488 43.8749C24.165 42.9391 26.6931 41.0875 30.3088 40.9039Z" fill="white"/>
<path d="M22.8646 31.1074C30.0049 30.2477 30.0268 41.322 23.1046 40.7019C17.4634 40.1972 17.4117 31.7634 22.8646 31.1074ZM23.3944 33.203C20.3786 33.3482 19.9705 37.7737 22.827 38.4428C26.9794 39.4144 27.3437 33.0132 23.3944 33.203Z" fill="#1F1F1E"/>
<path d="M53.7762 31.1074C60.5251 30.2975 61.1512 40.2497 54.8892 40.7018C48.7034 41.1488 48.0229 31.7975 53.7762 31.1074ZM54.3935 33.203C51.1666 33.3604 51.0826 38.2153 54.1904 38.5153C58.0705 38.8905 58.011 33.0263 54.3935 33.203Z" fill="#1F1F1E"/>
<path d="M68.3064 26.9033L73.3618 26.8901C74.1472 27.0135 74.1472 28.244 73.3618 28.3665C71.902 28.5939 69.8993 28.2117 68.3809 28.3665C67.5639 28.237 67.6348 27.0537 68.3073 26.9033H68.3064Z" fill="white"/>
<path d="M69.0971 31.4538C69.5008 31.3812 71.1979 31.3768 71.5744 31.4747C72.3398 31.6733 72.3336 32.8732 71.4326 32.9992C71 33.0595 69.3335 33.0665 68.943 32.966C68.1698 32.7665 68.2512 31.6059 69.0971 31.4538Z" fill="white"/>
<path d="M29.7142 36.5056L29.8517 36.8607L48.3662 36.8555L29.6704 36.9429C29.6319 36.935 29.7116 36.6167 29.7142 36.5056Z" fill="#D81F1F"/>
<path d="M51.5187 17.7014C48.0107 17.0892 42.8582 17.0673 39.3467 17.4391C40.0113 17.2414 40.7233 17.2974 41.4037 17.2633C44.1638 17.1251 47.0439 17.0516 49.8006 17.3621C50.3706 17.4259 50.9679 17.544 51.5187 17.7014Z" fill="#D81F1F"/>
<path d="M17.805 33.3569C17.4092 34.5202 17.2612 35.7175 17.4547 36.9428C16.262 36.8676 14.9538 37.0425 13.7769 36.9428L17.3672 36.8545C17.1272 35.6073 17.2743 34.4948 17.805 33.3569Z" fill="#D81F1F"/>
<path d="M65.9675 28.8091C65.8213 28.7181 65.802 28.5721 65.7906 28.4173C65.7057 27.3153 65.8248 26.1433 65.267 25.1357C66.0087 26.1153 65.8449 27.6065 65.9675 28.8091Z" fill="#D81F1F"/>
<path d="M60.6257 34.5815C60.9524 34.85 60.7168 36.5092 60.8 36.594L63.6031 36.3308C62.9297 36.4724 61.8394 36.7567 61.1835 36.7611C60.9795 36.7628 60.7475 36.6885 60.7133 36.4619C60.7291 35.834 60.6932 35.2025 60.6257 34.5815Z" fill="#D81F1F"/>
<path d="M25.511 29.8586C24.1992 29.5587 22.968 29.5158 21.658 29.8586C22.9671 29.3732 24.1896 29.3488 25.511 29.8586Z" fill="#D81F1F"/>
<path d="M52.1317 30.0336C53.1676 29.5552 53.9242 29.4642 55.0696 29.5088C55.2378 29.5158 55.4208 29.4187 55.3717 29.6837C54.1922 29.5193 53.2535 29.682 52.1317 30.0336Z" fill="#D81F1F"/>
<path d="M11.7628 34.8439C11.6472 34.1687 11.6218 32.9941 11.9896 32.4029C12.5447 31.5117 12.5351 31.6254 12.9011 30.5583C12.9791 30.7849 12.8442 31.3009 12.7619 31.5125C12.5719 32.0015 11.9773 32.367 11.8705 32.8962C11.7479 33.4997 11.9931 34.2588 11.7628 34.8439Z" fill="#D81F1F"/>
<path d="M38.8213 17.5265L36.2819 17.9638C37.0787 17.7373 37.9859 17.4557 38.8213 17.5265Z" fill="#D81F1F"/>
<path d="M48.3662 35.0186C48.3119 35.5749 48.4065 36.2028 48.3662 36.7678C48.1657 36.2221 48.3321 35.5495 48.2787 34.9731L48.3662 35.0186Z" fill="#D81F1F"/>
<path d="M64.4788 24.436C64.1662 24.3879 63.8536 24.3337 63.5418 24.2733C63.3798 24.2419 63.2012 24.3477 63.2529 24.0862C63.6215 24.1255 64.1548 24.2664 64.4788 24.436Z" fill="#D81F1F"/>
<path d="M24.4601 24.9608C22.5169 25.4681 20.5475 25.8966 18.593 26.3602C20.4074 25.8223 22.242 25.4261 24.0765 24.9704C24.1816 24.9442 24.4005 24.8156 24.4601 24.9608Z" fill="#D81F1F"/>
<path d="M26.0363 24.6108C25.7281 24.721 25.4233 24.7849 25.1063 24.8636C25.0012 24.8898 24.7823 25.0184 24.7228 24.8732C25.1527 24.7595 25.5836 24.6143 26.0363 24.6108Z" fill="#D81F1F"/>
<path d="M60.363 33.7942C60.6196 33.712 60.5986 34.263 60.6257 34.4939C60.4961 34.291 60.4427 34.0224 60.363 33.7942Z" fill="#D81F1F"/>
<path d="M58.5242 31.083C58.8744 31.3568 58.9585 31.4521 59.2247 31.7827L58.5242 31.083Z" fill="#1F1F1E"/>
<path d="M43.1122 19.1008L42.0613 24.6983C39.1147 24.7036 36.1636 24.6913 33.2169 24.6983C32.6959 24.6992 31.1468 24.8557 30.8176 24.6205C30.6696 24.5146 30.7685 23.9033 30.9008 23.7406C31.0067 23.6112 31.2064 23.5718 31.3123 23.4756C32.9945 21.9485 35.2319 19.9781 37.5078 19.4498C38.0393 19.3265 38.7364 19.2355 39.2592 19.1874C39.7539 19.1419 40.3608 19.1174 40.8354 19.1C41.5911 19.072 42.3556 19.1209 43.1122 19.1V19.1008Z" fill="white"/>
<path d="M50.9057 19.5381C52.2201 19.8976 53.3926 20.7468 54.4084 21.6372L55.4592 22.6867C55.8323 23.1581 56.3726 23.9435 55.8971 24.5234L55.2447 24.7027L44.7759 24.6983C44.6542 24.3397 44.8267 23.9986 44.8547 23.6829C44.9125 23.0296 44.9756 22.3771 45.0386 21.7246C45.1848 21.0617 45.275 20.3821 45.3889 19.7131C45.4073 19.6072 45.3819 19.4848 45.4117 19.3422C45.43 19.2521 45.5526 19.1603 45.564 19.1008L48.6718 19.1892C49.4477 19.2784 50.1482 19.3309 50.9057 19.5381Z" fill="white"/>
<path d="M55.8972 24.5234C55.7483 24.7054 55.4742 24.7928 55.2448 24.7902C51.8918 24.6091 48.3155 25.015 44.9897 24.7902C44.8907 24.7832 44.818 24.8243 44.776 24.6992L55.2448 24.7036L55.8972 24.5243V24.5234Z" fill="#D81F1F"/>
<path d="M42.0613 24.6983H33.2169C36.1636 24.6913 39.1146 24.7035 42.0613 24.6983Z" fill="#1F1F1E"/>
<path d="M45.5641 19.101C45.565 19.0948 45.4669 19.073 45.4757 19.0152C47.1955 18.9934 48.925 19.0327 50.6168 19.3511C50.7797 19.3817 50.9574 19.2767 50.9058 19.5383C50.1483 19.331 49.4477 19.2785 48.6719 19.1893L45.5641 19.101Z" fill="#D81F1F"/>
<path d="M43.1121 19.1009C42.3555 19.1219 41.5911 19.0729 40.8354 19.1009L40.486 19.0143C41.3459 19.0668 42.2759 18.9006 43.1121 19.1009Z" fill="#D81F1F"/>
<path d="M45.389 19.7131C45.2751 20.3821 45.1849 21.0617 45.0387 21.7247C45.0956 21.1325 45.1079 20.6227 45.2121 20.0131C45.2401 19.8495 45.1131 19.6632 45.389 19.7131Z" fill="#D81F1F"/>
<path d="M39.2592 19.1884C38.7364 19.2365 38.0394 19.3274 37.5078 19.4507C38.0236 19.1752 38.6944 19.17 39.2592 19.1884Z" fill="#D81F1F"/>
<path d="M55.4593 22.6867L54.4084 21.6372C54.7841 21.9661 55.1475 22.2932 55.4593 22.6867Z" fill="#1F1F1E"/>
<path d="M23.3008 10.8962C23.8402 10.7947 24.736 11.6842 25.0241 12.1101C25.3122 12.5361 25.328 12.753 25.0591 13.1824C22.8515 15.4669 20.5625 17.6709 18.3286 19.9291C17.9022 20.3603 16.2069 22.3439 15.7962 22.4725C15.5011 22.5652 15.1088 22.5521 14.8714 22.3369C13.4029 20.7486 11.7374 19.3283 10.2277 17.7916C10.0613 17.6219 9.12522 16.5969 9.08757 16.4814C8.81961 15.6497 10.2794 14.1628 11.0666 14.4165C11.1945 14.4576 12.3871 15.5753 12.5964 15.7747C13.5089 16.6441 14.3058 17.6237 15.2173 18.4939L15.466 18.5665L22.7937 11.1831C22.9295 11.0763 23.1326 10.9268 23.2999 10.8953L23.3008 10.8962Z" fill="white"/>
<path d="M26.6266 5.47812C29.328 5.01633 30.2904 8.60047 27.9077 9.55641C25.9234 10.3523 24.165 8.07745 25.3848 6.33699C25.6221 5.99852 26.2115 5.54897 26.6266 5.47812Z" fill="white"/>
<path d="M23.3944 33.2031C27.3437 33.0133 26.9803 39.4146 22.827 38.4429C19.9696 37.7747 20.3786 33.3483 23.3944 33.2031Z" fill="white"/>
<path d="M54.3936 33.2031C58.0119 33.0265 58.0706 38.8916 54.1904 38.5155C51.0826 38.2146 51.1667 33.3597 54.3936 33.2031Z" fill="white"/>
</g>
<defs>
<clipPath id="clip0_143_176">
<rect width="74" height="55" fill="white"/>
</clipPath>
</defs>
</svg>
