<svg width="65" height="55" viewBox="0 0 65 55" fill="none" xmlns="http://www.w3.org/2000/svg">
<g clip-path="url(#clip0_143_50)">
<path d="M18.85 1.06479C36.2748 -0.0194432 47.0791 18.6518 37.2113 33.1577C37.0314 33.423 36.0782 34.5526 36.1255 34.7326C36.1598 34.8634 37.8975 36.6126 38.0301 36.6376C38.1432 36.659 38.439 36.454 38.6152 36.416C39.5675 36.2091 40.1924 36.2286 40.9815 36.8398L53.0302 48.9027C55.5374 51.7112 50.6638 56.6398 47.7968 54.323L35.4672 41.9846C35.0453 41.3892 34.921 40.7854 35.0277 40.061C35.0703 39.7707 35.4004 39.1836 35.3624 39.0361C35.2929 38.7672 33.8102 37.554 33.5533 37.2145C26.3533 43.2015 16.0395 43.5465 8.45463 38.0252C-6.85236 26.8833 -0.126107 2.24363 18.85 1.06294V1.06479ZM19.7772 4.1255C5.43459 4.68477 -2.001 21.3471 7.09529 32.4306C15.6445 42.8472 32.2617 39.8421 36.7663 27.2413C40.9073 15.656 32.0058 3.6497 19.7772 4.12642V4.1255Z" fill="#D81F1F"/>
<path d="M53.529 11.2681C55.3715 11.116 59.1602 11.0622 60.8719 11.5658C62.8293 12.1427 64.6977 13.9309 64.9425 16.027C64.9926 16.4592 65.0807 17.8746 64.6717 18.0554L48.3967 18.1083C47.3517 18.1741 47.6976 16.2728 47.858 15.6133C48.4931 13.0108 50.9772 11.4786 53.5281 11.2681H53.529Z" fill="#D81F1F"/>
<path d="M53.1581 31.6728C54.8819 31.5123 59.1055 31.4604 60.6865 31.8778C62.7737 32.4287 64.7088 34.3134 64.9407 36.5263C64.9852 36.9493 65.0816 38.1865 64.6718 38.3674L48.3967 38.4203C47.5585 38.4843 47.6586 37.3917 47.7068 36.7944C47.9359 33.9498 50.419 31.9279 53.1572 31.6728H53.1581Z" fill="#D81F1F"/>
<path d="M55.9399 20.4492C61.9883 19.8881 63.4524 28.7539 57.5959 30.2676C50.764 32.0335 48.8529 21.1068 55.9399 20.4492Z" fill="#D81F1F"/>
<path d="M55.5653 0.133536C63.1511 -0.831051 63.1418 10.6976 55.8212 10.0326C50.1344 9.516 49.9489 0.847701 55.5653 0.133536Z" fill="#D81F1F"/>
<path d="M16.5319 22.8607C18.8018 22.6539 23.8822 22.6214 26.0083 23.1584C29.5866 24.0636 32.0085 27.4453 31.6692 31.1385C31.633 31.5355 31.5718 31.7015 31.1759 31.8508C24.1993 32.0205 17.1856 31.8694 10.1941 31.9269C9.55341 31.9 9.29193 31.5522 9.22516 30.9484C8.75041 26.6819 12.4965 23.228 16.5319 22.8598V22.8607Z" fill="#D81F1F"/>
<path d="M20.4245 8.01907C24.9244 7.98847 28.1364 12.5369 26.6834 16.7838C24.9531 21.8396 18.2853 22.9368 15.1225 18.559C11.9596 14.1813 15.0752 8.05432 20.4254 8.01907H20.4245Z" fill="#D81F1F"/>
</g>
<defs>
<clipPath id="clip0_143_50">
<rect width="65" height="55" fill="white"/>
</clipPath>
</defs>
</svg>
