<svg width="90" height="55" viewBox="0 0 90 55" fill="none" xmlns="http://www.w3.org/2000/svg">
<g clip-path="url(#clip0_143_144)">
<path d="M41.3586 0.133015C41.4816 0.328518 41.8069 0.250787 42.0079 0.253142C42.9138 0.263742 43.8257 0.262564 44.7316 0.253142C44.9314 0.250787 45.2578 0.328518 45.3808 0.133015C46.5954 0.164814 47.732 0.389761 48.8803 0.487513C49.2765 0.521667 49.5272 0.594684 49.5698 0.592329C53.404 0.436869 57.9572 4.47177 60.928 6.73184C62.0977 7.6222 63.1786 8.62327 64.625 9.17445C65.1891 9.38997 65.7674 9.46653 66.1944 9.55486C66.1246 9.90818 66.3659 9.76567 66.5847 9.80689C67.1653 9.91877 67.7448 10.0177 68.3232 10.1437C68.4887 10.1791 68.7099 10.1143 68.9393 10.1755C69.1155 10.2226 70.4141 10.815 70.5631 10.9163C71.9894 11.8832 71.4726 16.3033 71.9338 17.9132C72.0532 18.3289 72.2981 18.6269 72.4624 18.9767C72.7463 20.5666 72.5511 22.2155 72.3442 23.8054C72.2271 24.1834 72.2377 24.4461 71.9906 24.8076C71.113 26.0867 69.2681 26.5625 67.804 26.7721C67.4456 26.8239 66.8094 26.9464 66.5492 26.7497C66.2133 25.8358 66.7467 24.6121 66.0761 23.8054C65.4978 21.2179 63.4873 18.8837 60.9883 17.978C60.3249 17.7377 59.6519 17.6388 58.9802 17.4457C59.1115 17.4386 59.3657 17.5269 59.3338 17.3291C58.2682 17.3149 57.3056 17.2737 56.2589 17.5045C55.1614 17.7472 54.0178 18.2924 53.3023 18.9767C51.6761 20.5337 50.3646 21.8598 50.0192 24.2459C49.9163 24.9572 50.0985 25.7993 49.9885 26.4565C49.9624 26.6084 49.9104 26.7073 49.7543 26.7497H23.9133C23.3705 26.6496 23.7052 25.5955 23.6176 25.1574L23.4994 25.2187C23.1209 21.9481 21.4475 19.5408 18.5322 18.0345C17.2207 17.3573 15.915 17.2372 14.4462 17.3208C14.225 17.3338 14.0027 17.2949 13.9199 17.5634C10.4157 18.0887 7.98768 20.8116 7.17875 24.1587C7.11961 24.4025 6.98952 24.6345 6.95759 24.9396C6.91383 25.3647 7.05102 26.4671 6.8275 26.6932C6.49872 27.0241 4.42908 26.8486 3.87678 26.798C3.56929 26.7697 3.56692 26.6614 3.75023 26.9841C3.48059 26.9664 3.0773 26.9099 2.80411 26.8663C2.5522 26.4918 1.81659 26.6296 1.38492 26.3952C0.538144 25.8982 0.542875 25.5272 0.320536 24.6286C0.444715 24.2435 0.202271 23.6523 0.202271 23.392V21.2721C0.202271 21.1378 0.352467 20.3605 0.400956 20.1744C0.471915 19.9012 0.636305 19.6716 0.793598 19.4466C0.954439 19.3041 1.19452 19.3182 1.37073 19.0203C1.62619 18.588 1.76219 17.5316 2.007 16.9463C3.14471 14.2316 5.19898 13.3789 7.77007 12.3802L10.8462 11.5535C10.8308 11.4993 10.7279 11.4557 10.7267 11.438C10.7208 11.3815 10.7303 11.3462 10.787 11.3226L11.6728 11.0847C12.3091 11.2955 13.1736 10.8857 13.8016 10.7314C17.0787 9.92937 19.0219 9.76214 21.781 7.66578C24.6998 5.44811 28.5138 1.65935 32.1765 0.823163C35.0657 0.163634 38.3523 0.163635 41.3575 0.131836L41.3586 0.133015ZM39.8212 3.07734C39.6982 2.88184 39.373 2.95957 39.1719 2.95721C37.9774 2.94308 36.8102 3.04083 35.6169 3.07734C35.3886 3.08441 35.1426 2.95721 35.2077 3.31289C31.0707 3.68152 30.0962 4.80978 27.0757 7.20058C26.5033 7.65282 24.0836 9.304 23.9074 9.78922C23.8518 9.94233 23.8447 10.1013 23.8542 10.2615C23.8743 10.5983 24.1794 10.6643 24.4999 10.7385C28.9124 10.417 33.8914 11.146 38.2364 10.7408C38.4694 10.7196 38.4564 10.7102 38.6374 10.6148C38.7899 10.5347 38.9046 10.4723 38.965 10.2945C39.2642 9.40057 39.3434 7.61396 39.4652 6.61053C39.8413 6.67648 39.6734 6.4221 39.6982 6.1995C39.7715 5.52349 39.8295 4.87691 39.82 4.25507C39.8141 3.86406 39.8236 3.46835 39.82 3.07734H39.8212ZM42.3048 7.08162C42.0221 7.1676 42.0848 7.39372 42.0623 7.60689C41.9878 8.31117 41.8554 9.25454 41.95 9.90818C41.9701 10.0483 41.9866 10.4641 42.1463 10.5018C43.381 10.4982 44.6192 10.49 45.8527 10.497C45.9757 10.6925 46.301 10.6148 46.502 10.6172C48.3233 10.6395 50.2203 10.689 52.0025 10.497C52.0179 10.4959 52.1066 10.3934 52.2852 10.3722C54.3501 10.1249 58.3759 11.312 55.5481 7.64222C54.3205 6.04876 52.1586 4.39522 50.2274 3.7828C50.2983 3.44244 50.0582 3.56728 49.8525 3.51428C49.1488 3.33291 48.205 3.00903 47.5073 3.31171C45.9485 3.16096 44.359 3.0585 42.7932 3.09265L42.3036 7.08044L42.3048 7.08162Z" fill="#D81F1F"/>
<path d="M74.0767 39.3104C68.4757 44.258 62.2112 48.5132 55.5126 51.8568C51.3201 53.9496 48.5645 55.4453 43.6849 54.761C37.1223 53.8389 30.6828 51.2349 24.2149 50.0065C19.5836 49.1268 15.6134 50.7297 11.1406 51.01C7.94507 51.2102 8.59199 49.8134 8.48555 47.4144C8.37911 45.0153 8.14731 42.27 8.23956 39.9947C8.29396 38.645 8.50092 38.1032 9.80775 37.6698C11.7083 37.0409 13.7744 36.7547 15.7565 36.0563C20.9436 34.2285 25.6198 30.7813 31.3699 31.1028C35.2443 31.3195 38.3511 32.827 41.9499 33.7574C45.8894 34.7761 50.2143 34.4558 54.1573 35.1448C56.2506 35.511 57.6828 37.0268 57.0028 39.2079C56.1678 41.8849 53.2431 41.7059 50.9925 41.8201C46.9348 42.0262 42.8807 41.7035 38.8183 41.4739C38.0614 41.6199 38.0271 43.1734 39.0583 43.35C41.3432 43.7398 44.4855 43.6456 46.8568 43.7104C50.6212 43.814 55.5516 44.3852 58.2682 41.1747C58.5308 40.865 58.7176 40.3974 58.9813 40.1183C59.6377 39.4211 64.3506 37.26 65.6397 36.5027C67.7767 35.2496 71.9243 32.0049 74.1796 31.8165C77.0298 31.5774 79.226 33.7998 77.1907 36.346C76.4255 37.3047 75.0099 38.4872 74.0767 39.3104Z" fill="white"/>
<path d="M14.2498 19.4809C20.881 18.6895 24.138 26.6875 19.0632 30.7518C13.8714 34.9104 6.64417 28.7061 9.71789 22.7409C10.5387 21.1474 12.4451 19.6965 14.2498 19.4809ZM14.4804 22.5383C10.8343 23.1519 11.3003 29.6212 15.8405 28.957C19.7977 28.3787 19.282 21.7304 14.4804 22.5383Z" fill="#1F201D"/>
<path d="M62.9503 29.7625C57.7266 36.3024 47.8762 27.9547 53.3602 21.5666C58.5674 15.5013 68.18 23.2143 62.9503 29.7625ZM57.2925 22.5383C53.9539 23.0965 54.0662 28.686 57.7325 28.9922C62.6937 29.4068 62.5459 21.6597 57.2925 22.5383Z" fill="#1F201D"/>
<path d="M69.1155 4.27977L85.7697 4.25269C87.0836 4.40461 87.0446 6.34787 85.7697 6.49508L69.0351 6.43149C68.1931 5.83202 68.2285 4.80975 69.1167 4.27977H69.1155Z" fill="white"/>
<path d="M75.3871 10.4064L88.8446 10.377C90.2815 10.6031 90.3856 12.5546 88.8446 12.7383H75.5929C74.1867 12.5711 74.0768 10.7856 75.386 10.4076L75.3871 10.4064Z" fill="white"/>
<path d="M49.7555 26.7498L23.7962 26.8675C23.2794 26.7721 23.5538 25.6816 23.5005 25.2187L23.6188 25.1575C23.7063 25.5956 23.3704 26.6497 23.9145 26.7498H49.7555Z" fill="#D81F1F"/>
<path d="M3.7502 26.9853C3.56807 26.6614 3.56926 26.7709 3.87675 26.7992C4.43023 26.8498 6.49869 27.0253 6.82747 26.6944C7.05217 26.4683 6.9138 25.3659 6.95756 24.9407C6.98949 24.6345 7.11958 24.4025 7.17872 24.1599C7.04981 24.6781 7.1799 26.6555 6.89488 26.8805C6.67254 27.0548 4.22563 27.0183 3.74902 26.9865L3.7502 26.9853Z" fill="#D81F1F"/>
<path d="M0.32052 24.63C0.0425958 23.5076 -0.0153556 22.2074 0.0863527 21.0403C0.152581 20.2712 0.217629 19.9591 0.793581 19.448C0.635106 19.6729 0.471898 19.9026 0.400939 20.1758C0.35245 20.3619 0.202254 21.1392 0.202254 21.2735V23.3934C0.202254 23.6537 0.444698 24.2449 0.32052 24.63Z" fill="#D81F1F"/>
<path d="M72.3442 23.8055C72.5511 22.2156 72.7463 20.5667 72.4624 18.9768C72.9698 20.0509 72.699 19.8283 72.699 20.8023V22.5689C72.699 22.7644 72.4222 23.5535 72.3442 23.8055Z" fill="#D81F1F"/>
<path d="M53.3035 18.9768C54.0178 18.2926 55.1626 17.7473 56.2601 17.5047C57.3576 17.2621 58.2683 17.3162 59.335 17.3292C59.3658 17.5271 59.1127 17.4387 58.9814 17.4458C58.4989 17.4694 57.9797 17.4022 57.5054 17.4482C55.9905 17.593 54.5346 18.0888 53.3046 18.9768H53.3035Z" fill="#D81F1F"/>
<path d="M45.3796 0.133105C45.2566 0.328608 44.9314 0.250877 44.7303 0.253232C43.8244 0.262654 42.9126 0.263832 42.0067 0.253232C41.8068 0.250877 41.4804 0.328608 41.3574 0.133105C42.6915 0.118972 44.0456 0.0977732 45.3784 0.133105H45.3796Z" fill="#D81F1F"/>
<path d="M18.5334 18.0346C17.0125 17.4834 15.5223 17.3233 13.921 17.5635C14.0038 17.295 14.2261 17.3339 14.4473 17.3209C15.9173 17.2373 17.223 17.3574 18.5334 18.0346Z" fill="#D81F1F"/>
<path d="M66.5492 26.7497C66.1364 26.4376 66.3706 25.6297 66.3103 25.1622C66.2559 24.7347 66.1695 24.2247 66.0761 23.8054C66.7467 24.6122 66.2133 25.8358 66.5492 26.7497Z" fill="#D81F1F"/>
<path d="M66.1944 9.55493C66.7727 9.67388 67.3522 9.77988 67.9329 9.89176C68.1517 9.93416 68.3929 9.79048 68.3232 10.1438C67.746 10.019 67.1665 9.91885 66.5847 9.80696C66.3659 9.76457 66.1246 9.90825 66.1944 9.55493Z" fill="#D81F1F"/>
<path d="M10.7279 11.4392C10.7302 11.4569 10.8331 11.5004 10.8473 11.5546L7.77124 12.3814C7.82682 12.3602 7.9309 12.2295 8.08701 12.1718C8.89358 11.8703 9.88346 11.537 10.7279 11.4392Z" fill="#D81F1F"/>
<path d="M13.8028 10.7327C13.1748 10.8869 12.3103 11.2968 11.674 11.086L13.8028 10.7327Z" fill="#D81F1F"/>
<path d="M2.80407 26.8676C2.20092 26.771 1.90762 26.7027 1.38489 26.3965C1.81656 26.6309 2.55217 26.4931 2.80407 26.8676Z" fill="#D81F1F"/>
<path d="M39.8212 3.07739C39.8247 3.4684 39.8153 3.86412 39.8212 4.25512L39.4664 6.61058C39.3446 7.61519 39.2653 9.4018 38.9661 10.2945C38.907 10.4724 38.7911 10.5348 38.6385 10.6149L24.4999 10.6219L23.8553 10.2615C23.8459 10.1014 23.8518 9.94238 23.9086 9.78928C24.0848 9.30523 26.5057 7.65405 27.0769 7.20063C30.0986 4.80866 31.0719 3.68157 35.2088 3.31294C36.7392 3.17632 38.2861 3.08564 39.8212 3.07739Z" fill="white"/>
<path d="M47.5084 3.31309C48.5113 3.41084 49.2599 3.4768 50.2285 3.78418C52.1598 4.39543 54.3205 6.04896 55.5493 7.6436C58.377 11.3134 54.3501 10.1251 52.2863 10.3736C52.1077 10.3948 52.019 10.4972 52.0037 10.4984H51.6489L51.5897 10.383L51.5306 10.4984C49.6407 10.4984 47.7438 10.509 45.8539 10.4984C44.6204 10.4914 43.3821 10.4996 42.1474 10.5031C41.9878 10.4643 41.9712 10.0497 41.9511 9.90956L42.3059 7.08301L42.7955 3.09521C44.3602 3.06106 45.9497 3.16352 47.5096 3.31427L47.5084 3.31309Z" fill="white"/>
<path d="M38.6385 10.6148C38.4576 10.7102 38.4706 10.7184 38.2376 10.7408C33.8925 11.146 28.9136 10.4169 24.5011 10.7385C24.1806 10.6643 23.8766 10.5995 23.8553 10.2615L24.4999 10.6219L38.6385 10.6148Z" fill="#D81F1F"/>
<path d="M51.5295 10.4971H52.0025C50.2191 10.689 48.3221 10.6396 46.502 10.6172C46.3021 10.6148 45.9769 10.6926 45.8527 10.4971C47.7426 10.5077 49.6396 10.4971 51.5295 10.4971Z" fill="#D81F1F"/>
<path d="M39.8212 3.07753C38.2861 3.08577 36.7392 3.17646 35.2088 3.31308C35.1426 2.9574 35.3898 3.0846 35.618 3.07753C36.8113 3.04102 37.9786 2.94327 39.1731 2.9574C39.3729 2.95975 39.6993 2.88203 39.8223 3.07753H39.8212Z" fill="#D81F1F"/>
<path d="M41.95 9.90834C41.8554 9.2547 41.989 8.31134 42.0623 7.60705C42.0848 7.39388 42.0209 7.16776 42.3048 7.08179L41.95 9.90834Z" fill="#D81F1F"/>
<path d="M39.8212 4.25513C39.8294 4.87697 39.7727 5.52354 39.6994 6.19956C39.6757 6.42097 39.8436 6.67536 39.4664 6.61059L39.8212 4.25513Z" fill="#D81F1F"/>
<path d="M47.5084 3.313C48.2062 3.0115 49.1499 3.33538 49.8536 3.51557C50.0594 3.56857 50.2995 3.44255 50.2285 3.78409C49.2599 3.4767 48.5113 3.41075 47.5084 3.313Z" fill="#D81F1F"/>
<path d="M14.4805 22.5382C19.282 21.7303 19.7989 28.3786 15.8405 28.9568C11.3003 29.6211 10.8343 23.1518 14.4805 22.5382Z" fill="white"/>
<path d="M57.2925 22.5383C62.5459 21.6597 62.6937 29.4068 57.7325 28.9922C54.0662 28.686 53.9539 23.0965 57.2925 22.5383Z" fill="white"/>
<path d="M51.6477 10.497H51.5295L51.5886 10.3816L51.6477 10.497Z" fill="#1667A4"/>
</g>
<defs>
<clipPath id="clip0_143_144">
<rect width="90" height="55" fill="white"/>
</clipPath>
</defs>
</svg>
