<svg width="60" height="55" viewBox="0 0 60 55" fill="none" xmlns="http://www.w3.org/2000/svg">
<g clip-path="url(#clip0_143_70)">
<path d="M36.3014 22.2227C37.8458 23.3037 39.3994 24.7896 41.0284 25.7231C42.5198 26.5773 44.815 26.6664 46.5376 27.002C48.2668 27.3384 50.1079 27.679 51.8098 28.1045C54.2134 28.7048 55.8797 29.489 56.8574 31.9042C57.0281 32.3255 57.1043 32.9613 57.2742 33.3035C57.425 33.6061 57.8509 33.6581 57.9379 34.0448C58.0232 34.4258 58.0042 36.5615 57.9188 36.9597C57.7382 37.8041 56.7041 38.2016 55.9244 38.2733C55.6212 38.3013 53.5249 38.3088 53.3973 38.2345C53.2076 38.1232 53.167 36.8921 53.0957 36.5557C51.5504 29.2441 40.914 29.7751 39.9123 37.0158C39.8584 37.4042 40.0606 38.1859 39.6008 38.2725L18.8517 38.27C18.7307 37.8882 18.816 37.4479 18.758 37.0851C17.5525 29.5129 6.87467 29.0742 5.3501 37.4166C5.30122 37.6862 5.46113 37.9938 5.15207 38.1339C4.62427 38.3731 1.55359 37.4578 0.991818 37.0372C-0.0554966 36.2539 -0.116811 33.7183 0.267646 32.6067C0.454903 32.065 0.873332 32.0914 1.01087 31.4498C1.28347 30.1866 0.836046 27.9824 1.69445 26.9583C3.16433 25.2052 6.18199 26.3745 8.21365 25.2597C8.67848 25.0049 9.49213 24.172 9.9379 24.1654C10.1326 24.1621 11.9546 24.741 12.0168 24.83C12.2256 25.131 11.397 26.264 12.0963 26.3976C15.916 26.5328 19.7498 26.4875 23.5737 26.5279C23.8148 26.4495 23.8165 26.3415 23.8264 26.1123C23.8687 25.1022 23.4826 23.7053 23.4875 22.6474C23.3533 21.1887 24.4031 19.9073 24.853 18.5657C24.9616 18.4345 26.2384 18.4667 26.5143 18.4807C30.8129 18.7001 32.8918 19.838 36.3006 22.2235L36.3014 22.2227ZM33.3136 22.5583C32.6093 22.0883 31.9033 21.6447 31.1096 21.3297C29.3952 20.6486 27.5616 20.4787 25.7247 20.4622C25.9625 22.4363 26.3933 24.3806 26.7405 26.3374L26.9427 26.5485L37.6611 26.6936C38.0024 26.0174 37.2725 25.761 36.9154 25.446C35.7935 24.4582 34.5912 23.4109 33.3127 22.5583H33.3136Z" fill="white"/>
<path d="M53.5994 44.0108C54.3858 44.8922 53.8886 45.6319 53.0103 46.1728C48.7291 48.3778 44.597 50.8854 40.31 53.0763C37.7994 54.3602 36.5176 55.099 33.5522 54.9333C28.6926 54.662 23.5455 52.8314 18.7274 52.6178C15.829 52.4892 12.6233 53.8646 9.75228 54.1647C9.25845 54.2167 8.68093 54.2884 8.51108 53.7137C8.35365 51.5277 7.60959 49.129 7.49773 46.9719C7.47122 46.4573 7.42482 46.1671 7.96919 45.9584C8.82842 45.6303 10.4781 45.5734 11.489 45.3384C14.4412 44.6523 16.5026 42.9652 19.2419 42.0045C23.5198 40.503 27.5798 42.3657 31.895 42.5644C33.5994 42.6428 36.9303 42.162 38.2394 43.1771C39.4102 44.0858 39.2014 45.6212 38.0165 46.4227C37.3835 46.8506 36.54 46.8696 35.7918 46.9298C33.3243 47.1285 30.8253 47.0419 28.3537 47.1961C27.9742 47.2547 27.9568 47.6695 28.1722 47.9177C28.5724 48.3794 30.6008 48.2236 31.2388 48.2458C34.3724 48.358 37.864 49.0003 40.2015 46.4524C43.6947 45.6773 47.4398 43.906 50.9099 43.2563C51.9904 43.0534 52.8463 43.1647 53.6003 44.0099L53.5994 44.0108Z" fill="white"/>
<path d="M48.1624 3.74775C57.2021 2.98831 62.7444 13.0483 57.0422 20.0886C52.9971 25.084 45.1837 24.9718 41.267 19.8775C36.5417 13.7302 40.2819 4.40907 48.1616 3.74775H48.1624ZM44.2018 13.1233V14.3602C44.2018 14.4146 43.4188 14.2208 43.1595 14.5185C43.0253 14.6719 42.7659 15.6795 43.0004 15.6795H44.3261C44.6667 16.2906 44.8042 16.9651 45.153 17.5777C46.521 19.9814 49.6746 21.008 52.2116 19.899C52.3881 19.8214 53.1504 19.4298 53.1504 19.2665V17.6998C53.1504 17.6264 52.9888 17.5579 52.8753 17.5893C52.7303 17.6289 52.0318 18.1756 51.6896 18.3075C50.1601 18.8971 48.4425 18.5136 47.391 17.2471C47.1366 16.9412 46.6992 16.2287 46.6378 15.8502C46.6229 15.7603 46.6942 15.6795 46.7298 15.6795H51.0384C51.2596 15.6795 51.5952 14.3602 51.2041 14.3602H46.5641C46.5367 14.3602 46.4381 14.2514 46.3569 14.2777V13.1233H51.6184C51.8388 13.1233 52.147 11.804 51.8669 11.804H46.8955C46.8798 11.804 46.603 11.7026 46.6005 11.6753C47.1242 9.55533 49.4268 8.35143 51.4933 9.12489C51.7335 9.21477 52.5779 9.78868 52.7336 9.65675C52.8032 8.85937 53.6012 8.40585 52.7121 7.82946C50.1212 6.15143 46.2401 7.57714 44.9608 10.29C44.8423 10.5415 44.5208 11.7223 44.457 11.7677C44.2225 11.9318 43.3385 11.6424 43.1189 11.9202C43.0849 11.9631 42.8977 12.6896 42.8927 12.7753C42.8612 13.341 43.8472 13.0606 44.2035 13.1233H44.2018Z" fill="#1C1C1C"/>
<path d="M13.7933 11.5154C13.7966 11.4692 14.0253 11.2993 13.7527 11.31C13.1959 11.8493 12.5927 12.4966 12.2612 13.2074C11.3987 15.0586 12.0972 16.9849 11.1012 18.8146C10.8692 19.2418 10.1658 20.27 9.63051 20.1999C9.50871 20.1843 9.24854 20.0804 9.19303 19.9682C9.11266 19.805 9.09691 18.8781 9.03311 18.5606C8.85994 17.7064 8.36114 16.7556 7.70491 16.1718C7.632 16.1067 7.14231 15.6952 7.08183 15.762C7.41574 18.0387 6.15134 19.7843 6.79266 22.1097C6.91943 22.569 7.75297 23.9097 6.58137 23.3919C2.56611 21.6157 1.11528 16.232 2.50231 12.3169C3.39054 9.81095 5.51334 8.72249 4.80408 5.61792C4.73117 5.30045 4.13791 4.14768 5.01288 4.4165C5.64011 4.60945 6.84071 5.88426 7.19866 6.44993C8.51774 8.53449 7.85157 9.59738 8.18134 11.6564C8.24431 12.0481 8.32386 12.6203 8.65446 12.8751C8.59397 9.70458 11.9712 7.96635 12.8213 5.18831C13.2373 3.82939 13.2315 2.48531 12.7783 1.14453C12.6399 0.734713 12.0483 -0.165737 13.1321 0.132763C15.4902 0.782538 17.4531 3.7593 17.7596 6.08216C18.0662 8.40503 16.9816 10.4681 17.7671 12.6714L18.5153 14.1945V12.5041C18.5153 11.6069 19.4358 9.99318 20.0473 9.32857C20.4442 8.89731 21.9157 7.73546 22.4593 7.68104C23.2763 7.59858 22.7128 8.38276 22.6184 8.67219C21.6357 11.6861 23.1528 12.6615 23.5472 15.2483C24.1156 18.9771 21.784 22.254 18.4623 23.749C18.067 23.9271 16.7687 24.4334 16.3983 24.4243C15.5937 24.4053 16.4173 23.3746 16.5665 23.0167C17.4423 20.9247 17.0247 18.5639 15.9301 16.6435C15.3783 15.6754 13.7916 13.8424 13.7916 12.7523C13.7916 12.3499 13.7651 11.9112 13.7916 11.5154H13.7933Z" fill="#D81F1F"/>
<path d="M11.455 33.0181C18.2609 32.2455 19.0745 42.3425 12.591 42.8893C6.1074 43.436 5.2258 33.7256 11.455 33.0181ZM11.7019 35.5735C9.15406 35.9396 8.99166 39.8465 11.6191 40.2308C15.4181 40.7857 15.2813 35.059 11.7019 35.5735Z" fill="#1C1C1C"/>
<path d="M45.8407 33.0181C52.7709 32.2356 53.5407 42.3879 46.9767 42.8892C40.4178 43.3898 39.7814 33.7025 45.8407 33.0181ZM46.0032 35.5718C43.6409 35.9668 43.5174 40.0279 46.3984 40.2514C49.8618 40.5202 49.75 34.9452 46.0032 35.5718Z" fill="#1C1C1C"/>
<path d="M33.3136 22.5583C34.5921 23.4109 35.7943 24.4581 36.9162 25.446C37.2733 25.7601 38.0025 26.0174 37.6619 26.6936L26.9435 26.5484L26.7414 26.3373C26.3942 24.3806 25.9633 22.4362 25.7255 20.4622C27.5625 20.4795 29.3961 20.6485 31.1104 21.3296C31.9042 21.6446 32.611 22.0882 33.3144 22.5583H33.3136Z" fill="#1C1C1C"/>
<path d="M44.2018 13.1233C43.8455 13.0606 42.8595 13.341 42.891 12.7753C42.896 12.6895 43.0832 11.9631 43.1172 11.9202C43.3368 11.6423 44.2209 11.9317 44.4553 11.7677C44.5191 11.7231 44.8406 10.5423 44.9591 10.29C46.2384 7.5771 50.1194 6.15139 52.7104 7.82943C53.5994 8.40581 52.8015 8.85933 52.7319 9.65671C52.5762 9.78864 51.7319 9.21473 51.4916 9.12485C49.4251 8.35139 47.1225 9.55529 46.5989 11.6753C46.6013 11.7025 46.8781 11.8039 46.8938 11.8039H51.8653C52.1453 11.8039 51.8371 13.1233 51.6167 13.1233H46.3553V14.2777C46.4365 14.2513 46.5351 14.3602 46.5624 14.3602H51.2024C51.5935 14.3602 51.2579 15.6795 51.0367 15.6795H46.7281C46.6925 15.6795 46.622 15.7611 46.6361 15.8502C46.6983 16.2287 47.1358 16.9411 47.3893 17.247C48.4408 18.5136 50.1584 18.8962 51.6879 18.3075C52.0301 18.1755 52.7286 17.6288 52.8736 17.5892C52.9871 17.5579 53.1487 17.6264 53.1487 17.6997V19.2665C53.1487 19.4305 52.3864 19.8222 52.2099 19.8989C49.6729 21.008 46.5193 19.9806 45.1513 17.5777C44.8025 16.965 44.665 16.2905 44.3244 15.6795H42.9987C42.7634 15.6795 43.0236 14.6719 43.1578 14.5185C43.4171 14.2216 44.2001 14.4146 44.2001 14.3602V13.1233H44.2018Z" fill="white"/>
<path d="M11.7019 35.5735C15.2814 35.059 15.4181 40.7857 11.6191 40.2308C8.99167 39.8474 9.15407 35.9405 11.7019 35.5735Z" fill="#F8F6F1"/>
<path d="M46.0031 35.5719C49.7508 34.9452 49.8626 40.5202 46.3984 40.2514C43.5174 40.028 43.6401 35.9669 46.0031 35.5719Z" fill="#F8F6F1"/>
</g>
<defs>
<clipPath id="clip0_143_70">
<rect width="60" height="55" fill="white"/>
</clipPath>
</defs>
</svg>
