<svg width="58" height="55" viewBox="0 0 58 55" fill="none" xmlns="http://www.w3.org/2000/svg">
<g clip-path="url(#clip0_143_122)">
<path d="M18.869 18.1405C23.4986 17.7153 29.7367 17.5216 33.8676 19.7741C35.9037 20.8845 37.7164 22.321 39.691 23.5673C41.7305 24.855 43.3511 24.7491 45.6373 25.1373C48.4109 25.609 53.4362 26.4 55.5311 28.1257C56.3872 28.8315 56.9179 29.7111 57.181 30.7888C57.233 31.0022 57.2339 31.5935 57.3265 31.7201C57.4234 31.8526 57.9368 31.8724 57.9991 32.2563C57.8242 32.87 57.9333 33.5921 57.9125 34.2359C57.8918 34.8798 57.9454 36.0305 57.439 36.4764C57.375 36.5332 56.8876 36.7785 56.7872 36.8181L52.5454 36.9903C52.5004 36.9722 52.419 37.0453 52.3731 36.9291C52.2078 36.5074 52.3272 35.8662 52.2744 35.4091C51.3568 27.4294 40.5255 27.7728 39.5283 34.9142C39.4443 35.5141 39.6408 36.6503 39.214 36.9903L23.1991 37.1624C21.9681 37.177 20.5978 37.3655 19.3425 37.2528C19.1659 37.2373 19.0196 37.2416 18.8734 37.1168C18.6223 36.9025 18.6665 35.5133 18.6007 35.064C18.1696 32.1444 15.9959 29.7284 12.9444 29.4985C9.16571 29.2145 6.39643 31.5918 5.80864 35.2335C5.76795 35.4866 5.84499 36.5384 5.57231 36.6348C5.31694 36.7243 2.62556 36.1915 2.17974 36.071C0.28998 35.5597 0.142817 34.5544 0.0865479 32.7727C0.231981 32.3673 0.231981 31.7089 0.0865479 31.3095C0.151473 30.7302 0.800727 30.2439 0.966936 29.6457C1.263 28.5776 1.02667 27.2968 1.22144 26.1977C1.53568 24.4246 3.05407 24.4814 4.49888 24.2051C4.96288 24.1165 5.44246 24.0407 5.97311 23.8643C9.03067 22.8478 11.4909 19.7672 14.564 18.8067C15.5682 18.4934 16.6183 18.3514 17.6597 18.2266L18.2215 18.3118L18.8716 18.1405H18.869ZM22.072 25.0254L21.3751 20.5118C21.1665 19.8344 20.7475 19.8421 20.1251 19.8628C17.4762 19.9506 15.5942 20.5341 13.6308 22.2676C13.23 22.6214 12.1358 23.6276 12.1202 24.1311C12.0908 25.0667 13.2171 24.818 13.804 24.855C13.9745 24.8662 14.1364 24.9367 14.3208 24.9436C16.8944 25.0452 19.4966 24.9221 22.072 25.0254ZM24.4959 24.4237C24.3652 24.5632 24.6145 25.1683 24.7305 25.1992L28.9974 25.1123C29.0259 25.1123 29.0554 25.1123 29.0839 25.1123C29.0355 25.3723 29.2164 25.2793 29.3826 25.2845C30.8551 25.3335 32.4116 25.3043 33.8893 25.2862C34.0356 25.2845 34.2745 25.3413 34.3645 25.1984C35.1627 25.207 35.9479 25.2604 36.7451 25.2845C37.3745 25.1691 36.1573 24.1629 35.9176 23.9581C34.6009 22.8366 31.9433 21.091 30.3149 20.5755C28.1992 19.9058 25.7502 19.8447 23.5445 19.8628C24.0293 21.3157 24.1011 22.9691 24.4968 24.4237H24.4959Z" fill="#D81F1F"/>
<path d="M39.6815 43.0653C39.9109 43.3468 40.1325 43.568 40.213 43.957C40.6156 45.8945 38.8782 46.5246 37.268 46.6339C34.2027 46.8422 30.7616 46.3533 27.7378 46.6261C26.8748 46.7044 26.8929 47.4584 27.6599 47.6581C29.5644 47.7063 31.4672 47.7149 33.3716 47.7459C36.2907 47.7924 40.0001 48.3674 41.8327 45.4925C43.7484 44.7188 45.6988 44.0224 47.6059 43.228C49.2697 42.5343 53.0735 40.0933 54.4836 41.9903C55.3562 43.1652 54.4187 44.2316 53.4881 44.9451C51.5204 46.454 48.8715 48.1083 46.7359 49.4209C43.7632 51.2482 38.4514 54.3235 35.0779 54.8718C31.0672 55.5234 23.3506 52.9645 19.1296 52.096C15.1674 51.2809 11.258 52.9817 7.31232 53.344C6.15145 53.2666 6.03286 52.6796 5.9662 51.6699C5.87444 50.2695 5.9359 48.771 5.88656 47.3594C5.84327 46.1157 5.21913 44.5337 6.83187 44.0887C8.64805 43.5869 10.524 43.4948 12.4224 42.8476C15.151 41.918 17.0113 40.2163 20.0386 39.9194C23.3913 39.5897 25.0326 40.3033 28.0633 41.2337C31.0863 42.1624 33.6841 41.8353 36.7486 41.98C38.0333 42.0411 38.8375 42.0316 39.6815 43.067V43.0653Z" fill="white"/>
<path d="M45.3413 30.9902C50.383 30.4815 52.7921 36.7829 48.9961 39.8746C46.3368 42.0401 42.417 40.8377 41.2155 37.7107C40.0538 34.6887 42.089 31.319 45.3413 30.9902ZM45.3361 33.3099C42.54 33.7454 42.5062 38.2065 45.4244 38.6033C49.6393 39.1765 49.5779 32.6497 45.3361 33.3099Z" fill="#1B1B19"/>
<path d="M11.5783 30.9885C14.3035 30.6795 16.6555 32.3786 17.116 35.0752C17.825 39.2282 13.4846 42.4438 9.75351 40.2438C5.6433 37.8209 6.91583 31.517 11.5783 30.9885ZM11.6632 33.3116C8.43942 33.7738 8.99518 39.0965 12.657 38.6033C16.0547 38.1463 15.5734 32.7504 11.6632 33.3116Z" fill="#1B1B19"/>
<path d="M43.2801 0.0646212C43.5355 1.3118 43.6532 2.64592 43.9977 3.87072C44.5803 5.93903 45.9187 6.46407 47.8682 6.99428C48.0906 7.05453 49.3156 7.24647 49.3407 7.33857C49.3926 7.5262 49.2402 7.44874 49.1381 7.47714C47.7253 7.8791 45.9602 8.08137 44.8911 9.19686C43.7398 10.3984 43.8142 12.9091 43.3225 14.4386C43.1502 14.449 43.1269 14.282 43.081 14.1624C42.2768 12.1018 42.9286 9.60828 40.3948 8.39811C39.8884 8.15625 37.1814 7.49952 37.133 7.33598C37.0758 7.14318 37.2464 7.22839 37.3442 7.20515C38.8271 6.86173 40.6026 6.68011 41.6327 5.44154C42.7555 4.09193 42.5235 1.78004 43.0966 0.183401C43.1407 0.0611788 43.0706 0.0388001 43.2784 0.063761L43.2801 0.0646212Z" fill="white"/>
<path d="M51.072 11.9425C51.2841 12.8531 51.3049 14.4695 51.9386 15.1702C52.3455 15.6195 53.2665 15.9517 53.8413 16.1187C54.1426 16.2056 54.6144 16.1617 54.7944 16.4182C53.8786 16.6093 52.5125 16.9691 51.9386 17.754C51.3638 18.5399 51.3664 19.9747 51.0712 20.8948C50.9171 20.869 50.9214 20.7201 50.8859 20.6065C50.6037 19.7113 50.6306 18.36 49.9934 17.6206C49.4056 16.9389 48.1227 16.7539 47.2925 16.5155C47.1774 16.4828 47.0527 16.5731 47.09 16.3769C47.9149 16.1617 49.339 15.8837 49.9467 15.2562C50.5275 14.6572 50.6487 12.909 50.8972 12.069C50.9344 11.9433 50.847 11.9192 51.072 11.9425Z" fill="white"/>
<path d="M39.2123 36.9905C39.0123 37.1497 39.0089 37.1445 38.7397 37.1669C34.6572 37.506 30.0994 36.9044 25.9675 37.1626H25.7078C25.6213 37.1626 25.5347 37.1626 25.4481 37.1626H25.3616C24.6413 37.1678 23.9176 37.154 23.1974 37.1626L39.2123 36.9905Z" fill="#D81F1F"/>
<path d="M56.7854 36.8181C55.8791 37.1676 53.8499 37.1538 52.8362 37.0824C52.6666 37.0703 52.657 37.035 52.5436 36.9903L56.7854 36.8181Z" fill="#D81F1F"/>
<path d="M57.9108 34.236C57.9316 33.5922 57.8225 32.87 57.9974 32.2563C58.0597 32.6394 58.0035 33.3374 57.9991 33.7635C57.9974 33.9089 58.0545 34.1465 57.9108 34.236Z" fill="#1B1B19"/>
<path d="M18.869 18.1406L18.2189 18.3119L17.6571 18.2267C18.0761 18.1768 18.4674 18.1776 18.869 18.1406Z" fill="#D81F1F"/>
<path d="M0.0839624 32.7728C0.0701117 32.3381 0.0372161 31.7253 0.0839624 31.3096C0.229395 31.7089 0.229395 32.3674 0.0839624 32.7728Z" fill="#D81F1F"/>
<path d="M25.9675 37.1626C25.8524 37.3356 25.7338 37.1626 25.7078 37.1626H25.9675Z" fill="#0F639A"/>
<path d="M24.4959 24.4239C24.1003 22.9693 24.0284 21.3158 23.5436 19.8629C25.7494 19.8448 28.1984 19.906 30.3141 20.5756C31.9424 21.0912 34.6 22.8367 35.9167 23.9582C36.1573 24.1631 37.3745 25.1693 36.7443 25.2846C35.947 25.2614 35.1618 25.2071 34.3637 25.1985C32.6003 25.1796 30.8413 25.1409 29.0831 25.1125C29.0545 25.1125 29.0251 25.1125 28.9965 25.1125C27.6287 25.0901 26.2558 25.1314 24.8872 25.1099C24.5617 25.0574 24.5643 24.6769 24.495 24.4239H24.4959Z" fill="white"/>
<path d="M22.072 25.0255C19.4966 24.9222 16.8944 25.0444 14.3208 24.9437C14.1364 24.9369 13.9745 24.8654 13.804 24.8551C13.2171 24.8181 12.0908 25.0668 12.1203 24.1312C12.1358 23.6286 13.23 22.6215 13.6309 22.2678C15.5942 20.5351 17.477 19.9507 20.1251 19.8629C20.7484 19.8423 21.1665 19.8337 21.3752 20.5119L22.072 25.0255Z" fill="white"/>
<path d="M34.3646 25.1986C34.2745 25.3415 34.0365 25.2847 33.8893 25.2864C32.4116 25.3045 30.8551 25.3338 29.3826 25.2847C29.2155 25.2795 29.0355 25.3725 29.084 25.1125C30.8421 25.141 32.6012 25.1797 34.3646 25.1986Z" fill="#D81F1F"/>
<path d="M28.9974 25.1124L24.7305 25.1993C24.6136 25.1683 24.3643 24.5633 24.4959 24.4238C24.5652 24.6777 24.5626 25.0573 24.8881 25.1098C26.2575 25.1313 27.6296 25.0892 28.9974 25.1124Z" fill="#D81F1F"/>
<path d="M45.3361 33.3099C49.5779 32.6497 49.6393 39.1766 45.4244 38.6033C42.5062 38.2065 42.5399 33.7446 45.3361 33.3099Z" fill="white"/>
<path d="M11.6632 33.3116C15.5743 32.7504 16.0547 38.1463 12.657 38.6033C8.99517 39.0965 8.43941 33.7738 11.6632 33.3116Z" fill="white"/>
</g>
<defs>
<clipPath id="clip0_143_122">
<rect width="58" height="55" fill="white"/>
</clipPath>
</defs>
</svg>
