<svg width="69" height="55" viewBox="0 0 69 55" fill="none" xmlns="http://www.w3.org/2000/svg">
<g clip-path="url(#clip0_143_111)">
<path d="M43.2466 42.2879C42.027 44.1581 38.2778 43.8056 36.3416 43.7128C34.3868 43.619 32.2922 43.4827 30.3423 43.3129C28.4918 43.1519 26.4247 42.6868 24.6353 42.6177C23.4236 42.5713 23.2395 43.5894 24.0909 43.9557C24.8036 44.2618 27.4563 44.484 28.3845 44.5857C30.9279 44.8651 33.4921 44.9974 36.0493 45.0922C39.014 45.2028 44.0941 45.6323 45.0104 41.8357C45.1217 41.3765 45.1059 40.0208 45.2979 39.8529C45.5036 39.6722 46.1719 39.4214 46.4653 39.2466C48.675 37.9254 53.821 34.264 55.9776 33.7812C58.7878 33.1512 61.2673 35.7235 59.216 38.116C55.766 42.1398 48.805 47.8353 44.0094 50.1143C41.2199 51.4404 37.7994 53.0746 34.9449 54.1539C32.0392 55.2519 30.6267 55.2351 27.6787 54.2813C23.3212 52.8712 18.8613 50.8766 14.4959 49.3372C12.7931 48.7368 10.4681 47.7504 8.68553 47.7524C6.27103 47.7553 3.81715 48.1592 1.40362 48.254C0.742167 48.1938 0.23525 47.7504 0.0807136 47.1105L0.0718536 37.6351C0.198829 36.7909 0.72445 36.6299 1.4489 36.4492C3.73151 35.8785 5.96491 35.9525 8.14712 34.8743C12.2271 32.8599 14.1356 31.3817 19.0936 32.2823C23.2553 33.0386 26.1915 35.9219 30.0923 36.7514C33.0737 37.3853 36.1723 37.3962 39.1883 37.7971C40.0161 37.9077 41.1697 38.0202 41.9345 38.3007C43.5684 38.8981 44.2072 40.8157 43.2466 42.2879Z" fill="white"/>
<path d="M19.445 0.479902C19.4893 0.50755 19.5031 0.651716 19.5631 0.706025C19.6606 0.794894 19.8092 0.827479 19.8555 0.93116C20.07 1.41401 20.1271 3.70585 20.4146 3.92308L22.8596 4.86904C23.4797 4.61033 24.9158 3.09956 25.5034 3.1519C25.6668 3.16671 25.9247 3.36123 26.0615 3.46886C26.3145 3.66734 28.0223 5.35091 28.1315 5.53951C28.7034 6.5299 26.7771 7.80863 26.47 8.68942C26.9189 9.40629 27.2378 10.1962 27.4543 11.0099C28.2959 11.2182 29.4151 11.1817 30.2163 11.4473C30.5933 11.5717 30.7419 11.7702 30.7862 12.1593C30.8561 12.7606 30.8679 14.6407 30.7783 15.2163C30.7567 15.3526 30.7134 15.4543 30.6336 15.5649C30.2882 16.0468 28.0991 16.1129 27.4474 16.269C27.2791 17.1349 26.8815 17.9209 26.4513 18.6793L28.1699 20.904C28.3117 21.372 28.3697 21.5033 28.0784 21.8894C27.8983 22.1274 26.0901 23.965 25.9168 24.0647C24.9158 24.6424 23.6913 22.7139 22.7858 22.4927L20.3998 23.4673C19.9628 24.356 20.3565 26.6814 19.1212 26.8256C18.63 26.8829 16.7067 26.9056 16.2667 26.8216C16.0767 26.7851 15.7224 26.4395 15.6495 26.2558C15.3552 25.5074 15.3306 24.1872 15.2273 23.3716C14.305 23.2698 13.4959 22.7495 12.6257 22.476C11.4849 23.0111 10.5439 24.8695 9.22494 23.8129C8.89815 23.5513 7.55162 22.238 7.35475 21.9368C6.69035 20.9178 8.35383 19.7299 8.87551 18.9182C9.14718 18.4956 8.70326 18.1678 8.52017 17.7076C8.33709 17.2475 8.20421 16.7785 8.04475 16.3084C7.00729 15.7861 4.76898 16.424 4.59967 14.926C4.54948 14.4777 4.54652 12.1079 4.72862 11.8462C4.9304 11.5559 5.93932 11.2962 6.29958 11.4009L8.09397 10.9279C8.00341 10.3394 8.97099 8.9817 8.9326 8.60944C8.89618 8.25989 7.49256 6.92488 7.27207 6.41832C7.09096 6.0036 7.09785 5.81599 7.35475 5.4457C7.51716 5.21069 9.05268 3.66438 9.27317 3.51922C10.4878 2.72631 11.6808 4.52541 12.6917 4.88681L15.18 3.81743C15.3838 3.1598 15.3857 0.794895 16.0167 0.509527C16.1958 0.428557 19.2944 0.390048 19.4401 0.478917L19.445 0.479902ZM16.9833 8.28753C15.1239 8.51267 13.2035 10.1498 12.6444 11.9331C11.0361 17.0619 17.0197 21.138 21.14 17.6909C25.3469 14.1726 22.2513 7.64768 16.9833 8.28753Z" fill="#D81F1F"/>
<path d="M67.4625 10.5943C66.2498 12.5958 64.1247 14.1135 61.7397 14.2823C61.0576 14.3307 59.7209 13.9792 59.3006 14.1066C59.0477 14.1836 58.1342 15.3093 57.8055 15.568C57.6627 15.6805 57.4639 15.6875 57.3261 15.7783C57.0239 15.9778 56.8359 16.4725 56.4205 16.1644L52.4341 12.1653C52.2776 11.9816 52.3219 11.8513 52.4341 11.6607C52.754 11.1186 54.2885 10.0907 54.4618 9.54859C54.6232 9.045 54.2226 7.85218 54.2068 7.22714C54.1005 3.17373 57.7326 -0.217119 61.7397 0.0652872C62.097 0.0909604 63.5696 0.281536 63.5656 0.705145C63.5627 1.01816 59.8036 4.40308 59.404 5.02615C59.3095 5.18611 59.3242 5.34213 59.3489 5.51789C59.3981 5.8625 59.8932 7.74455 60.032 7.99931C60.1038 8.12965 60.2948 8.3143 60.4188 8.40119C60.7515 8.63324 62.5055 9.16152 62.9475 9.2257C63.1266 9.25137 63.2949 9.27803 63.4692 9.20397L67.4448 5.29276C67.999 4.92839 68.0767 5.64823 68.1614 6.06493C68.4567 7.51547 68.2362 9.31654 67.4615 10.5933L67.4625 10.5943Z" fill="#D81F1F"/>
<path d="M38.0051 31.0352C36.8062 29.8345 36.6251 27.8221 37.6331 26.4358L47.9575 15.9561L48.1592 15.8594C49.7066 17.1924 51.1033 18.7763 52.5896 20.21C52.7786 20.6158 52.3278 20.7985 52.127 21.1273C51.9262 21.4561 51.876 21.7761 51.7569 22.1385C48.6297 24.848 45.9012 28.6684 42.7475 31.2692C41.3537 32.4186 39.2837 32.3149 38.0061 31.0342L38.0051 31.0352ZM40.5072 27.2385C38.9018 27.4587 39.0869 30.0419 40.8675 29.7802C42.3666 29.56 42.1835 27.0075 40.5072 27.2385Z" fill="#D81F1F"/>
<path d="M59.9887 28.3354C59.1717 27.4428 58.2701 26.5748 57.457 25.6921C56.9786 25.1727 55.8821 23.734 55.388 23.423C54.7905 23.0458 54.2934 23.4871 53.6901 23.3479C53.0867 23.2087 52.7875 22.4197 53.2265 21.9369L58.0437 16.9938C58.5142 16.6136 59.3233 16.9454 59.5497 17.4697C59.8105 18.074 59.089 18.3999 59.6697 19.2254C60.2456 20.044 62.0527 21.3711 62.8766 22.1304C63.4219 22.633 63.9849 23.3054 64.5421 23.8169C65.6681 24.8518 67.1771 25.7948 68.1417 27.0192C70.6989 30.2649 66.4654 34.4022 63.3156 32.0581C62.1846 31.2158 60.9513 29.389 59.9877 28.3354H59.9887Z" fill="#D81F1F"/>
<path d="M55.0563 18.2914C54.7561 18.6419 54.0247 19.5948 53.568 19.3272L42.5979 8.21071C41.839 7.49186 40.7267 7.6064 39.9855 6.88162C39.4993 6.40568 37.3919 3.63988 37.0995 3.06223C37.0533 2.9704 36.9844 2.89042 36.9883 2.77884C36.9942 2.57148 39.2837 0.358643 39.4963 0.358643C40.1598 0.758553 40.6736 1.36385 41.271 1.84078C41.8685 2.31771 43.4966 3.34464 43.7564 3.8897C44.0163 4.43477 44.0832 5.18916 44.349 5.76385C47.9141 9.70469 51.8425 13.3246 55.5356 17.1529C55.9107 17.5755 55.325 17.9784 55.0573 18.2914H55.0563Z" fill="#D81F1F"/>
<path d="M16.9832 8.28758C22.2513 7.64871 25.3469 14.1727 21.14 17.6909C17.0187 21.138 11.0361 17.0619 12.6444 11.9332C13.2035 10.1499 15.1239 8.51272 16.9832 8.28758Z" fill="white"/>
<path d="M40.5072 27.2385C42.1835 27.0085 42.3666 29.561 40.8675 29.7802C39.0869 30.0419 38.9018 27.4587 40.5072 27.2385Z" fill="white"/>
</g>
<defs>
<clipPath id="clip0_143_111">
<rect width="69" height="55" fill="white"/>
</clipPath>
</defs>
</svg>
