<svg width="58" height="55" viewBox="0 0 58 55" fill="none" xmlns="http://www.w3.org/2000/svg">
<g clip-path="url(#clip0_143_83)">
<path d="M31.4053 22.0395H41.2594C41.5578 22.1086 41.6306 22.7369 41.3921 22.9553L33.8467 28.6727C33.459 29.0154 33.6644 29.4309 33.7767 29.8473C34.5291 32.6452 35.8406 35.4837 36.5451 38.3258C36.6105 38.6676 36.3885 38.9431 36.0496 38.9891L27.7666 33.2726L27.3209 33.3841L19.9284 38.7947C19.3547 39.1273 18.7542 38.8509 18.9209 38.1581L21.7878 29.4143C21.902 29.1287 21.7786 28.8717 21.5714 28.6736C19.3915 26.7647 16.4555 25.1396 14.3668 23.1939C14.0454 22.8945 13.4661 22.4615 14.0914 22.1335L23.9456 22.0414L24.2707 21.6747C25.3252 18.9579 26.0868 15.879 27.2426 13.2248C27.4351 12.7817 27.7648 12.4997 28.1672 12.8894L31.4053 22.0414V22.0395Z" fill="white"/>
<path d="M47.4104 35.2415C54.4621 34.6113 59.8911 41.8396 56.7654 48.377C53.4555 55.3003 43.4301 55.4588 40.0134 48.5741C37.1243 42.7526 40.961 35.8173 47.4104 35.2415ZM42.3645 43.9659H43.746C43.5701 44.3013 43.6576 44.6348 43.746 44.9784C43.5295 45.0263 42.8775 44.9075 42.7458 44.9922C42.6841 45.0318 42.3968 46.0084 42.4566 46.177H43.9302C44.5288 49.5166 48.0394 51.2624 51.1329 49.8354C51.283 49.7663 51.8144 49.4917 51.901 49.406C52.1791 49.1333 51.9479 48.0085 52.1257 47.5589C51.5086 47.9606 51.0215 48.4221 50.2847 48.6184C48.2328 49.1656 46.2473 48.271 45.68 46.177H49.9163L50.2847 44.9793H45.4958C45.4801 44.6394 45.563 44.281 45.4037 43.9659H50.6531L51.0215 42.6761H45.68C46.2509 40.3831 48.7808 39.436 50.8566 40.3997C51.0058 40.4688 51.7094 40.9699 51.7582 40.9257L52.2067 39.6019C49.4181 37.482 45.7021 38.4899 44.2202 41.6296C44.1364 41.8074 43.8878 42.6043 43.8445 42.6356C43.6428 42.7793 42.9245 42.5831 42.7486 42.6918C42.6721 42.7388 42.2863 43.8867 42.3655 43.9659H42.3645Z" fill="#1E1F1D"/>
<path d="M5.44924 26.8145C5.65461 26.9417 7.58676 26.7445 8.05645 26.833C9.41024 27.0882 6.5507 28.8745 6.25691 29.1039C6.19613 29.4015 6.89697 31.1113 6.96328 31.6199C7.17141 33.222 4.57434 30.6222 4.30174 30.6249C3.821 30.6304 2.60166 31.9239 2.11632 32.1248C1.74334 32.2786 1.45508 32.0925 1.49284 31.6908C1.55639 31.0091 2.23605 29.945 2.28946 29.1887C2.24618 29.0099 0.386778 27.8399 0.179565 27.5285C-0.0451472 27.1904 0.103126 26.879 0.503739 26.8265C0.904352 26.774 3.03359 26.9168 3.12845 26.8265L3.86244 24.3124C3.96006 24.1557 4.36436 24.1097 4.51632 24.2018C4.68117 24.3022 5.19414 26.4746 5.45016 26.8145H5.44924ZM6.35545 27.7515H5.02008C4.60749 27.7515 4.4233 26.2765 4.28332 26.2765C4.16636 26.4958 3.77587 27.7515 3.54656 27.7515H2.21118C2.43313 28.1734 3.20396 28.4479 3.30066 28.9252C3.3992 29.4107 2.94333 29.8428 2.94886 30.331C3.34026 30.1845 3.89007 29.4779 4.27687 29.5028C4.66367 29.5277 5.1398 30.2665 5.57173 30.332C5.50726 29.8179 5.11033 29.2734 5.26965 28.7382C5.38017 28.3669 6.19153 28.1393 6.35545 27.7515Z" fill="#D81F1F"/>
<path d="M41.3671 6.27009C41.7539 6.52529 43.5876 6.27101 44.1604 6.37788C44.4229 6.42671 44.4422 6.63399 44.3731 6.86523C44.2737 7.19781 42.4299 8.28215 42.0975 8.64974C42.1601 9.2716 43.1206 11.0312 42.8711 11.537C42.767 11.748 42.5681 11.7452 42.3691 11.6743C41.7899 11.467 40.844 10.3384 40.1856 10.0786C39.9443 10.0584 38.4266 11.4707 38.0103 11.6531C37.7672 11.759 37.5424 11.6798 37.4365 11.4421C37.2597 11.0487 38.2083 9.22277 38.2074 8.65251L36.0966 6.98408C35.9897 6.86339 35.9603 6.59346 36.0505 6.46448C36.1739 6.28852 38.6163 6.40644 39.0436 6.37327C39.1744 6.26549 39.6266 4.11616 39.8577 3.73199C40.0382 3.43073 40.3486 3.42428 40.565 3.7108L41.3681 6.27101L41.3671 6.27009ZM39.4635 7.20703C39.1486 7.29547 38.4919 7.14254 38.1282 7.20703C38.2746 7.57185 39.1191 7.87495 39.214 8.19279C39.3982 8.81004 38.888 9.20066 38.8659 9.78659C39.2683 9.66314 39.7343 8.9943 40.1239 8.9814C40.4701 8.97034 41.1305 9.65669 41.4887 9.78751C41.4196 9.32043 41.0771 8.87637 41.1848 8.37981C41.2806 7.93667 42.0293 7.59396 42.2724 7.20795C40.7556 7.61884 40.5751 6.85234 40.2012 5.63994C40.0668 5.63994 39.9056 7.08358 39.4645 7.20703H39.4635Z" fill="#D81F1F"/>
<path d="M19.4329 6.37791C19.4495 6.38896 19.5204 6.69667 19.5093 6.77129C19.4513 7.16652 17.5937 8.23796 17.2447 8.63134C17.2152 8.82389 17.9594 10.5319 18.0294 10.9603C18.3554 12.9549 15.7261 10.1127 15.3199 10.0787C14.8143 10.2003 13.2837 11.7213 12.9393 11.7222C12.8223 11.7222 12.6179 11.5416 12.5727 11.4421C12.3526 10.9566 13.3509 9.37941 13.3417 8.74558C13.0921 8.22137 11.2668 7.25404 11.1582 6.86434C10.9491 6.11166 12.7376 6.41015 13.2211 6.38159C13.536 6.36317 13.8473 6.24985 14.1697 6.27104C14.4266 6.11903 14.7775 3.99089 15.0068 3.67766C15.1781 3.44458 15.5179 3.45932 15.6782 3.73201C15.8578 4.03787 16.3836 6.37791 16.624 6.37791C17.0283 6.45898 19.2699 6.27104 19.4329 6.37791ZM17.3138 7.3001C16.8662 7.31484 16.3984 7.26786 15.971 7.12322L15.2886 5.64273C15.04 7.06794 14.8245 7.49357 13.2616 7.30102C13.4587 7.69441 14.2673 7.97724 14.3511 8.38168C14.4515 8.86627 13.9919 9.29926 13.9993 9.78754C14.0923 9.88888 15.0455 9.00538 15.2545 8.98142C15.6404 8.93812 16.5365 9.91836 16.67 9.78662C16.5512 9.23478 15.9526 8.58528 16.3928 8.08134L17.3147 7.3001H17.3138Z" fill="#D81F1F"/>
<path d="M8.11996 15.0222C8.52978 15.118 10.9823 14.8859 11.055 15.1917C11.0771 15.2857 11.0753 15.5851 11.0311 15.6634L8.78028 17.3853C8.87145 17.8772 9.74911 19.8478 9.53453 20.1979C9.17168 20.7884 7.78749 19.3568 7.39609 19.109C7.08296 18.9109 6.98166 18.7165 6.59763 18.9192C6.21359 19.1219 4.90768 20.3923 4.57338 20.3619C4.44352 20.3499 4.19763 20.1703 4.15895 20.0395C3.99963 19.5014 5.01451 17.8017 4.86808 17.3134C4.77875 17.0186 2.8337 15.8873 2.70753 15.5013C2.60715 15.1963 2.79594 15.071 3.08236 15.0333C3.87806 14.9282 4.88005 15.13 5.6997 15.0259C5.81206 14.9531 6.30016 12.8498 6.51934 12.4832C6.6667 12.2372 6.90706 12.1727 7.14743 12.3579C7.36846 12.5283 7.82249 14.6297 8.12087 15.0222H8.11996ZM8.93407 15.9591H7.5987C7.24782 15.9591 6.97798 14.3902 6.86194 14.392C6.75787 14.6565 6.42449 15.9591 6.12518 15.9591H4.7898C5.00346 16.3175 5.79179 16.6556 5.87744 17.0398C5.98704 17.5345 5.59379 18.055 5.52748 18.5387C6.56815 17.7317 7.02587 17.506 8.1043 18.4466C8.1043 17.9611 7.70461 17.4212 7.84735 16.9458C7.9505 16.6022 8.75817 16.3037 8.93407 15.9591Z" fill="#D81F1F"/>
<path d="M44.6025 15.7483C44.4239 15.5271 44.4257 15.1476 44.7306 15.0564C45.3918 14.8601 46.7649 15.1734 47.5081 15.026C47.6242 14.9514 48.1058 12.7624 48.3278 12.3911C48.5958 11.9443 48.9356 12.1746 49.1032 12.5791C49.2478 12.9282 49.7663 14.8998 49.9109 14.9956C50.4451 15.1771 52.3008 14.8592 52.6397 15.1218C52.9261 15.3429 52.7309 15.5824 52.543 15.7787C52.2289 16.1057 50.6955 17.097 50.6062 17.3384C50.737 17.8506 50.8447 18.3785 50.9939 18.887C51.0943 19.2288 51.7666 20.3316 50.9792 20.3758C50.4174 20.4071 49.083 18.8474 48.6649 18.8124C48.3738 18.7875 47.0292 20.0865 46.5402 20.2818C46.1111 20.4532 45.9213 20.2745 45.9757 19.8083C46.0429 19.2307 46.7972 17.7096 46.6774 17.3144C46.5807 16.9947 44.8733 16.0845 44.6016 15.7492L44.6025 15.7483ZM47.9364 15.9592C47.5993 16.0523 46.8966 15.8911 46.5089 15.9592L47.3875 16.6907C47.8802 17.2223 47.4805 17.8617 47.3387 18.4467C47.7375 18.3112 48.2725 17.6958 48.675 17.7023C49.0774 17.7087 49.525 18.373 49.9616 18.4476C49.8538 17.9685 49.5038 17.4646 49.6595 16.945C49.7553 16.6253 50.5381 16.2421 50.7453 15.9601C49.1649 16.1435 49.0673 15.7593 48.6731 14.3921C48.5783 14.394 48.3029 15.8579 47.9364 15.9592Z" fill="#D81F1F"/>
<path d="M28.9271 2.77575C29.0624 2.89275 31.3805 2.68178 31.8032 2.78128C31.9229 2.80984 31.9745 3.15255 31.9441 3.27139C31.852 3.62424 30.0626 4.64962 29.7568 5.05866C29.7375 5.63077 30.6953 7.52215 30.4393 7.94501C30.3978 8.01318 30.2201 8.10531 30.14 8.11545C29.7642 8.16427 28.2133 6.62575 27.6884 6.47926C27.4885 6.51427 26.0012 7.94409 25.5969 8.0832C25.3759 8.15967 25.1456 8.08504 25.0876 7.85749C24.9403 7.27985 25.9515 5.67131 25.7737 5.06143C25.7065 4.83019 23.9521 3.8085 23.6979 3.49526C23.4437 3.18203 23.5635 2.83655 23.9871 2.78035C24.4107 2.72416 26.6136 2.88169 26.7076 2.78404C26.6781 2.4487 27.3421 0.201711 27.46 0.128931C27.6368 0.0211417 27.9997 0.112349 28.1314 0.30121C28.3625 0.631947 28.8294 2.69007 28.928 2.77483L28.9271 2.77575ZM29.8397 3.70624H28.5044C28.1351 3.70624 28.1157 2.4229 27.7234 2.32433C27.4885 2.67533 27.4913 3.33128 27.1671 3.5662C26.7527 3.86561 26.1578 3.59845 25.6964 3.7523C25.8603 4.02039 26.7122 4.46076 26.7831 4.69108C26.9433 5.20607 26.5565 5.69618 26.5252 6.19367C26.6385 6.31804 27.4941 5.41612 27.8569 5.45389C28.0227 5.47139 29.056 6.34476 29.103 6.2858C29.0367 5.80213 28.6001 5.17935 28.7521 4.69108C28.8239 4.46076 29.7034 3.99736 29.8407 3.70624H29.8397Z" fill="#D81F1F"/>
<path d="M8.57406 38.3368C8.68089 38.4299 10.8718 38.2714 11.2789 38.3488C11.8996 38.4667 11.5174 38.9633 11.2365 39.2222C10.7042 39.7132 9.92233 40.1011 9.3891 40.6225C9.28872 41.0481 10.0338 42.4789 10.112 43.0233C10.1903 43.5678 9.89194 43.7097 9.41949 43.5264C8.94705 43.343 7.7406 42.115 7.41182 42.126C7.20921 42.1325 5.82963 43.3688 5.40784 43.5282C5.04682 43.6646 4.65266 43.5752 4.71436 43.1164C4.77975 42.6272 5.52572 40.9965 5.49533 40.6944C5.1822 40.1987 3.28965 39.2185 3.24453 38.7477C3.23624 38.6584 3.29794 38.4934 3.36056 38.4372C3.66448 38.1701 5.73938 38.4833 6.26708 38.3046C6.43009 38.1968 6.83991 36.1783 7.07107 35.7923C7.21842 35.5472 7.46063 35.4809 7.69916 35.667C7.93769 35.8531 8.39079 37.9103 8.57406 38.3378V38.3368ZM9.48672 39.2673H8.15135C7.78112 39.2673 7.58496 37.8154 7.50576 37.7924C7.3317 37.7417 7.3667 37.8725 7.32709 37.9775C6.84267 39.2461 7.15027 39.3769 5.43546 39.2673C5.51651 39.774 6.37944 40.0108 6.501 40.4604C6.59218 40.7966 6.04697 41.682 6.17222 41.846C6.56086 41.7382 7.07291 41.0316 7.42287 41.015C7.69824 41.0021 8.60537 41.8975 8.74904 41.7538C8.66339 41.3328 8.26738 40.7837 8.39816 40.3461C8.49946 40.0071 9.332 39.6524 9.4858 39.2664L9.48672 39.2673Z" fill="#D81F1F"/>
<path d="M52.4149 26.8182C52.5917 26.9333 54.5736 26.7472 55.0249 26.8329C55.6124 26.9444 55.2956 27.3977 55.0295 27.6611C54.4742 28.2121 53.6564 28.5797 53.1581 29.1914C53.1029 29.4751 53.9225 31.1694 53.9492 31.6908C53.9621 31.9515 53.8534 32.191 53.5633 32.1735C52.9758 32.1376 51.8504 30.7493 51.1597 30.6101C50.8456 30.6194 49.5305 31.957 49.0838 32.1229C48.7062 32.2629 48.4226 32.1026 48.4604 31.689C48.5092 31.1601 49.3684 29.4853 49.2597 29.1048C48.9024 28.6101 47.1729 27.7385 47.0633 27.2374C47.0458 27.1581 47.0356 26.9941 47.0743 26.9324C47.2143 26.7086 49.664 26.8974 50.0895 26.8163C50.2516 26.4128 50.7563 24.3344 51.0215 24.2008C51.1643 24.129 51.342 24.1281 51.4847 24.2008C51.6874 24.305 52.2409 26.4395 52.4158 26.8163L52.4149 26.8182ZM50.515 27.7514C50.1779 27.8445 49.4752 27.6833 49.0875 27.7514C49.0286 27.9689 49.1465 27.9081 49.2054 27.9615C49.4743 28.2047 50.1752 28.5235 50.2673 28.8302C50.3768 29.1951 50.0573 29.7552 49.9597 30.1458C49.9339 30.2499 49.8519 30.2776 50.0545 30.2398C50.5131 30.1541 50.8981 29.5258 51.2582 29.5028C51.6662 29.4761 52.0742 30.1283 52.4941 30.2389C52.554 29.8317 52.0465 29.1785 52.1405 28.8312C52.2252 28.517 53.0964 28.073 53.3239 27.7966C52.0484 27.7938 51.5151 27.7966 51.389 26.3695C50.9349 26.5344 50.8981 27.6455 50.515 27.7514Z" fill="#D81F1F"/>
<path d="M16.8626 46.352C16.9676 46.4432 19.0793 46.2893 19.4753 46.364C19.77 46.4192 19.863 46.6735 19.7838 46.9398C19.6853 47.2733 17.7789 48.3871 17.6933 48.634C17.5588 49.0264 18.6769 51.0781 18.3757 51.524C17.9779 52.1146 16.4666 50.5714 16.0531 50.3393C15.4793 50.0187 15.3384 50.3033 14.8347 50.6525C14.3705 50.974 13.2663 52.2647 13.002 51.2237L13.7949 48.7224C13.5002 48.2443 11.6666 47.2852 11.6012 46.8624C11.5855 46.7629 11.5855 46.6192 11.6426 46.5381C11.7375 46.4036 14.1651 46.3852 14.5381 46.3483C14.6505 46.2755 15.1413 44.1667 15.3578 43.8056C15.5383 43.5043 15.8495 43.4979 16.065 43.7844L16.8607 46.3501L16.8626 46.352ZM17.7752 47.2825H16.3478C16.1452 47.2825 15.8357 45.6684 15.658 45.8084C15.6175 46.0452 15.1607 47.2825 14.9663 47.2825H13.631L14.6017 48.107C15.1266 48.6146 14.4036 49.2687 14.3686 49.862C14.7711 49.7561 15.3495 49.0311 15.7003 49.0255C16.1286 49.0182 16.5135 49.6511 16.9455 49.7699C16.9096 49.2614 16.5329 48.7971 16.6894 48.2692C16.7815 47.9596 17.5892 47.5883 17.7752 47.2825Z" fill="#D81F1F"/>
<path d="M28.9335 49.6621C29.1444 49.7911 31.0673 49.5902 31.5407 49.6805C31.9146 49.7515 31.9459 50.1154 31.7452 50.3881L29.6482 51.9487C29.7062 52.4084 30.5792 54.4721 30.4429 54.7429C29.9935 55.6356 28.1286 53.3398 27.6893 53.3813C27.3817 53.4098 26.1891 54.7042 25.6908 54.8784C25.2294 55.0396 24.9329 54.8774 24.9974 54.3726C25.0581 53.899 25.8317 52.261 25.77 51.9459C25.4717 51.4807 23.6979 50.553 23.5892 50.1642C23.5027 49.8556 23.6988 49.7109 23.9862 49.6732C24.4181 49.617 26.4451 49.7671 26.6026 49.6658C26.7214 49.324 27.3191 47.0153 27.4591 46.9305C27.5392 46.8817 27.8367 46.8946 27.9352 46.9305C28.2566 47.0438 28.6664 49.2558 28.9326 49.663L28.9335 49.6621ZM29.8397 50.599H28.4122C28.0595 50.599 27.8578 48.9417 27.7676 48.9398C27.5447 49.2383 27.3918 50.599 26.9387 50.599H25.6033C25.7599 50.9215 26.6035 51.2946 26.6901 51.5857C26.8301 52.0537 26.4433 52.694 26.4331 53.1786C27.5014 52.226 27.8615 52.2979 29.0099 53.0865C29.0256 52.6406 28.5412 51.9957 28.6581 51.5866C28.7429 51.2918 29.6463 50.8809 29.8397 50.599Z" fill="#D81F1F"/>
<path d="M38.1273 47.3746C38.0629 47.4345 37.7553 47.183 37.6678 47.3285C38.027 47.7053 38.7167 47.8288 38.7784 48.4322C38.8346 48.9859 38.458 49.3369 38.4055 49.862C38.4331 49.898 39.0059 49.3811 39.18 49.3949C39.2187 49.3977 39.611 49.8851 39.6856 49.9827C39.6027 50.3439 38.8816 50.6691 38.5593 50.892C38.1181 51.1979 37.001 52.3154 36.9467 51.1297L37.7479 48.6275C37.7175 48.5013 36.2514 47.5533 36.0082 47.3294C35.7338 47.077 35.3488 46.8126 35.7025 46.4496C36.3342 46.5795 37.4053 46.1815 37.9735 46.3759C38.3603 46.5086 38.1319 46.9232 38.0794 47.1433C38.0638 47.2069 38.1568 47.346 38.1264 47.3737L38.1273 47.3746Z" fill="#D81F1F"/>
<path d="M42.3646 43.9658C42.2854 43.8866 42.6722 42.7387 42.7477 42.6917C42.9237 42.583 43.642 42.7802 43.8437 42.6355C43.887 42.6042 44.1356 41.8073 44.2194 41.6295C45.7012 38.4889 49.4173 37.4819 52.2059 39.6018L51.7574 40.9256C51.7095 40.9699 51.005 40.4687 50.8558 40.3996C48.78 39.4359 46.251 40.383 45.6791 42.6761H51.0206L50.6523 43.9658H45.4028C45.5622 44.2809 45.4793 44.6393 45.4949 44.9792H50.2839L49.9155 46.1769H45.6791C46.2474 48.2709 48.232 49.1664 50.2839 48.6183C51.0197 48.422 51.5078 47.9596 52.1249 47.5588C51.948 48.0093 52.1792 49.1333 51.9001 49.406C51.8127 49.4916 51.2822 49.7652 51.1321 49.8353C48.0386 51.2623 44.5279 49.5165 43.9293 46.1769H42.4558C42.3959 46.0083 42.6833 45.0317 42.745 44.9921C42.8767 44.9083 43.5287 45.0262 43.7451 44.9783C43.6576 44.6347 43.5702 44.3012 43.7451 43.9658H42.3637H42.3646Z" fill="white"/>
<path d="M6.35546 27.7514C6.19153 28.1384 5.38017 28.3669 5.26966 28.7381C5.11033 29.2743 5.50726 29.8188 5.57173 30.3319C5.1398 30.2665 4.66367 29.5277 4.27687 29.5028C3.89007 29.4779 3.34027 30.1845 2.94886 30.331C2.94334 29.8418 3.39921 29.4097 3.30067 28.9251C3.20397 28.4479 2.43313 28.1734 2.21118 27.7514H3.54656C3.77588 27.7514 4.16636 26.4958 4.28332 26.2765C4.4233 26.2765 4.60749 27.7514 5.02008 27.7514H6.35546Z" fill="#D81F1F"/>
<path d="M39.4636 7.2071C39.9048 7.08365 40.0659 5.64001 40.2004 5.64001C40.5752 6.85241 40.7548 7.61891 42.2716 7.20802C42.0285 7.59403 41.2797 7.93675 41.184 8.37988C41.0771 8.87645 41.4188 9.3205 41.4879 9.78758C41.1296 9.65676 40.4693 8.97042 40.123 8.98147C39.7335 8.99437 39.2675 9.66321 38.865 9.78667C38.8871 9.20166 39.3973 8.81011 39.2131 8.19286C39.1183 7.87502 38.2738 7.571 38.1273 7.2071C38.4911 7.14261 39.1477 7.29554 39.4627 7.2071H39.4636Z" fill="#D81F1F"/>
<path d="M17.3138 7.30007L16.392 8.08131C15.9518 8.58525 16.5504 9.23474 16.6692 9.78659C16.5356 9.91833 15.6405 8.93809 15.2537 8.98139C15.0446 9.00535 14.0914 9.88793 13.9984 9.78751C13.992 9.29923 14.4506 8.86624 14.3502 8.38165C14.2664 7.97721 13.4578 7.69438 13.2607 7.30099C14.8236 7.49354 15.0391 7.06791 15.2878 5.6427L15.9702 7.12319C16.3975 7.26783 16.8644 7.31573 17.3129 7.30007H17.3138Z" fill="#D81F1F"/>
<path d="M8.93407 15.9592C8.75817 16.3037 7.95049 16.6022 7.84735 16.9459C7.7046 17.4212 8.10429 17.9611 8.10429 18.4466C7.02586 17.506 6.56815 17.7317 5.52747 18.5387C5.59378 18.0551 5.98703 17.5346 5.87744 17.0398C5.79179 16.6566 5.00346 16.3176 4.78979 15.9592H6.12517C6.42448 15.9592 6.75786 14.6565 6.86193 14.3921C6.97797 14.3902 7.24781 15.9592 7.59869 15.9592H8.93407Z" fill="#D81F1F"/>
<path d="M47.9364 15.9592C48.3029 15.8578 48.5783 14.3939 48.6731 14.3921C49.0673 15.7593 49.164 16.1444 50.7453 15.9601C50.539 16.2429 49.7553 16.6253 49.6595 16.9449C49.5038 17.4645 49.8538 17.9675 49.9616 18.4475C49.525 18.3738 49.0747 17.7087 48.675 17.7022C48.2753 17.6958 47.7375 18.3112 47.3387 18.4466C47.4805 17.8616 47.8802 17.2222 47.3875 16.6907L46.5089 15.9592C46.8966 15.891 47.5993 16.0522 47.9364 15.9592Z" fill="#D81F1F"/>
<path d="M29.8397 3.70625C29.7034 3.99737 28.823 4.46077 28.7511 4.69109C28.5992 5.17937 29.0357 5.80215 29.102 6.28581C29.0551 6.34385 28.0218 5.47141 27.856 5.45391C27.4931 5.41521 26.6376 6.31806 26.5243 6.19369C26.5565 5.6962 26.9424 5.20608 26.7822 4.69109C26.7103 4.46077 25.8584 4.0204 25.6954 3.75231C26.1568 3.59846 26.7527 3.86563 27.1662 3.56621C27.4904 3.33221 27.4876 2.67535 27.7224 2.32434C28.1148 2.42292 28.135 3.70625 28.5034 3.70625H29.8388H29.8397Z" fill="#D81F1F"/>
<path d="M9.48674 39.2674C9.33202 39.6534 8.5004 40.0081 8.3991 40.3471C8.26832 40.7838 8.66433 41.3329 8.74998 41.7548C8.60631 41.8986 7.69917 41.0031 7.42381 41.016C7.07385 41.0326 6.5618 41.7392 6.17316 41.847C6.04791 41.6821 6.59311 40.7967 6.50194 40.4614C6.38038 40.0118 5.51744 39.775 5.4364 39.2683C7.15213 39.3779 6.84453 39.2462 7.32803 37.9785C7.36855 37.8735 7.33264 37.7427 7.5067 37.7934C7.5859 37.8164 7.78206 39.2683 8.15228 39.2683H9.48766L9.48674 39.2674Z" fill="#D81F1F"/>
<path d="M50.515 27.7514C50.8981 27.6455 50.935 26.5344 51.389 26.3695C51.5152 27.7966 52.0475 27.7938 53.3239 27.7966C53.0974 28.0729 52.2262 28.517 52.1405 28.8312C52.0466 29.1776 52.5549 29.8317 52.4941 30.2389C52.0742 30.1283 51.6662 29.476 51.2582 29.5028C50.8981 29.5258 50.5132 30.155 50.0546 30.2398C49.8519 30.2775 49.9339 30.2499 49.9597 30.1458C50.0573 29.7552 50.3769 29.196 50.2673 28.8302C50.1752 28.5234 49.4744 28.2047 49.2054 27.9615C49.1456 27.9071 49.0286 27.9688 49.0876 27.7514C49.4753 27.6832 50.178 27.8445 50.515 27.7514Z" fill="#D81F1F"/>
<path d="M17.7753 47.2825C17.5892 47.5874 16.7815 47.9587 16.6895 48.2691C16.5329 48.797 16.9096 49.2623 16.9455 49.7699C16.5145 49.6501 16.1286 49.0181 15.7004 49.0255C15.3495 49.031 14.7711 49.7561 14.3687 49.862C14.4046 49.2687 15.1266 48.6146 14.6017 48.107L13.631 47.2825H14.9664C15.1607 47.2825 15.6175 46.0452 15.658 45.8084C15.8348 45.6684 16.1452 47.2825 16.3478 47.2825H17.7753Z" fill="#D81F1F"/>
<path d="M29.8396 50.599C29.6462 50.8819 28.7419 51.2928 28.6581 51.5866C28.5411 51.9957 29.0255 52.6397 29.0099 53.0865C27.8614 52.2979 27.5013 52.226 26.433 53.1786C26.4432 52.694 26.83 52.0537 26.69 51.5857C26.6034 51.2946 25.7598 50.9215 25.6033 50.599H26.9386C27.3918 50.599 27.5446 49.2383 27.7675 48.9398C27.8578 48.9417 28.0594 50.599 28.4122 50.599H29.8396Z" fill="#D81F1F"/>
</g>
<defs>
<clipPath id="clip0_143_83">
<rect width="58" height="55" fill="white"/>
</clipPath>
</defs>
</svg>
