<svg width="60" height="55" viewBox="0 0 60 55" fill="none" xmlns="http://www.w3.org/2000/svg">
<g clip-path="url(#clip0_143_60)">
<path d="M56.0868 38.3484C52.1964 42.6462 49.1244 46.5105 43.8847 49.4265C40.9293 51.0711 36.7384 53.1491 33.5964 54.3613C31.2118 55.2809 28.8619 55.1329 26.4537 54.3702C21.5745 52.8243 16.7181 50.1075 11.8644 48.3803C10.4905 47.8914 9.29592 47.5675 7.81094 47.6123C5.54296 47.6805 3.17847 48.13 0.892275 48.1569C0.453429 48.0932 0.0983449 47.8268 0.0355225 47.3862L0.0701208 36.3064L0.463443 35.8865C2.2079 35.6729 4.01155 35.3508 5.6941 34.8502C8.43552 34.0355 10.1854 32.1989 13.1818 32.0006C19.3521 31.5923 21.8249 34.4473 26.6449 37.0439C28.7763 38.1923 31.3329 38.5135 33.7147 38.9595C35.4683 39.2878 38.2816 39.3659 39.6783 40.4399C41.9955 42.2209 40.8683 44.9153 38.2143 45.363C33.1712 44.7313 27.7657 44.6757 22.9266 43.0418C22.4577 42.883 21.254 42.098 21.0783 42.927C20.96 43.4842 21.5809 43.6654 22.0015 43.8637C23.8744 44.7466 26.3508 45.2463 28.404 45.5397C31.027 45.9148 34.3202 46.3293 36.946 46.4531C38.4865 46.5258 39.6583 46.3804 40.8619 45.3701C42.5053 43.9902 42.7794 41.9571 41.3654 40.2999C41.2917 40.2138 40.9466 40.142 41.0923 39.9913C41.146 39.9356 42.2832 39.5202 42.5354 39.3937C44.5575 38.3727 46.4668 37.0672 48.2759 35.7196C50.2307 34.2625 53.6404 30.8925 55.8419 30.3452C58.1581 29.7692 60.7584 31.5223 59.7351 34.0023C59.2562 35.1633 57.0128 37.3256 56.0868 38.3484Z" fill="white"/>
<path d="M27.865 2.69171C27.9296 2.74375 27.9669 2.89897 28.0671 2.98241C28.4586 3.3099 30.0628 4.67637 30.1493 5.06308C30.3606 6.00516 28.6789 6.66553 28.546 7.39228C28.5078 7.60402 29.665 9.36079 29.5366 9.83632L32.0741 10.1629C32.1478 10.1979 32.3636 10.4043 32.3946 10.4742C32.6058 10.9489 32.6194 13.7581 32.359 14.1798C32.0832 14.6275 30.0446 14.4292 29.6213 14.7343C29.471 14.8419 28.9484 16.7207 28.6653 17.0123C28.597 17.3856 28.9111 17.4367 29.0422 17.5911C29.5084 18.1393 30.488 18.988 30.0255 19.7094C29.8762 19.9427 28.19 21.6017 27.936 21.7775C26.8616 22.524 26.1469 20.9906 25.2064 20.612C24.3187 21.022 23.4109 21.4105 22.4431 21.6133C22.0908 22.3921 22.6361 24.2808 21.4653 24.4638C20.9299 24.5473 19.1144 24.5365 18.5545 24.471C17.2898 24.3238 17.8725 22.4415 17.5839 21.6142C17.2452 21.5281 16.9038 21.4294 16.576 21.3056C16.1836 21.1566 15.2841 20.6937 14.9627 20.647C14.6413 20.6003 14.0704 21.2419 13.7681 21.4554C13.0298 21.9785 12.803 22.1992 12.0027 21.5954C11.725 21.3863 10.434 20.2199 10.2674 19.9858C9.52535 18.9486 11.0467 17.9957 11.4055 17.0671L10.4786 14.7092C10.3393 14.5683 8.42915 14.4974 8.03582 14.3799C7.70987 14.283 7.61974 13.9537 7.58605 13.6567C7.51412 13.0304 7.51412 11.5016 7.58605 10.8753C7.76268 9.33836 10.0616 10.4186 10.4786 9.82287C10.5187 9.76544 10.8128 8.74081 10.912 8.50035C11.065 8.13069 11.2853 7.78257 11.4628 7.42458C11.5056 7.1581 9.86222 5.77906 10.0625 4.97694C10.1299 4.70598 12.2049 2.65492 12.4762 2.59391C13.312 2.40729 14.2361 3.61854 14.9281 3.99538C15.793 3.58714 16.6625 3.18518 17.5885 2.9214C17.8033 2.0798 17.3017 0.24497 18.4716 0.0682159C18.8467 0.0116906 21.4407 0.0206627 21.6765 0.12833C22.3912 0.455818 22.2237 2.19375 22.3794 2.84513C22.9857 3.11161 23.6285 3.27221 24.2449 3.51895C24.4962 3.61944 25.0398 3.97205 25.2264 3.99717C25.7745 4.07254 26.9199 1.93355 27.864 2.68991L27.865 2.69171ZM19.4049 6.99839C12.9296 7.69195 13.22 17.3874 19.9202 17.5632C27.4552 17.7615 27.041 6.18102 19.4049 6.99839Z" fill="#D81F1F"/>
<path d="M50.4738 2.93128C51.325 3.03356 52.0735 3.53421 52.8692 3.81774C53.4128 3.42834 54.2049 2.36872 54.9578 2.59392C55.0871 2.6325 56.7278 4.24841 56.8908 4.45746C57.9414 5.8024 55.7536 6.5148 55.8838 7.15811C55.9065 7.27027 56.5794 8.84849 56.6595 8.90232C57.3688 9.37785 59.1524 8.44743 59.3044 10.0642C59.3527 10.5819 59.3763 12.4975 59.1205 12.851C58.7363 13.3831 57.2122 13.1668 56.5812 13.3544L55.8728 15.0923C56.1979 15.7571 57.5918 16.6346 57.0237 17.4251C56.8862 17.6153 55.1254 19.4367 54.9769 19.5336C54.1247 20.0907 53.3891 18.7386 52.7172 18.3788C52.0425 18.7709 51.244 19.1513 50.4738 19.268C50.2771 20.1168 50.7988 21.8538 49.6088 21.9606C49.068 22.009 47.1751 22.0395 46.7108 21.9372C46.5997 21.913 46.5005 21.8529 46.4158 21.7793C46.0352 21.4464 46.1572 19.8987 46.0898 19.364C45.2631 19.2124 44.5384 18.7781 43.7745 18.4596C43.0088 18.8876 42.4298 20.1141 41.4537 19.4017C41.3117 19.2985 39.6792 17.6018 39.5936 17.4672C39.0046 16.5485 40.3958 15.8783 40.6835 15.2233C40.8037 14.9487 40.1062 13.7626 40.0716 13.3615C39.5062 13.1435 37.7618 13.384 37.4959 12.8044C37.4012 12.5971 37.4085 9.9763 37.4713 9.64253C37.6434 8.72019 39.3505 9.13022 40.0816 8.93911L40.8064 7.03699C40.3575 6.29408 38.9372 5.58976 39.6346 4.59563C40.1672 4.2843 41.1251 2.8263 41.5694 2.64506C42.4261 2.29694 43.1618 3.48397 43.851 3.81864L46.0571 2.84963C46.22 2.22875 45.8267 0.499795 46.556 0.201019C47.0012 0.0179848 48.7949 0.0161901 49.3338 0.0619486C49.7663 0.0978377 50.156 0.16154 50.3372 0.59849L50.4728 2.93218L50.4738 2.93128ZM47.5366 6.27973C45.6118 6.50673 43.8956 8.27875 43.5005 10.1082C42.621 14.1762 47.0012 17.2761 50.6804 15.2995C55.3766 12.7765 53.1314 5.61937 47.5366 6.27973Z" fill="#D81F1F"/>
<path d="M37.1017 21.6716C37.4204 21.6895 38.6859 22.4208 38.8489 22.3894C39.3287 22.297 39.9415 21.0265 40.78 21.5029C40.8756 21.5567 42.0774 22.7052 42.2222 22.8631C42.692 23.3754 42.7958 23.6509 42.3679 24.2439C42.2076 24.4656 41.6723 24.8316 41.5912 25.0102C41.4774 25.2596 42.0792 26.3354 42.1821 26.6709C42.7557 26.8638 43.8865 26.6117 44.228 27.1671C44.4701 27.561 44.4547 29.6802 44.1788 30.0652C43.8082 30.582 42.3387 30.2446 42.1411 30.4797C42.0783 30.5541 41.5402 31.952 41.5612 32.0319C41.6659 32.4284 42.8185 33.0933 42.6264 33.7357C42.59 33.8577 40.9876 35.4395 40.8173 35.5454C40.5633 35.7033 40.3821 35.7293 40.089 35.6432C39.6929 35.5266 38.9727 34.6724 38.7041 34.7092C38.339 34.7594 37.5888 35.3516 37.1044 35.3408C36.8204 36.1196 37.3703 37.4475 36.2249 37.5696C35.7952 37.6153 34.2547 37.6315 33.875 37.548C32.8762 37.3282 33.478 35.7078 33.173 35.4584C32.8999 35.2341 31.8465 35.0439 31.5005 34.7047C31.0471 34.9927 30.3606 35.9258 29.7779 35.7581C29.6449 35.7195 27.875 33.9842 27.7958 33.8488C27.3442 33.0816 28.821 32.2625 28.7873 31.8865C28.7591 31.5698 28.2355 30.8206 28.1682 30.4303C27.7321 30.3262 26.228 30.451 26.0249 30.0302C25.9867 29.9512 25.8874 28.5174 25.8838 28.2842C25.8792 27.9872 25.9229 27.1833 26.1169 26.9796C26.4428 26.6377 27.905 26.8818 28.1554 26.566C28.2237 26.4798 28.8028 25.143 28.7873 25.0622C28.6944 24.584 27.1758 24.191 27.9815 23.0749C28.0944 22.9178 29.5175 21.5101 29.6222 21.4625C30.4462 21.0902 31.1918 22.4127 31.4704 22.3885C31.7017 22.1669 33.1402 21.7165 33.2204 21.5989C33.4471 21.2669 32.97 19.7784 33.6283 19.4886C34.0544 19.3011 35.3864 19.5326 35.9509 19.3478C37.3493 19.4214 36.8704 20.7259 37.1017 21.6698V21.6716ZM37.9648 25.7558C34.0589 22.0152 28.3694 28.1944 32.5421 31.5034C36.4516 34.6042 41.6195 29.2541 37.9648 25.7558Z" fill="#D81F1F"/>
<path d="M19.4049 6.99836C27.041 6.18098 27.4553 17.7615 19.9202 17.5632C13.2201 17.3873 12.9296 7.69102 19.4049 6.99836Z" fill="white"/>
<path d="M47.5366 6.27976C53.1314 5.6194 55.3766 12.7766 50.6804 15.2996C47.0012 17.2762 42.621 14.1763 43.5005 10.1082C43.8956 8.27879 45.6118 6.50676 47.5366 6.27976Z" fill="white"/>
<path d="M37.9648 25.7558C41.6195 29.255 36.4507 34.6042 32.5421 31.5034C28.3694 28.1944 34.0589 22.0152 37.9648 25.7558Z" fill="white"/>
</g>
<defs>
<clipPath id="clip0_143_60">
<rect width="60" height="55" fill="white"/>
</clipPath>
</defs>
</svg>
