<svg width="150" height="105" viewBox="0 0 150 105" fill="none" xmlns="http://www.w3.org/2000/svg">
<g clip-path="url(#clip0_121_254)">
<path d="M118.645 81.1624H142.383L116.322 84.4138C114.921 86.2276 113.403 87.9465 111.778 89.5624C102.238 99.0484 89.0608 104.915 74.5066 104.915C59.9523 104.915 46.773 99.0484 37.2352 89.5624C35.6118 87.9481 34.0937 86.2276 32.6908 84.4138L6.62993 81.1624H34.6349C36.171 83.2722 37.8717 85.2544 39.7187 87.0911C48.6217 95.9442 60.921 101.42 74.5066 101.42C88.0921 101.42 100.391 95.9442 109.294 87.0911C111.141 85.2544 112.842 83.2706 114.378 81.1624H118.645Z" fill="white"/>
<path d="M74.5066 0.0850506C89.0625 0.0850506 102.24 5.95164 111.778 15.4376C118.868 22.4883 123.947 31.5376 126.087 41.6631L142.382 44.9194H123.113C121.475 34.4456 116.495 25.0708 109.293 17.9089C100.39 9.05584 88.0904 3.58014 74.5049 3.58014C60.9194 3.58014 48.6201 9.05584 39.7171 17.9089C32.5131 25.0724 27.5345 34.4456 25.8964 44.9194H6.62828L22.9227 41.6631C25.0641 31.5376 30.1431 22.4883 37.2319 15.4376C46.7714 5.95164 59.949 0.0850506 74.5033 0.0850506" fill="white"/>
<path d="M101.794 81.1624C94.6809 87.8615 85.0756 91.9699 74.5066 91.9699C63.9375 91.9699 54.3322 87.8615 47.2187 81.1624H52.6398C58.7138 85.7516 66.2911 88.4764 74.5066 88.4764C82.722 88.4764 90.301 85.7516 96.3733 81.1624H101.794Z" fill="white"/>
<path d="M0.0674286 62.7481V61.5117C2.07072 61.6834 4.10855 61.8044 5.93914 61.8044C9.22039 61.8044 10.0658 61.3923 10.0658 60.3455C10.0658 59.8484 9.85855 59.5556 9.39309 59.3152C8.78947 59.0404 7.87335 58.9194 5.93914 58.697C3.60855 58.4385 2.39966 58.0951 1.53618 57.4769C0.672691 56.8586 0.138151 56 0.138151 54.6098C0.138151 51.1065 3.12499 50.2479 7.90953 50.2479C9.99835 50.2479 12.0543 50.436 13.8668 50.7107V51.9472C12.1743 51.7755 10.3437 51.6724 8.78947 51.6724C5.85361 51.6724 5.00822 52.0502 5.00822 53.0806C5.00822 53.5614 5.18092 53.8526 5.5773 54.0586C6.11184 54.3514 6.92434 54.4708 8.78947 54.6589C11.2928 54.9336 12.5543 55.2427 13.5214 55.861C14.5049 56.4792 14.9375 57.3542 14.9375 58.6953C14.9375 62.2149 11.6908 63.229 6.82072 63.229C4.40295 63.229 2.14144 63.0229 0.0690724 62.7481H0.0674286Z" fill="white"/>
<path d="M16.6464 50.4016H21.7928V55.3818C22.5181 54.7635 23.9687 54.2827 25.5576 54.2827C27.9572 54.2827 29.926 55.0383 29.926 57.6142V63.0752H24.7796V57.6322C24.7796 56.5152 24.3651 56.1047 23.2599 56.1047C22.7944 56.1047 22.2763 56.1733 21.7928 56.3107V63.0769H16.6464V50.4033V50.4016Z" fill="white"/>
<path d="M36.9194 62.5764V66.5082H31.8076V54.4871H36.7812V55.0874C37.6102 54.5902 38.7319 54.2811 40.097 54.2811C43.4983 54.2811 45.1217 56.1178 45.1217 58.7804C45.1217 61.443 43.6546 63.2797 40.097 63.2797C38.8191 63.2797 37.7483 63.0049 36.9194 62.5764ZM40.0115 58.7984C40.0115 56.5152 39.4062 55.9477 38.0954 55.9477C37.6974 55.9477 37.2845 55.982 36.921 56.0687V61.546C37.2845 61.6491 37.6974 61.6834 38.1118 61.6834C39.3372 61.6834 40.0115 61.1682 40.0115 58.7984Z" fill="white"/>
<path d="M46.4359 58.782C46.4359 56.0687 48.3865 54.2827 53.0839 54.2827C57.7812 54.2827 59.7845 56.0687 59.7845 58.782C59.7845 61.4953 57.8339 63.2813 53.0839 63.2813C48.3339 63.2813 46.4359 61.582 46.4359 58.782ZM54.6562 58.7984C54.6562 56.2404 54.3273 55.6222 53.102 55.6222C51.8766 55.6222 51.5658 56.2404 51.5658 58.7984C51.5658 61.3563 51.8602 61.9925 53.102 61.9925C54.3437 61.9925 54.6562 61.322 54.6562 58.7984Z" fill="white"/>
<path d="M61.4095 50.4016H66.5559V63.0752H61.4095V50.4016Z" fill="white"/>
<path d="M68.2122 60.568C68.2122 58.6446 69.6974 57.786 72.8914 57.786H75.5164V57.2201C75.5164 55.9149 74.8947 55.6925 72.926 55.6925C71.9589 55.6925 70.9408 55.7612 69.7483 55.8822V54.6965C71.0608 54.5084 72.8733 54.353 74.3766 54.353C78.7977 54.353 80.4029 55.3147 80.4029 57.4948V63.0752H75.5164V62.5437C74.6875 62.9722 73.4441 63.2649 72.2352 63.2649C69.6283 63.2649 68.2122 62.2509 68.2122 60.5696V60.568ZM75.5181 61.7177V58.885H74.4638C73.5658 58.885 73.1168 59.2121 73.1168 60.3619C73.1168 61.5117 73.5658 61.8208 74.4638 61.8208C74.8273 61.8208 75.171 61.8044 75.5181 61.7177Z" fill="white"/>
<path d="M87.745 50.4016H92.3552L98.9342 63.0752H93.1842L91.6135 59.9841H84.551L83.0493 63.0752H81.426L87.7467 50.4016H87.745ZM85.2056 58.6266H90.921L88.0033 52.8745L85.2056 58.6266Z" fill="#DB1F1F"/>
<path d="M99.6957 57.6306V50.4016H105.204V57.8023C105.204 60.4469 106.171 61.4773 109.227 61.4773C112.283 61.4773 113.406 60.4469 113.406 57.8023V50.4016H115.03V57.7173C115.03 61.8551 112.854 63.247 107.431 63.247C102.008 63.247 99.6941 61.7194 99.6941 57.6322L99.6957 57.6306Z" fill="#DB1F1F"/>
<path d="M116.413 50.4016H132.076V51.7575H126.929V63.0736H121.559V51.7575H116.413V50.4016Z" fill="#DB1F1F"/>
<path d="M132.128 56.7376C132.128 52.7878 135.046 50.1955 141.005 50.1955C146.964 50.1955 149.898 52.7878 149.898 56.7376C149.898 60.6874 146.98 63.2797 141.005 63.2797C135.03 63.2797 132.128 60.6874 132.128 56.7376ZM144.372 56.7213C144.372 52.4117 143.457 51.553 141.005 51.553C138.553 51.553 137.655 52.4117 137.655 56.7213C137.655 61.0308 138.553 61.9075 141.005 61.9075C143.457 61.9075 144.372 61.0488 144.372 56.7213Z" fill="#DB1F1F"/>
<path d="M42.6398 36.9724C43.898 37.746 45.8947 38.917 47.6826 40.5248C47.6826 40.5248 43.2632 38.3299 40.4507 36.9888C40.4507 36.9888 40.3931 40.2565 41.5592 41.493C42.1151 42.0834 43.6743 42.7572 45.1513 43.3002C46.7714 43.8972 43.1826 41.8446 42.5411 40.9173C42.2763 40.5329 42.1431 39.9474 42.0773 39.393C50.9112 43.2855 54.6727 44.9766 54.6727 44.9766C48.0428 37.8605 41.5493 36.3002 42.6415 36.9724H42.6398Z" fill="white"/>
<path d="M106.373 36.9724C105.115 37.746 103.118 38.917 101.331 40.5248C101.331 40.5248 105.75 38.3299 108.563 36.9888C108.563 36.9888 108.62 40.2565 107.454 41.493C106.898 42.0834 105.339 42.7572 103.862 43.3002C102.242 43.8972 105.831 41.8446 106.472 40.9173C106.737 40.5329 106.87 39.9474 106.936 39.393C98.102 43.2855 94.3405 44.9766 94.3405 44.9766C100.97 37.8605 107.464 36.3002 106.372 36.9724H106.373Z" fill="white"/>
<path d="M36.3569 28.0899C37.3059 28.0425 39.7813 28.0147 41.1086 28.9306C42.829 30.118 44.0461 30.9505 43.153 29.6633C42.1184 28.1717 40.9737 27.5012 40.4704 27.3131C39.9671 27.125 36.5609 27.0416 36.0099 27.2215C35.3059 27.4505 35.4441 29.7794 35.4441 29.7794C35.4441 29.7794 35.8602 28.1145 36.3553 28.0899H36.3569Z" fill="white"/>
<path d="M112.656 28.0899C111.707 28.0425 109.232 28.0147 107.905 28.9306C106.184 30.118 104.967 30.9505 105.86 29.6633C106.895 28.1717 108.039 27.5012 108.543 27.3131C109.046 27.125 112.452 27.0416 113.003 27.2215C113.707 27.4505 113.569 29.7794 113.569 29.7794C113.569 29.7794 113.153 28.1145 112.658 28.0899H112.656Z" fill="white"/>
<path d="M61.7599 35.2306C59.8322 34.4783 56.4622 33.6769 50.9375 33.2729C50.0461 33.2075 47.2171 32.9213 47.2171 32.9213C47.2171 32.9213 49.1908 34.0481 51.0674 36.1072C51.8569 36.9724 52.8602 38.289 53.3289 39.1722C52.2204 38.1696 50.4556 36.3771 47.7434 34.7743C45.3076 33.335 44.6941 33.0717 43 32.6301C41.2533 32.1755 39.2993 32.3652 38.1069 33.6147C37.1661 34.5993 36.7549 35.7409 36.375 36.6846C35.8059 38.0944 35.6332 39.4911 35.6332 39.4911C35.6332 39.4911 36.5197 37.6381 37.3898 36.4033C38.3092 35.0981 39.3569 34.596 40.4984 34.5159C42.6546 34.3638 45.3043 35.3435 47.3832 36.4131C51.0658 38.3086 55.722 42.1357 55.7237 42.1374C55.7237 42.1374 55.3372 41.3114 55.1382 40.8322C54.6612 39.689 54.0082 38.3773 53.3026 37.0804C52.9967 36.5178 52.2418 35.3369 52.2418 35.3369C52.2418 35.3369 54.5872 35.2371 56.4655 35.4023C59.5872 35.6771 61.9967 36.1825 63.9556 36.7762C65.5395 37.257 66.3421 37.8114 66.1365 37.6005C65.2763 36.7156 62.9507 35.6967 61.7599 35.2322V35.2306Z" fill="white"/>
<path d="M87.2533 35.2306C89.1809 34.4783 92.551 33.6769 98.0757 33.2729C98.9671 33.2075 101.796 32.9213 101.796 32.9213C101.796 32.9213 99.8224 34.0481 97.9457 36.1072C97.1562 36.9724 96.153 38.289 95.6842 39.1722C96.7928 38.1696 98.5576 36.3771 101.27 34.7743C103.706 33.335 104.319 33.0717 106.013 32.6301C107.76 32.1755 109.714 32.3652 110.906 33.6147C111.847 34.5993 112.258 35.7409 112.638 36.6846C113.207 38.0944 113.38 39.4911 113.38 39.4911C113.38 39.4911 112.493 37.6381 111.623 36.4033C110.704 35.0981 109.656 34.596 108.515 34.5159C106.359 34.3638 103.709 35.3435 101.63 36.4131C97.9474 38.3086 93.2911 42.1357 93.2895 42.1374C93.2895 42.1374 93.676 41.3114 93.875 40.8322C94.352 39.689 95.0049 38.3773 95.7105 37.0804C96.0164 36.5178 96.7714 35.3369 96.7714 35.3369C96.7714 35.3369 94.426 35.2371 92.5477 35.4023C89.426 35.6771 87.0164 36.1825 85.0576 36.7762C83.4737 37.257 82.6711 37.8114 82.8766 37.6005C83.7368 36.7156 86.0625 35.6967 87.2533 35.2322V35.2306Z" fill="white"/>
<path d="M74.5066 34.493C68.7878 34.493 64.9359 34.9329 64.9359 34.9329C64.9359 34.9329 72.0016 35.8586 74.5066 35.8586C77.0115 35.8586 84.0773 34.9329 84.0773 34.9329C84.0773 34.9329 80.2253 34.493 74.5066 34.493Z" fill="white"/>
<path d="M99.3997 25.061C97.9211 22.8906 96.0987 19.9026 93.903 18.9441C92.0576 18.1378 88.5461 17.5065 83.25 17.168C78.8816 16.8883 76.0905 16.818 74.5066 16.818C72.9227 16.818 70.1316 16.8883 65.7632 17.168C60.4671 17.5082 56.9556 18.1378 55.1102 18.9441C52.9161 19.9026 51.0921 22.8906 49.6135 25.061C48.6234 26.5149 47.4737 28.4939 46.5115 30.311C46.5115 30.311 47.5263 28.9568 49.2517 26.5395C52.0674 22.593 53.3701 21.7736 55.0592 20.9329C56.7484 20.0923 60.0214 19.5378 64.9901 19.2353C69.2845 18.9752 74.5082 18.9376 74.5082 18.9376C74.5082 18.9376 79.7319 18.9736 84.0263 19.2353C88.9951 19.5362 92.2664 20.0923 93.9572 20.9329C95.6464 21.7736 96.9507 22.5913 99.7648 26.5395C101.488 28.9568 102.505 30.311 102.505 30.311C101.541 28.4939 100.393 26.5149 99.403 25.061H99.3997Z" fill="white"/>
<path d="M10.9391 68.1895H15.222C18.3306 68.1895 20.0378 68.5722 20.0378 70.103C20.0378 71.104 18.9622 71.6142 17.5707 71.7418C19.2385 71.889 20.3438 72.3306 20.3438 73.4787C20.3438 75.0096 18.4391 75.4315 15.1924 75.4315H10.9391V68.1895ZM15.7352 71.5063C17.9655 71.5063 18.4885 70.9862 18.4885 70.1227C18.4885 68.9451 17.4819 68.6311 15.222 68.6311H12.449V71.5063H15.7352ZM15.222 74.9899C17.5905 74.9899 18.7451 74.6367 18.7451 73.41C18.7451 72.517 18.1431 71.9479 15.7747 71.9479H12.449V74.9899H15.222Z" fill="white"/>
<path d="M21.7155 73.0862C21.7155 71.4376 23.2845 70.6329 25.4161 70.6329C27.8536 70.6329 29.176 71.418 29.176 73.0077C29.176 73.0862 29.1661 73.1647 29.1464 73.3021H23.2056C23.2451 74.6759 24.1036 75.0684 25.9194 75.0684C26.9753 75.0684 27.9424 74.9998 28.9392 74.9016V75.2745C27.9424 75.4119 27.0247 75.5002 25.7418 75.5002C23.4128 75.5002 21.7155 74.9703 21.7155 73.0862ZM23.2056 72.8998H27.7549C27.7155 71.5848 27.153 71.0647 25.4161 71.0647C23.9359 71.0647 23.2451 71.5946 23.2056 72.8998Z" fill="white"/>
<path d="M30.3109 75.2255V74.8526C31.2484 74.9801 32.4622 75.0783 33.4885 75.0783C35.3635 75.0783 35.9753 74.8624 35.9753 74.2834C35.9753 74.0479 35.9062 73.8614 35.6299 73.7535C35.3141 73.6357 34.6628 73.6063 33.6365 73.5376C32.4819 73.4787 31.6826 73.4297 31.199 73.2334C30.6266 73.0077 30.4589 72.625 30.4589 72.1147C30.4589 71.0549 31.5641 70.6722 33.9424 70.6722C34.9095 70.6722 35.9457 70.7703 36.6464 70.8783V71.261C35.8372 71.153 34.8109 71.0843 33.9326 71.0843C32.1661 71.0843 31.722 71.31 31.722 71.7811C31.722 72.0166 31.7714 72.2226 32.028 72.3306C32.324 72.468 32.9062 72.4974 33.9622 72.5563C35.0872 72.6152 35.9951 72.6741 36.4984 72.8507C37.0707 73.0764 37.2286 73.4297 37.2385 73.9105C37.2484 75.0684 36.0937 75.4904 33.4786 75.4904C32.4326 75.4904 31.1003 75.3628 30.3109 75.2255Z" fill="white"/>
<path d="M37.8799 70.7311H39.1727V69.3671H40.653V70.7311H42.8635V71.1334H40.653V73.8909C40.653 74.882 41.0674 75.0684 41.9359 75.0684C42.2516 75.0684 42.5576 75.0292 42.903 74.9703V75.353C42.3602 75.4512 41.8273 75.5002 41.2944 75.5002C39.8734 75.5002 39.1727 75.147 39.1727 73.6946V71.1334H37.8799V70.7311Z" fill="white"/>
<path d="M47.3536 68.1895H55.7516V68.6311H48.8931V71.5848H55.1497V72.0362H48.8931V75.4315H47.3536V68.1895Z" fill="white"/>
<path d="M56.6299 70.7311H58.0609V71.153C58.7615 70.8292 59.5313 70.7016 60.301 70.7016C60.676 70.7016 61.0411 70.7409 61.3964 70.7899V71.2021C61.1694 71.1825 60.7155 71.1727 60.4786 71.1727C59.6892 71.1727 58.8898 71.2413 58.1003 71.4474V75.4315H56.6299V70.7311Z" fill="white"/>
<path d="M61.8701 73.0862C61.8701 71.6535 63.0938 70.6329 65.8766 70.6329C68.6595 70.6329 69.903 71.6535 69.903 73.0862C69.903 74.5189 68.6694 75.5297 65.8766 75.5297C63.0839 75.5297 61.8701 74.5778 61.8701 73.0862ZM68.3635 73.0764C68.3635 71.6339 67.5543 71.0647 65.8865 71.0647C64.2188 71.0647 63.4095 71.6339 63.4095 73.0764C63.4095 74.5189 64.2089 75.1077 65.8865 75.1077C67.5641 75.1077 68.3635 74.5582 68.3635 73.0764Z" fill="white"/>
<path d="M82.4063 72.782C82.4063 71.5259 81.7352 71.1628 80.472 71.1628C79.6036 71.1628 78.7549 71.4278 78.2122 71.6633C78.3503 71.9479 78.4293 72.2913 78.4293 72.6937V75.4315H76.9589V72.7133C76.9589 71.5063 76.278 71.1628 75.0148 71.1628C74.2056 71.1628 73.4556 71.3787 72.972 71.5652V75.4315H71.5016V70.7311H72.9326V71.2806C73.4852 70.9568 74.6398 70.6231 75.6464 70.6231C76.8701 70.6231 77.6595 70.8881 78.074 71.4376C78.7944 70.9862 79.949 70.6231 81.0642 70.6231C83.1168 70.6231 83.8865 71.3199 83.8865 72.7624V75.4315H82.4063V72.782Z" fill="white"/>
<path d="M88.9589 68.1895H97.5346V68.6311H90.4984V71.4867H96.9326V71.9381H90.4984V74.9899H97.6628V75.4315H88.9589V68.1895Z" fill="white"/>
<path d="M99.0247 73.4002V70.7311H100.505V73.3806C100.505 74.6367 101.275 74.9899 102.755 74.9899C103.604 74.9899 104.452 74.8329 104.956 74.6759V70.7311H106.436V75.4315H104.995V74.9703C104.393 75.2647 103.219 75.5297 102.173 75.5297C99.9523 75.5297 99.0247 74.8624 99.0247 73.4002Z" fill="white"/>
<path d="M108.34 70.7311H109.771V71.153C110.472 70.8292 111.242 70.7016 112.012 70.7016C112.387 70.7016 112.752 70.7409 113.107 70.7899V71.2021C112.88 71.1825 112.426 71.1727 112.189 71.1727C111.4 71.1727 110.6 71.2413 109.811 71.4474V75.4315H108.34V70.7311Z" fill="white"/>
<path d="M113.581 73.0862C113.581 71.6535 114.804 70.6329 117.587 70.6329C120.37 70.6329 121.613 71.6535 121.613 73.0862C121.613 74.5189 120.38 75.5297 117.587 75.5297C114.794 75.5297 113.581 74.5778 113.581 73.0862ZM120.074 73.0764C120.074 71.6339 119.265 71.0647 117.597 71.0647C115.929 71.0647 115.12 71.6339 115.12 73.0764C115.12 74.5189 115.919 75.1077 117.597 75.1077C119.275 75.1077 120.074 74.5582 120.074 73.0764Z" fill="white"/>
<path d="M124.683 75.0881V77.3942H123.212V70.7311H124.653V71.0942C125.433 70.8096 126.488 70.6231 127.396 70.6231C129.637 70.6231 130.959 71.4769 130.959 73.0862C130.959 74.6956 129.666 75.5395 127.396 75.5395C126.498 75.5395 125.462 75.3628 124.683 75.0881ZM129.419 73.0764C129.419 71.4474 128.354 71.1334 126.765 71.1334C126.074 71.1334 125.334 71.2413 124.683 71.3984V74.7741C125.265 74.9016 126.143 75.039 126.765 75.039C128.334 75.039 129.419 74.6563 129.419 73.0764Z" fill="white"/>
<path d="M132.242 73.0862C132.242 71.4376 133.811 70.6329 135.942 70.6329C138.38 70.6329 139.702 71.418 139.702 73.0077C139.702 73.0862 139.692 73.1647 139.673 73.3021H133.732C133.771 74.6759 134.63 75.0684 136.446 75.0684C137.502 75.0684 138.469 74.9998 139.465 74.9016V75.2745C138.469 75.4119 137.551 75.5002 136.268 75.5002C133.939 75.5002 132.242 74.9703 132.242 73.0862ZM133.732 72.8998H138.281C138.242 71.5848 137.679 71.0647 135.942 71.0647C134.462 71.0647 133.771 71.5946 133.732 72.8998Z" fill="white"/>
</g>
<defs>
<clipPath id="clip0_121_254">
<rect width="150" height="105" fill="white"/>
</clipPath>
</defs>
</svg>
